<?xml version="1.0" encoding="UTF-8" standalone="no"?>
<!-- Created with Inkscape (http://www.inkscape.org/) -->

<svg
   xmlns:dc="http://purl.org/dc/elements/1.1/"
   xmlns:cc="http://creativecommons.org/ns#"
   xmlns:rdf="http://www.w3.org/1999/02/22-rdf-syntax-ns#"
   xmlns:svg="http://www.w3.org/2000/svg"
   xmlns="http://www.w3.org/2000/svg"
   xmlns:sodipodi="http://sodipodi.sourceforge.net/DTD/sodipodi-0.dtd"
   xmlns:inkscape="http://www.inkscape.org/namespaces/inkscape"
   width="210mm"
   height="297mm"
   viewBox="0 0 744.09448819 1052.3622047"
   id="svg5176"
   version="1.1"
   inkscape:version="0.91 r13725"
   sodipodi:docname="microswitchA4.svg">
  <defs
     id="defs5178" />
  <sodipodi:namedview
     id="base"
     pagecolor="#ffffff"
     bordercolor="#666666"
     borderopacity="1.0"
     inkscape:pageopacity="0.0"
     inkscape:pageshadow="2"
     inkscape:zoom="0.35"
     inkscape:cx="-52.142857"
     inkscape:cy="520"
     inkscape:document-units="px"
     inkscape:current-layer="layer1"
     showgrid="false"
     inkscape:window-width="1920"
     inkscape:window-height="1057"
     inkscape:window-x="-8"
     inkscape:window-y="-8"
     inkscape:window-maximized="1" />
  <metadata
     id="metadata5181">
    <rdf:RDF>
      <cc:Work
         rdf:about="">
        <dc:format>image/svg+xml</dc:format>
        <dc:type
           rdf:resource="http://purl.org/dc/dcmitype/StillImage" />
        <dc:title></dc:title>
      </cc:Work>
    </rdf:RDF>
  </metadata>
  <g
     inkscape:label="Layer 1"
     inkscape:groupmode="layer"
     id="layer1">
    <g
       transform="matrix(0.00899999,0,0,0.00899999,-100.71694,307.98449)"
       id="g5724">
      <g
         id="g614"
         style="fill:#000000;fill-opacity:1;stroke:#000000;stroke-width:0;stroke-linecap:round;stroke-linejoin:round;stroke-opacity:1">
        <polyline
           id="polyline616"
           points="45100,40340 45100,39660 45900,39660 45900,40340 45100,40340 "
           style="fill:#000000;fill-rule:evenodd;stroke:#000000;stroke-opacity:1" />
      </g>
      <g
         id="g620"
         style="fill:#000000;fill-opacity:0;stroke:#000000;stroke-width:680;stroke-linecap:round;stroke-linejoin:round;stroke-opacity:1">
        <path
           inkscape:connector-curvature="0"
           style="fill:#000000;stroke:#000000;stroke-opacity:1"
           id="path622"
           d="m 45440,41000 120,0" />
        <path
           inkscape:connector-curvature="0"
           style="fill:#000000;stroke:#000000;stroke-opacity:1"
           id="path624"
           d="m 45440,42000 120,0" />
        <path
           inkscape:connector-curvature="0"
           style="fill:#000000;stroke:#000000;stroke-opacity:1"
           id="path626"
           d="m 45440,43000 120,0" />
        <path
           inkscape:connector-curvature="0"
           style="fill:#000000;stroke:#000000;stroke-opacity:1"
           id="path628"
           d="m 45440,44000 120,0" />
        <path
           inkscape:connector-curvature="0"
           style="fill:#000000;stroke:#000000;stroke-opacity:1"
           id="path630"
           d="m 45440,45000 120,0" />
        <path
           inkscape:connector-curvature="0"
           style="fill:#000000;stroke:#000000;stroke-opacity:1"
           id="path632"
           d="m 45440,46000 120,0" />
        <path
           inkscape:connector-curvature="0"
           style="fill:#000000;stroke:#000000;stroke-opacity:1"
           id="path634"
           d="m 45440,47000 120,0" />
      </g>
      <g
         id="g638"
         style="fill:#840000;fill-opacity:1;stroke:#840000;stroke-width:0;stroke-linecap:round;stroke-linejoin:round;stroke-opacity:1">
        <polyline
           id="polyline640"
           points="64100,47340 64100,46660 64900,46660 64900,47340 64100,47340 "
           style="fill:#000000;fill-rule:evenodd" />
      </g>
      <g
         id="g644"
         style="fill:#840000;fill-opacity:0;stroke:#000000;stroke-width:680;stroke-linecap:round;stroke-linejoin:round;stroke-opacity:1">
        <path
           inkscape:connector-curvature="0"
           style="fill:#000000;stroke:#000000;stroke-opacity:1"
           id="path646"
           d="m 64440,48000 120,0" />
        <path
           inkscape:connector-curvature="0"
           style="fill:#000000;stroke:#000000;stroke-opacity:1"
           id="path648"
           d="m 64440,49000 120,0" />
        <path
           inkscape:connector-curvature="0"
           style="fill:#000000;stroke:#000000;stroke-opacity:1"
           id="path650"
           d="m 64440,50000 120,0" />
        <path
           inkscape:connector-curvature="0"
           style="fill:#000000;stroke:#000000;stroke-opacity:1"
           id="path652"
           d="m 64440,51000 120,0" />
        <path
           inkscape:connector-curvature="0"
           style="fill:#000000;stroke:#000000;stroke-opacity:1"
           id="path654"
           d="m 64440,52000 120,0" />
        <path
           inkscape:connector-curvature="0"
           style="fill:#000000;stroke:#000000;stroke-opacity:1"
           id="path656"
           d="m 64440,53000 120,0" />
        <path
           inkscape:connector-curvature="0"
           style="fill:#000000;stroke:#000000;stroke-opacity:1"
           id="path658"
           d="m 64440,54000 120,0" />
      </g>
      <g
         id="g660"
         style="fill:#840000;fill-opacity:1;stroke:#840000;stroke-width:0;stroke-linecap:round;stroke-linejoin:round;stroke-opacity:1">
        <circle
           style="fill:#000000"
           id="circle662"
           r="393.5"
           cy="40250"
           cx="60500" />
      </g>
      <g
         id="g666"
         style="fill:#840000;fill-opacity:1;stroke:#840000;stroke-width:0;stroke-linecap:round;stroke-linejoin:round;stroke-opacity:1">
        <circle
           style="fill:#000000"
           id="circle668"
           r="393.5"
           cy="40250"
           cx="56500" />
      </g>
      <g
         id="g672"
         style="fill:#840000;fill-opacity:1;stroke:#840000;stroke-width:0;stroke-linecap:round;stroke-linejoin:round;stroke-opacity:1">
        <circle
           style="fill:#000000"
           id="circle674"
           r="393.5"
           cy="44500"
           cx="60500" />
      </g>
      <g
         id="g678"
         style="fill:#840000;fill-opacity:1;stroke:#840000;stroke-width:0;stroke-linecap:round;stroke-linejoin:round;stroke-opacity:1">
        <circle
           style="fill:#000000"
           id="circle680"
           r="393.5"
           cy="44500"
           cx="56500" />
      </g>
      <g
         id="g684"
         style="fill:#840000;fill-opacity:1;stroke:#840000;stroke-width:0;stroke-linecap:round;stroke-linejoin:round;stroke-opacity:1">
        <circle
           style="fill:#000000"
           id="circle686"
           r="393.5"
           cy="49750"
           cx="60500" />
      </g>
      <g
         id="g690"
         style="fill:#840000;fill-opacity:1;stroke:#840000;stroke-width:0;stroke-linecap:round;stroke-linejoin:round;stroke-opacity:1">
        <circle
           style="fill:#000000"
           id="circle692"
           r="393.5"
           cy="49750"
           cx="56500" />
      </g>
      <g
         id="g696"
         style="fill:#840000;fill-opacity:1;stroke:#840000;stroke-width:0;stroke-linecap:round;stroke-linejoin:round;stroke-opacity:1">
        <circle
           style="fill:#000000"
           id="circle698"
           r="393.5"
           cy="55000"
           cx="60500" />
      </g>
      <g
         id="g702"
         style="fill:#840000;fill-opacity:1;stroke:#840000;stroke-width:0;stroke-linecap:round;stroke-linejoin:round;stroke-opacity:1">
        <circle
           style="fill:#000000"
           id="circle704"
           r="393.5"
           cy="55000"
           cx="56500" />
      </g>
      <g
         id="g708"
         style="fill:#000000;fill-opacity:1;stroke:#840000;stroke-width:0;stroke-linecap:round;stroke-linejoin:round;stroke-opacity:1">
        <circle
           style="fill:#000000"
           id="circle710"
           r="492.12601"
           cy="42000"
           cx="52265.699" />
      </g>
      <g
         id="g714"
         style="fill:#840000;fill-opacity:1;stroke:#840000;stroke-width:0;stroke-linecap:round;stroke-linejoin:round;stroke-opacity:1">
        <circle
           style="fill:#000000"
           id="circle716"
           r="492.12601"
           cy="42000"
           cx="54234.301" />
      </g>
      <g
         id="g720"
         style="fill:#840000;fill-opacity:1;stroke:#840000;stroke-width:0;stroke-linecap:round;stroke-linejoin:round;stroke-opacity:1">
        <circle
           style="fill:#000000"
           id="circle722"
           r="492.12601"
           cy="57750"
           cx="52015.699" />
      </g>
      <g
         id="g726"
         style="fill:#840000;fill-opacity:1;stroke:#840000;stroke-width:0;stroke-linecap:round;stroke-linejoin:round;stroke-opacity:1">
        <circle
           style="fill:#000000"
           id="circle728"
           r="492.12601"
           cy="57750"
           cx="53984.301" />
      </g>
      <g
         id="g732"
         style="fill:#840000;fill-opacity:1;stroke:#840000;stroke-width:0;stroke-linecap:round;stroke-linejoin:round;stroke-opacity:1">
        <circle
           style="fill:#000000"
           id="circle734"
           r="492.12601"
           cy="52500"
           cx="52015.699" />
      </g>
      <g
         id="g738"
         style="fill:#840000;fill-opacity:1;stroke:#840000;stroke-width:0;stroke-linecap:round;stroke-linejoin:round;stroke-opacity:1">
        <circle
           style="fill:#000000"
           id="circle740"
           r="492.12601"
           cy="52500"
           cx="53984.301" />
      </g>
      <g
         id="g744"
         style="fill:#840000;fill-opacity:1;stroke:#840000;stroke-width:0;stroke-linecap:round;stroke-linejoin:round;stroke-opacity:1">
        <circle
           style="fill:#000000"
           id="circle746"
           r="492.12601"
           cy="47250"
           cx="52265.699" />
      </g>
      <g
         id="g750"
         style="fill:#840000;fill-opacity:1;stroke:#840000;stroke-width:0;stroke-linecap:round;stroke-linejoin:round;stroke-opacity:1">
        <circle
           style="fill:#000000"
           id="circle752"
           r="492.12601"
           cy="47250"
           cx="54234.301" />
      </g>
      <g
         id="g760"
         style="fill:#008400;fill-opacity:0;stroke:#000000;stroke-width:393.70098877;stroke-linecap:round;stroke-linejoin:round;stroke-opacity:1">
        <path
           inkscape:connector-curvature="0"
           style="stroke:#000000;stroke-opacity:1"
           id="path762"
           d="m 56500,40250 -4250,0" />
        <path
           inkscape:connector-curvature="0"
           style="stroke:#000000;stroke-opacity:1"
           id="path764"
           d="m 52265,40265 0,1735" />
        <path
           inkscape:connector-curvature="0"
           style="stroke:#000000;stroke-opacity:1"
           id="path766"
           d="m 52250,40250 15,15" />
        <path
           inkscape:connector-curvature="0"
           style="stroke:#000000;stroke-opacity:1"
           id="path768"
           d="m 52265,42000 -6765,0" />
        <path
           inkscape:connector-curvature="0"
           style="stroke:#000000;stroke-opacity:1"
           id="path770"
           d="m 52265,47250 -2015,0" />
        <path
           inkscape:connector-curvature="0"
           style="stroke:#000000;stroke-opacity:1"
           id="path772"
           d="m 50250,43000 -4750,0" />
        <path
           inkscape:connector-curvature="0"
           style="stroke:#000000;stroke-opacity:1"
           id="path774"
           d="m 50250,47250 0,-4250" />
        <path
           inkscape:connector-curvature="0"
           style="stroke:#000000;stroke-opacity:1"
           id="path776"
           d="m 56500,44500 -4250,0" />
        <path
           inkscape:connector-curvature="0"
           style="stroke:#000000;stroke-opacity:1"
           id="path778"
           d="m 52265,44515 0,2735" />
        <path
           inkscape:connector-curvature="0"
           style="stroke:#000000;stroke-opacity:1"
           id="path780"
           d="m 52250,44500 15,15" />
        <path
           inkscape:connector-curvature="0"
           style="stroke:#000000;stroke-opacity:1"
           id="path782"
           d="m 45500,44000 3750,0" />
        <path
           inkscape:connector-curvature="0"
           style="stroke:#000000;stroke-opacity:1"
           id="path784"
           d="m 49250,52500 2765,0" />
        <path
           inkscape:connector-curvature="0"
           style="stroke:#000000;stroke-opacity:1"
           id="path786"
           d="m 49250,44000 0,8500" />
        <path
           inkscape:connector-curvature="0"
           style="stroke:#000000;stroke-opacity:1"
           id="path788"
           d="m 56500,49750 -4500,0" />
        <path
           inkscape:connector-curvature="0"
           style="stroke:#000000;stroke-opacity:1"
           id="path790"
           d="m 52015,49765 0,2735" />
        <path
           inkscape:connector-curvature="0"
           style="stroke:#000000;stroke-opacity:1"
           id="path792"
           d="m 52000,49750 15,15" />
        <path
           inkscape:connector-curvature="0"
           style="stroke:#000000;stroke-opacity:1"
           id="path794"
           d="m 52015,57750 0,-2735" />
        <path
           inkscape:connector-curvature="0"
           style="stroke:#000000;stroke-opacity:1"
           id="path796"
           d="m 52031,55000 4469,0" />
        <path
           inkscape:connector-curvature="0"
           style="stroke:#000000;stroke-opacity:1"
           id="path798"
           d="m 52015,55015 16,-15" />
        <path
           inkscape:connector-curvature="0"
           style="stroke:#000000;stroke-opacity:1"
           id="path800"
           d="m 45500,45000 2500,0" />
        <path
           inkscape:connector-curvature="0"
           style="stroke:#000000;stroke-opacity:1"
           id="path802"
           d="m 48000,57750 4015,0" />
        <path
           inkscape:connector-curvature="0"
           style="stroke:#000000;stroke-opacity:1"
           id="path804"
           d="m 48000,45000 0,12750" />
        <path
           inkscape:connector-curvature="0"
           style="stroke:#000000;stroke-opacity:1"
           id="path806"
           d="m 52015,57750 -15,-16" />
        <path
           inkscape:connector-curvature="0"
           style="stroke:#000000;stroke-opacity:1"
           id="path808"
           d="m 58750,52500 0,5250" />
        <path
           inkscape:connector-curvature="0"
           style="stroke:#000000;stroke-opacity:1"
           id="path810"
           d="m 58750,57750 -4766,0" />
        <path
           inkscape:connector-curvature="0"
           style="stroke:#000000;stroke-opacity:1"
           id="path812"
           d="m 58750,47250 0,5250" />
        <path
           inkscape:connector-curvature="0"
           style="stroke:#000000;stroke-opacity:1"
           id="path814"
           d="m 58750,52500 -4766,0" />
        <path
           inkscape:connector-curvature="0"
           style="stroke:#000000;stroke-opacity:1"
           id="path816"
           d="m 64500,51000 -2250,0" />
        <path
           inkscape:connector-curvature="0"
           style="stroke:#000000;stroke-opacity:1"
           id="path818"
           d="m 58750,39000 0,3000" />
        <path
           inkscape:connector-curvature="0"
           style="stroke:#000000;stroke-opacity:1"
           id="path820"
           d="m 62250,39000 -3500,0" />
        <path
           inkscape:connector-curvature="0"
           style="stroke:#000000;stroke-opacity:1"
           id="path822"
           d="m 62250,51000 0,-12000" />
        <path
           inkscape:connector-curvature="0"
           style="stroke:#000000;stroke-opacity:1"
           id="path824"
           d="m 58750,42000 -4516,0" />
        <path
           inkscape:connector-curvature="0"
           style="stroke:#000000;stroke-opacity:1"
           id="path826"
           d="m 54234,42000 4516,0" />
        <path
           inkscape:connector-curvature="0"
           style="stroke:#000000;stroke-opacity:1"
           id="path828"
           d="m 58750,42000 0,5250" />
        <path
           inkscape:connector-curvature="0"
           style="stroke:#000000;stroke-opacity:1"
           id="path830"
           d="m 58750,47250 -4516,0" />
        <path
           inkscape:connector-curvature="0"
           style="stroke:#000000;stroke-opacity:1"
           id="path832"
           d="m 54234,47250 4516,0" />
        <path
           inkscape:connector-curvature="0"
           style="stroke:#000000;stroke-opacity:1"
           id="path834"
           d="m 64500,52000 -3000,0" />
        <path
           inkscape:connector-curvature="0"
           style="stroke:#000000;stroke-opacity:1"
           id="path836"
           d="m 61500,49750 -1000,0" />
        <path
           inkscape:connector-curvature="0"
           style="stroke:#000000;stroke-opacity:1"
           id="path838"
           d="m 61500,52000 0,-2250" />
        <path
           inkscape:connector-curvature="0"
           style="stroke:#000000;stroke-opacity:1"
           id="path840"
           d="m 60500,49750 0,5250" />
        <path
           inkscape:connector-curvature="0"
           style="stroke:#000000;stroke-opacity:1"
           id="path842"
           d="m 60500,55000 0,-14750" />
      </g>
      <g
         id="g844"
         style="fill:#000000;fill-opacity:1;stroke:#000000;stroke-width:100;stroke-linecap:round;stroke-linejoin:round;stroke-opacity:1">
        <polyline
           id="polyline846"
           points="66200,60200 44049,60200 43828,41000 44837,41000 44882,41225 45010,41417 45134,41500 45010,41582 44882,41774 44837,42000 44882,42225 45010,42417 45134,42500 45010,42582 44882,42774 44837,43000 44882,43225 45010,43417 45134,43500 45010,43582 44882,43774 44837,44000 44882,44225 45010,44417 45134,44500 45010,44582 44882,44774 44837,45000 44882,45225 45010,45417 45134,45500 45010,45582 44882,45774 44837,46000 44882,46225 45010,46417 45134,46500 45010,46582 44882,46774 44837,47000 44882,47225 45010,47417 45201,47545 45427,47590 45572,47590 45798,47545 45989,47417 46117,47225 46162,47000 46117,46774 45989,46582 45865,46500 45989,46417 46117,46225 46162,46000 46117,45774 45989,45582 45865,45500 45945,45446 47553,45446 47553,57750 47587,57921 47684,58065 47828,58162 48000,58196 51413,58196 51594,58378 51867,58491 52162,58492 52435,58379 52644,58170 52757,57898 52758,57603 52645,57330 52462,57147 52462,55446 56036,55446 56135,55545 56371,55643 56627,55643 56864,55545 57045,55364 57143,55128 57143,54872 57045,54635 56864,54454 56628,54356 56372,54356 56135,54454 56036,54553 52031,54553 51860,54587 51715,54684 51699,54699 51602,54844 51568,55015 51568,57147 51412,57303 48446,57303 48446,45000 48412,44828 48315,44684 48171,44587 48000,44553 45945,44553 45865,44500 45945,44446 48803,44446 48803,52500 48837,52671 48934,52815 49078,52912 49250,52946 51413,52946 51594,53128 51867,53241 52162,53242 52435,53129 52644,52920 52757,52648 52757,52646 53241,52646 53354,52919 53563,53128 53835,53241 54131,53242 54404,53129 54587,52946 58303,52946 58303,57303 54586,57303 54405,57121 54132,57008 53837,57007 53564,57120 53355,57329 53242,57601 53241,57896 53354,58169 53563,58378 53835,58491 54131,58492 54404,58379 54587,58196 58750,58196 58921,58162 59065,58065 59162,57921 59196,57750 59196,55453 60117,55453 60155,55558 60395,55647 60651,55638 60844,55558 60882,55453 60500,55070 60117,55453 59196,55453 59196,54895 59852,54895 59861,55151 59941,55344 60046,55382 60429,55000 60570,55000 60953,55382 61058,55344 61147,55104 61138,54848 61058,54655 60953,54617 60570,55000 60429,55000 60046,54617 59941,54655 59852,54895 59196,54895 59196,54546 60117,54546 60500,54929 60882,54546 60844,54441 60604,54352 60348,54361 60155,54441 60117,54546 59196,54546 59196,53000 63837,53000 63882,53225 64010,53417 64134,53500 64010,53582 63882,53774 63837,54000 63882,54225 64010,54417 64201,54545 64427,54590 64572,54590 64798,54545 64989,54417 65117,54225 65162,54000 65117,53774 64989,53582 64865,53500 64989,53417 65117,53225 65162,53000 65117,52774 64989,52582 64868,52501 65031,52355 65131,52147 65132,52141 65085,52050 64550,52050 64550,52057 64450,52057 64450,52050 63914,52050 63867,52141 63868,52147 63968,52355 64131,52501 64010,52582 63882,52774 63837,53000 59196,53000 59196,50203 60117,50203 60155,50308 60395,50397 60651,50388 60844,50308 60882,50203 60500,49820 60117,50203 59196,50203 59196,49645 59852,49645 59861,49901 59941,50094 60046,50132 60429,49750 60570,49750 60953,50132 61058,50094 61147,49854 61138,49598 61058,49405 60953,49367 60570,49750 60429,49750 60046,49367 59941,49405 59852,49645 59196,49645 59196,49296 60117,49296 60500,49679 60882,49296 60844,49191 60604,49102 60348,49111 60155,49191 60117,49296 59196,49296 59196,44953 60117,44953 60155,45058 60395,45147 60651,45138 60844,45058 60882,44953 60500,44570 60117,44953 59196,44953 59196,44395 59852,44395 59861,44651 59941,44844 60046,44882 60429,44500 60570,44500 60953,44882 61058,44844 61147,44604 61138,44348 61058,44155 60953,44117 60570,44500 60429,44500 60046,44117 59941,44155 59852,44395 59196,44395 59196,44046 60117,44046 60500,44429 60882,44046 60844,43941 60604,43852 60348,43861 60155,43941 60117,44046 59196,44046 59196,40703 60117,40703 60155,40808 60395,40897 60651,40888 60844,40808 60882,40703 60500,40320 60117,40703 59196,40703 59196,40145 59852,40145 59861,40401 59941,40594 60046,40632 60429,40250 60570,40250 60953,40632 61058,40594 61147,40354 61138,40098 61058,39905 60953,39867 60570,40250 60429,40250 60046,39867 59941,39905 59852,40145 59196,40145 59196,39796 60117,39796 60500,40179 60882,39796 60844,39691 60604,39602 60348,39611 60155,39691 60117,39796 59196,39796 59196,39446 61803,39446 61803,51000 61837,51171 61934,51315 62078,51412 62250,51446 64054,51446 64131,51498 63968,51644 63868,51852 63867,51858 63914,51950 64450,51950 64450,51942 64550,51942 64550,51950 65085,51950 65132,51858 65131,51852 65031,51644 64868,51498 64989,51417 65117,51225 65162,51000 65117,50774 64989,50582 64865,50500 64989,50417 65117,50225 65162,50000 65117,49774 64989,49582 64865,49500 64989,49417 65117,49225 65162,49000 65117,48774 64989,48582 64865,48500 64989,48417 65117,48225 65162,48000 65117,47774 64989,47582 64984,47579 64992,47577 65077,47522 65134,47439 65154,47340 65154,46660 65137,46567 65082,46482 64999,46425 64900,46405 64100,46405 64007,46422 63922,46477 63865,46560 63845,46660 63845,47340 63862,47432 63917,47517 64000,47574 64017,47578 64010,47582 63882,47774 63837,48000 63882,48225 64010,48417 64134,48500 64010,48582 63882,48774 63837,49000 63882,49225 64010,49417 64134,49500 64010,49582 63882,49774 63837,50000 63882,50225 64010,50417 64134,50500 64054,50553 62696,50553 62696,39000 62662,38828 62565,38684 62421,38587 62250,38553 58750,38553 58578,38587 58434,38684 58337,38828 58303,39000 58303,41553 54836,41553 54655,41371 54382,41258 54087,41257 53814,41370 53605,41579 53492,41851 53491,42146 53604,42419 53813,42628 54085,42741 54381,42742 54654,42629 54837,42446 58303,42446 58303,46803 54836,46803 54655,46621 54382,46508 54087,46507 53814,46620 53605,46829 53492,47101 53491,47396 53604,47669 53813,47878 54085,47991 54381,47992 54654,47879 54837,47696 58303,47696 58303,52053 54586,52053 54405,51871 54132,51758 53837,51757 53564,51870 53355,52079 53242,52351 53241,52646 52757,52646 52758,52353 52645,52080 52462,51897 52462,50196 56036,50196 56135,50295 56371,50393 56627,50393 56864,50295 57045,50114 57143,49878 57143,49622 57045,49385 56864,49204 56628,49106 56372,49106 56135,49204 56036,49303 52000,49303 51828,49337 51684,49434 51587,49578 51553,49750 51568,49829 51568,51897 51412,52053 49696,52053 49696,44000 49662,43828 49565,43684 49421,43587 49250,43553 45945,43553 45865,43500 45945,43446 49803,43446 49803,47250 49837,47421 49934,47565 50078,47662 50250,47696 51663,47696 51844,47878 52117,47991 52412,47992 52685,47879 52894,47670 53007,47398 53008,47103 52895,46830 52712,46647 52712,44946 56036,44946 56135,45045 56371,45143 56627,45143 56864,45045 57045,44864 57143,44628 57143,44372 57045,44135 56864,43954 56628,43856 56372,43856 56135,43954 56036,44053 52250,44053 52078,44087 51934,44184 51837,44328 51803,44500 51818,44579 51818,46647 51662,46803 50696,46803 50696,43000 50662,42828 50565,42684 50421,42587 50250,42553 45945,42553 45865,42500 45945,42446 51663,42446 51844,42628 52117,42741 52412,42742 52685,42629 52894,42420 53007,42148 53008,41853 52895,41580 52712,41397 52712,40696 56036,40696 56135,40795 56371,40893 56627,40893 56864,40795 57045,40614 57143,40378 57143,40122 57045,39885 56864,39704 56628,39606 56372,39606 56135,39704 56036,39803 52250,39803 52078,39837 51934,39934 51837,40078 51803,40250 51818,40329 51818,41397 51662,41553 45945,41553 45865,41500 45989,41417 46117,41225 46162,41000 46117,40774 45989,40582 45984,40579 45992,40577 46077,40522 46134,40439 46154,40340 46154,39660 46137,39567 46082,39482 45999,39425 45900,39405 45100,39405 45007,39422 44922,39477 44865,39560 44845,39660 44845,40340 44862,40432 44917,40517 45000,40574 45017,40578 45010,40582 44882,40774 44837,41000 43828,41000 43800,38550 66200,38550 66200,60200 "
           style="fill:#000000;fill-rule:evenodd;stroke:#000000;stroke-opacity:1" />
      </g>
      <g
         id="g850"
         style="fill:#ffffff;fill-opacity:1;stroke:#ffffff;stroke-width:0;stroke-linecap:round;stroke-linejoin:round;stroke-opacity:1">
        <circle
           id="circle852"
           r="200"
           cy="40000"
           cx="45500" />
      </g>
      <g
         id="g856"
         style="fill:#ffffff;fill-opacity:1;stroke:#ffffff;stroke-width:0;stroke-linecap:round;stroke-linejoin:round;stroke-opacity:1">
        <circle
           id="circle858"
           r="200"
           cy="41000"
           cx="45500" />
      </g>
      <g
         id="g862"
         style="fill:#ffffff;fill-opacity:1;stroke:#ffffff;stroke-width:0;stroke-linecap:round;stroke-linejoin:round;stroke-opacity:1">
        <circle
           id="circle864"
           r="200"
           cy="42000"
           cx="45500" />
      </g>
      <g
         id="g868"
         style="fill:#ffffff;fill-opacity:1;stroke:#ffffff;stroke-width:0;stroke-linecap:round;stroke-linejoin:round;stroke-opacity:1">
        <circle
           id="circle870"
           r="200"
           cy="43000"
           cx="45500" />
      </g>
      <g
         id="g874"
         style="fill:#ffffff;fill-opacity:1;stroke:#ffffff;stroke-width:0;stroke-linecap:round;stroke-linejoin:round;stroke-opacity:1">
        <circle
           id="circle876"
           r="200"
           cy="44000"
           cx="45500" />
      </g>
      <g
         id="g880"
         style="fill:#ffffff;fill-opacity:1;stroke:#ffffff;stroke-width:0;stroke-linecap:round;stroke-linejoin:round;stroke-opacity:1">
        <circle
           id="circle882"
           r="200"
           cy="45000"
           cx="45500" />
      </g>
      <g
         id="g886"
         style="fill:#ffffff;fill-opacity:1;stroke:#ffffff;stroke-width:0;stroke-linecap:round;stroke-linejoin:round;stroke-opacity:1">
        <circle
           id="circle888"
           r="200"
           cy="46000"
           cx="45500" />
      </g>
      <g
         id="g892"
         style="fill:#ffffff;fill-opacity:1;stroke:#ffffff;stroke-width:0;stroke-linecap:round;stroke-linejoin:round;stroke-opacity:1">
        <circle
           id="circle894"
           r="200"
           cy="47000"
           cx="45500" />
      </g>
      <g
         id="g898"
         style="fill:#ffffff;fill-opacity:1;stroke:#ffffff;stroke-width:0;stroke-linecap:round;stroke-linejoin:round;stroke-opacity:1">
        <circle
           id="circle900"
           r="200"
           cy="47000"
           cx="64500" />
      </g>
      <g
         id="g904"
         style="fill:#ffffff;fill-opacity:1;stroke:#ffffff;stroke-width:0;stroke-linecap:round;stroke-linejoin:round;stroke-opacity:1">
        <circle
           id="circle906"
           r="200"
           cy="48000"
           cx="64500" />
      </g>
      <g
         id="g910"
         style="fill:#ffffff;fill-opacity:1;stroke:#ffffff;stroke-width:0;stroke-linecap:round;stroke-linejoin:round;stroke-opacity:1">
        <circle
           id="circle912"
           r="200"
           cy="49000"
           cx="64500" />
      </g>
      <g
         id="g916"
         style="fill:#ffffff;fill-opacity:1;stroke:#ffffff;stroke-width:0;stroke-linecap:round;stroke-linejoin:round;stroke-opacity:1">
        <circle
           id="circle918"
           r="200"
           cy="50000"
           cx="64500" />
      </g>
      <g
         id="g922"
         style="fill:#ffffff;fill-opacity:1;stroke:#ffffff;stroke-width:0;stroke-linecap:round;stroke-linejoin:round;stroke-opacity:1">
        <circle
           id="circle924"
           r="200"
           cy="51000"
           cx="64500" />
      </g>
      <g
         id="g928"
         style="fill:#ffffff;fill-opacity:1;stroke:#ffffff;stroke-width:0;stroke-linecap:round;stroke-linejoin:round;stroke-opacity:1">
        <circle
           id="circle930"
           r="200"
           cy="52000"
           cx="64500" />
      </g>
      <g
         id="g934"
         style="fill:#ffffff;fill-opacity:1;stroke:#ffffff;stroke-width:0;stroke-linecap:round;stroke-linejoin:round;stroke-opacity:1">
        <circle
           id="circle936"
           r="200"
           cy="53000"
           cx="64500" />
      </g>
      <g
         id="g940"
         style="fill:#ffffff;fill-opacity:1;stroke:#ffffff;stroke-width:0;stroke-linecap:round;stroke-linejoin:round;stroke-opacity:1">
        <circle
           id="circle942"
           r="200"
           cy="54000"
           cx="64500" />
      </g>
      <g
         id="g946"
         style="fill:#ffffff;fill-opacity:1;stroke:#ffffff;stroke-width:0;stroke-linecap:round;stroke-linejoin:round;stroke-opacity:1">
        <circle
           id="circle948"
           r="197"
           cy="40250"
           cx="60500" />
      </g>
      <g
         id="g952"
         style="fill:#ffffff;fill-opacity:1;stroke:#ffffff;stroke-width:0;stroke-linecap:round;stroke-linejoin:round;stroke-opacity:1">
        <circle
           id="circle954"
           r="197"
           cy="40250"
           cx="56500" />
      </g>
      <g
         id="g958"
         style="fill:#ffffff;fill-opacity:1;stroke:#ffffff;stroke-width:0;stroke-linecap:round;stroke-linejoin:round;stroke-opacity:1">
        <circle
           id="circle960"
           r="197"
           cy="44500"
           cx="60500" />
      </g>
      <g
         id="g964"
         style="fill:#ffffff;fill-opacity:1;stroke:#ffffff;stroke-width:0;stroke-linecap:round;stroke-linejoin:round;stroke-opacity:1">
        <circle
           id="circle966"
           r="197"
           cy="44500"
           cx="56500" />
      </g>
      <g
         id="g970"
         style="fill:#ffffff;fill-opacity:1;stroke:#ffffff;stroke-width:0;stroke-linecap:round;stroke-linejoin:round;stroke-opacity:1">
        <circle
           id="circle972"
           r="197"
           cy="49750"
           cx="60500" />
      </g>
      <g
         id="g976"
         style="fill:#ffffff;fill-opacity:1;stroke:#ffffff;stroke-width:0;stroke-linecap:round;stroke-linejoin:round;stroke-opacity:1">
        <circle
           id="circle978"
           r="197"
           cy="49750"
           cx="56500" />
      </g>
      <g
         id="g982"
         style="fill:#ffffff;fill-opacity:1;stroke:#ffffff;stroke-width:0;stroke-linecap:round;stroke-linejoin:round;stroke-opacity:1">
        <circle
           id="circle984"
           r="197"
           cy="55000"
           cx="60500" />
      </g>
      <g
         id="g988"
         style="fill:#ffffff;fill-opacity:1;stroke:#ffffff;stroke-width:0;stroke-linecap:round;stroke-linejoin:round;stroke-opacity:1">
        <circle
           id="circle990"
           r="197"
           cy="55000"
           cx="56500" />
      </g>
      <g
         id="g994"
         style="fill:#ffffff;fill-opacity:1;stroke:#ffffff;stroke-width:0;stroke-linecap:round;stroke-linejoin:round;stroke-opacity:1">
        <circle
           id="circle996"
           r="255.90601"
           cy="42000"
           cx="52265.699" />
      </g>
      <g
         id="g1000"
         style="fill:#ffffff;fill-opacity:1;stroke:#ffffff;stroke-width:0;stroke-linecap:round;stroke-linejoin:round;stroke-opacity:1">
        <circle
           id="circle1002"
           r="255.90601"
           cy="42000"
           cx="54234.301" />
      </g>
      <g
         id="g1006"
         style="fill:#ffffff;fill-opacity:1;stroke:#ffffff;stroke-width:0;stroke-linecap:round;stroke-linejoin:round;stroke-opacity:1">
        <circle
           id="circle1008"
           r="255.90601"
           cy="57750"
           cx="52015.699" />
      </g>
      <g
         id="g1012"
         style="fill:#ffffff;fill-opacity:1;stroke:#ffffff;stroke-width:0;stroke-linecap:round;stroke-linejoin:round;stroke-opacity:1">
        <circle
           id="circle1014"
           r="255.90601"
           cy="57750"
           cx="53984.301" />
      </g>
      <g
         id="g1018"
         style="fill:#ffffff;fill-opacity:1;stroke:#ffffff;stroke-width:0;stroke-linecap:round;stroke-linejoin:round;stroke-opacity:1">
        <circle
           id="circle1020"
           r="255.90601"
           cy="52500"
           cx="52015.699" />
      </g>
      <g
         id="g1024"
         style="fill:#ffffff;fill-opacity:1;stroke:#ffffff;stroke-width:0;stroke-linecap:round;stroke-linejoin:round;stroke-opacity:1">
        <circle
           id="circle1026"
           r="255.90601"
           cy="52500"
           cx="53984.301" />
      </g>
      <g
         id="g1030"
         style="fill:#ffffff;fill-opacity:1;stroke:#ffffff;stroke-width:0;stroke-linecap:round;stroke-linejoin:round;stroke-opacity:1">
        <circle
           id="circle1032"
           r="255.90601"
           cy="47250"
           cx="52265.699" />
      </g>
      <g
         id="g1036"
         style="fill:#ffffff;fill-opacity:1;stroke:#ffffff;stroke-width:0;stroke-linecap:round;stroke-linejoin:round;stroke-opacity:1">
        <circle
           id="circle1038"
           r="255.90601"
           cy="47250"
           cx="54234.301" />
      </g>
    </g>
  </g>
</svg>
