<?xml version="1.0" encoding="utf-8"?>
<!-- Generator: Adobe Illustrator 19.0.0, SVG Export Plug-In . SVG Version: 6.00 Build 0)  -->
<svg version="1.2" baseProfile="tiny" id="Layer_1" xmlns="http://www.w3.org/2000/svg" xmlns:xlink="http://www.w3.org/1999/xlink"
	 x="0px" y="0px" viewBox="0 0 156.3 227.2" xml:space="preserve">
<g>
	<g>
		<path id="XMLID_146_" fill="#FFFFFF" d="M92.8,193.5c0,0,0.1,25.2,7.8,29.7c0,0,6.7,0.2,5.6-16.4c0,0,1.1,1.6,7,0.2
			c0,0,0.6,15.4,5.6,18.1c5,2.7,13.1-22.3,12.9-25.8C131.6,195.6,94.5,190,92.8,193.5z"/>
		<g id="XMLID_148_">
			<path id="XMLID_150_" d="M92.8,193.5c0.2,5.3,0.7,10.5,1.7,15.6c0.5,2.6,1.2,5.1,2.1,7.5c0.5,1.2,1,2.4,1.7,3.4
				c0.7,1,1.5,2,2.5,2.5l-0.3-0.1c0.5,0,1.1-0.3,1.6-0.7c0.5-0.4,0.9-0.9,1.3-1.5c0.7-1.1,1.1-2.5,1.4-3.9c0.6-2.8,0.5-5.7,0.3-8.6
				l0-1.1l1.9-0.7l0,0l0,0c0.4-0.3-0.5,0.5-0.4,0.4l0,0l0,0l0.1-0.1l0.2-0.2c0.1-0.1,0,0,0,0c0,0,0,0,0.1,0c0.1,0,0.1,0.1,0.2,0.1
				c0.2,0.1,0.4,0.1,0.7,0.2c0.5,0.1,1,0.1,1.6,0.1c1.1-0.1,2.3-0.3,3.4-0.5l1.2-0.3l0.1,1.2c0.2,3.7,0.6,7.4,1.5,11
				c0.5,1.8,1,3.5,2,5c0.5,0.7,1.1,1.4,1.7,1.6c0.4,0.2,1.2-0.2,1.8-0.7c1.2-1.2,2.2-2.8,3.1-4.4c0.9-1.6,1.7-3.3,2.4-5
				c1.5-3.4,2.7-7,3.7-10.6c0.3-0.9,0.5-1.8,0.7-2.7c0.1-0.5,0.2-0.9,0.2-1.3c0-0.1,0-0.2,0-0.3l0-0.1l0,0c0-0.1,0,0.1,0,0l0,0
				c0,0,0-0.1,0-0.1c0,0-0.2-0.2-0.3-0.3c-0.7-0.5-1.5-0.9-2.4-1.2c-0.9-0.3-1.8-0.6-2.7-0.9c-3.6-1-7.3-1.8-11-2.4
				c-3.7-0.6-7.4-1.2-11.2-1.5c-1.9-0.2-3.7-0.3-5.6-0.3c-0.9,0-1.9,0-2.8,0.1c-0.5,0.1-0.9,0.1-1.4,0.2
				C93.6,193,93.1,193.1,92.8,193.5c0.2-0.4,0.7-0.6,1.2-0.7c0.5-0.1,0.9-0.2,1.4-0.3c0.9-0.1,1.9-0.2,2.8-0.2
				c1.9,0,3.8,0.1,5.6,0.2c3.8,0.3,7.5,0.7,11.2,1.3c3.7,0.6,7.4,1.2,11.1,2.2c0.9,0.2,1.8,0.5,2.7,0.8c0.9,0.3,1.8,0.6,2.7,1.3
				c0.2,0.2,0.4,0.3,0.6,0.7c0,0.1,0,0.1,0.1,0.2l0,0c0,0,0,0.1,0,0.1v0l0,0.1c0,0.1,0,0.3,0,0.4c0,0.5-0.1,1-0.2,1.4
				c-0.2,0.9-0.4,1.9-0.6,2.8c-1,3.7-2.2,7.2-3.6,10.8c-0.7,1.8-1.5,3.5-2.4,5.2c-0.9,1.7-1.8,3.4-3.3,4.8c-0.2,0.2-0.4,0.4-0.6,0.5
				c-0.2,0.2-0.5,0.3-0.7,0.4c-0.2,0.2-0.6,0.2-0.9,0.3c-0.4,0-0.9,0-1-0.1c-1.2-0.5-1.9-1.3-2.5-2.1c-1.2-1.7-1.8-3.6-2.3-5.4
				c-1-3.7-1.5-7.5-1.8-11.3l1.2,0.9c-1.2,0.3-2.4,0.6-3.7,0.7c-0.7,0-1.3,0-2-0.1c-0.4-0.1-0.7-0.1-1.1-0.3
				c-0.2-0.1-0.4-0.1-0.6-0.3c-0.1-0.1-0.2-0.1-0.3-0.2c-0.1-0.1-0.2-0.1-0.4-0.4l1.9-0.7l0.1,1.1c0.1,3,0,6.1-0.8,9.1
				c-0.4,1.5-0.9,3-1.8,4.3c-0.9,1.3-2.2,2.6-4.2,2.7l-0.2,0l-0.2-0.1c-1.3-0.8-2.2-1.9-2.9-3.1c-0.7-1.2-1.2-2.4-1.7-3.7
				c-0.9-2.5-1.4-5.1-1.8-7.7C93.1,204.1,92.8,198.8,92.8,193.5z"/>
		</g>
	</g>
	<g>
		<path id="XMLID_143_" fill="#BFBFBF" d="M116.5,205.3c0,0-0.9,17.5,2.2,18.8c0,0-5.5-4.7-5.4-17.4L116.5,205.3z"/>
		<g id="XMLID_145_">
			<path id="XMLID_147_" fill="#FFFFFF" d="M116.5,205.3c0,0,0.1,3.5,0.4,6.9c0.2,1.7,0.4,3.4,0.6,4.7c0.2,1.3,0.4,2.1,0.4,2.1
				c0.1,0.9,0.2,1.8,0.4,2.6c0.1,0.4,0.2,0.8,0.4,1.1c0.1,0.3,0.4,0.6,0.4,0.6l-0.9,1.4c-0.7-0.7-1.1-1.3-1.6-2
				c-0.4-0.7-0.8-1.4-1.1-2.1c-0.7-1.5-1.1-3-1.5-4.5c-0.7-3.1-0.9-6.3-0.7-9.4l0-0.1l0.1,0L116.5,205.3l-3.1,1.5l0.1-0.1
				c0.1,3.1,0.5,6.2,1.4,9.1c0.5,1.5,1,2.9,1.8,4.2c0.4,0.7,0.8,1.3,1.2,1.9c0.4,0.6,0.9,1.2,1.4,1.6l4.4,3.8l-5.3-2.3
				c-0.8-0.3-1.1-0.9-1.4-1.4c-0.3-0.5-0.4-1-0.6-1.4c-0.3-1-0.5-1.9-0.7-2.8c0,0-0.1-0.9-0.1-2.2c0-1.3,0.1-3.1,0.2-4.8
				C116.1,208.7,116.5,205.3,116.5,205.3z"/>
		</g>
	</g>
	<g>
		<path id="XMLID_141_" fill="#BFBFBF" d="M102.1,205.3c0,0,2.5,16.6-0.9,17.7c0,0,5.2-1.1,5.5-15.6L102.1,205.3z"/>
		<g id="XMLID_142_">
			<path id="XMLID_144_" fill="#FFFFFF" d="M102.1,205.3c0,0,0.8,3.3,1.3,6.7c0.3,1.7,0.4,3.4,0.5,4.7c0.1,1.3,0.1,2.2,0.1,2.2
				c-0.1,0.8-0.2,1.6-0.5,2.5c-0.1,0.4-0.3,0.9-0.6,1.3c-0.3,0.4-0.7,0.9-1.4,1.1l-0.4-1.7c0,0,0.2-0.1,0.3-0.1
				c0.1-0.1,0.2-0.1,0.4-0.2c0.2-0.2,0.5-0.4,0.7-0.6c0.5-0.4,0.9-1,1.2-1.6c0.7-1.2,1.2-2.5,1.6-3.8c0.8-2.7,1.1-5.6,1.3-8.4
				l0.1,0.2L102.1,205.3l4.7,1.9l0.1,0l0,0.1c0,2.9-0.1,5.8-0.7,8.7c-0.3,1.4-0.7,2.9-1.4,4.2c-0.3,0.7-0.8,1.3-1.3,2
				c-0.3,0.3-0.6,0.6-0.9,0.9c-0.4,0.3-0.6,0.5-1.3,0.7l-0.4-1.7c0.1,0,0.5-0.6,0.6-1.3c0.2-0.7,0.2-1.4,0.3-2.1c0,0,0.1-0.8,0.3-2
				c0.1-1.2,0.2-2.9,0.2-4.6C102.3,208.7,102.1,205.3,102.1,205.3z"/>
		</g>
	</g>
	<g id="XMLID_101_">
		<path id="XMLID_104_" d="M92.8,193.5c0.2,5.3,0.7,10.5,1.7,15.6c0.5,2.6,1.2,5.1,2.1,7.5c0.5,1.2,1,2.4,1.7,3.4
			c0.7,1,1.5,2,2.5,2.5l-0.3-0.1c0.5,0,1.1-0.3,1.6-0.7c0.5-0.4,0.9-0.9,1.3-1.5c0.7-1.1,1.1-2.5,1.4-3.9c0.6-2.8,0.5-5.7,0.3-8.6
			l0-1.1l1.9-0.7l0,0l0,0c0.4-0.3-0.5,0.5-0.4,0.4l0,0l0,0l0.1-0.1l0.2-0.2c0.1-0.1,0,0,0,0c0,0,0,0,0.1,0c0.1,0,0.1,0.1,0.2,0.1
			c0.2,0.1,0.4,0.1,0.7,0.2c0.5,0.1,1,0.1,1.6,0.1c1.1-0.1,2.3-0.3,3.4-0.5l1.2-0.3l0.1,1.2c0.2,3.7,0.6,7.4,1.5,11
			c0.5,1.8,1,3.5,2,5c0.5,0.7,1.1,1.4,1.7,1.6c0.4,0.2,1.2-0.2,1.8-0.7c1.2-1.2,2.2-2.8,3.1-4.4c0.9-1.6,1.7-3.3,2.4-5
			c1.5-3.4,2.7-7,3.7-10.6c0.3-0.9,0.5-1.8,0.7-2.7c0.1-0.5,0.2-0.9,0.2-1.3c0-0.1,0-0.2,0-0.3l0-0.1l0,0c0-0.1,0,0.1,0,0l0,0
			c0,0,0-0.1,0-0.1c0,0-0.2-0.2-0.3-0.3c-0.7-0.5-1.5-0.9-2.4-1.2c-0.9-0.3-1.8-0.6-2.7-0.9c-3.6-1-7.3-1.8-11-2.4
			c-3.7-0.6-7.4-1.2-11.2-1.5c-1.9-0.2-3.7-0.3-5.6-0.3c-0.9,0-1.9,0-2.8,0.1c-0.5,0.1-0.9,0.1-1.4,0.2
			C93.6,193,93.1,193.1,92.8,193.5c0.2-0.4,0.7-0.6,1.2-0.7c0.5-0.1,0.9-0.2,1.4-0.3c0.9-0.1,1.9-0.2,2.8-0.2c1.9,0,3.8,0.1,5.6,0.2
			c3.8,0.3,7.5,0.7,11.2,1.3c3.7,0.6,7.4,1.2,11.1,2.2c0.9,0.2,1.8,0.5,2.7,0.8c0.9,0.3,1.8,0.6,2.7,1.3c0.2,0.2,0.4,0.3,0.6,0.7
			c0,0.1,0,0.1,0.1,0.2l0,0c0,0,0,0.1,0,0.1v0l0,0.1c0,0.1,0,0.3,0,0.4c0,0.5-0.1,1-0.2,1.4c-0.2,0.9-0.4,1.9-0.6,2.8
			c-1,3.7-2.2,7.2-3.6,10.8c-0.7,1.8-1.5,3.5-2.4,5.2c-0.9,1.7-1.8,3.4-3.3,4.8c-0.2,0.2-0.4,0.4-0.6,0.5c-0.2,0.2-0.5,0.3-0.7,0.4
			c-0.2,0.2-0.6,0.2-0.9,0.3c-0.4,0-0.9,0-1-0.1c-1.2-0.5-1.9-1.3-2.5-2.1c-1.2-1.7-1.8-3.6-2.3-5.4c-1-3.7-1.5-7.5-1.8-11.3
			l1.2,0.9c-1.2,0.3-2.4,0.6-3.7,0.7c-0.7,0-1.3,0-2-0.1c-0.4-0.1-0.7-0.1-1.1-0.3c-0.2-0.1-0.4-0.1-0.6-0.3
			c-0.1-0.1-0.2-0.1-0.3-0.2c-0.1-0.1-0.2-0.1-0.4-0.4l1.9-0.7l0.1,1.1c0.1,3,0,6.1-0.8,9.1c-0.4,1.5-0.9,3-1.8,4.3
			c-0.9,1.3-2.2,2.6-4.2,2.7l-0.2,0l-0.2-0.1c-1.3-0.8-2.2-1.9-2.9-3.1c-0.7-1.2-1.2-2.4-1.7-3.7c-0.9-2.5-1.4-5.1-1.8-7.7
			C93.1,204.1,92.8,198.8,92.8,193.5z"/>
	</g>
	<g id="XMLID_99_">
		<path id="XMLID_102_" d="M102.5,205.1c0,0,0.3,0.1,0.7,0.3c0.4,0.2,1,0.3,1.6,0.4c0.6,0.1,1.2,0.1,1.6,0.1c0.4,0,0.7,0,0.7,0
			s0.5,0.2,1.4,0.3c0.8,0.1,2,0.2,3.2,0.1c0.6-0.1,1.2-0.2,1.7-0.3c0.5-0.1,1.1-0.2,1.5-0.4c0.9-0.3,1.4-0.5,1.4-0.5
			s-0.5,0.3-1.3,0.8c-0.4,0.2-0.9,0.5-1.4,0.7c-0.5,0.3-1.1,0.5-1.7,0.7c-1.2,0.4-2.5,0.6-3.5,0.7c-1,0.1-1.6,0-1.6,0
			s-1.3-0.5-2.4-1.2c-0.5-0.4-1-0.8-1.4-1.1C102.7,205.4,102.5,205.1,102.5,205.1z"/>
	</g>
	<g>
		<path id="XMLID_133_" fill="#FFFFFF" d="M134.4,190.1c0,0,6.9,1.8,11.4-1.3c0,0,2.2-0.8,5.8-6.1c3.5-5.3,3.1-16.6,2.9-18.5
			c-0.2-1.9,7.3,21.3-13.5,29.6c0,0-7.7,1.8-8.3-1.4C132.1,189.3,134.4,190.1,134.4,190.1z"/>
		<g id="XMLID_135_">
			<path id="XMLID_137_" d="M134.4,190.1c1.9,0.4,3.9,0.5,5.8,0.3c1-0.1,1.9-0.3,2.8-0.6c0.9-0.3,1.7-0.8,2.5-1.3l0,0l0.1-0.1
				c0.5-0.3,1.1-0.8,1.6-1.2c0.5-0.5,1-1,1.4-1.6c0.9-1.1,1.7-2.4,2.4-3.5c0.4-0.7,0.6-1.3,0.9-1.9c0.2-0.7,0.4-1.3,0.6-2
				c0.3-1.4,0.5-2.8,0.6-4.2c0.3-1.9,0.4-3.7,0.5-5.6c0-0.9,0-1.9,0-2.8l0-0.7l0-0.3l0-0.2l0-0.1l0-0.1c0,0,0-0.1,0-0.2
				c0.1-0.2-0.1,0,0.2-0.4c0.4-0.3,0.7-0.3,1-0.2c0.3,0.2,0.2,0.2,0.3,0.2c0,0,0.1,0.1,0.1,0.1c0.1,0.2,0.1,0.2,0.1,0.2
				c0.2,0.6,0.3,1,0.4,1.5c0.8,3.9,0.8,7.9,0,11.7c-0.8,3.9-2.5,7.6-5.1,10.5c-2.6,2.9-6,5-9.6,6.4l0,0l0,0
				c-1.1,0.2-2.1,0.3-3.2,0.4c-1.1,0.1-2.2,0-3.2-0.2c-0.5-0.1-1.1-0.4-1.5-0.8c-0.2-0.2-0.3-0.4-0.4-0.7c-0.1-0.3-0.1-0.5-0.1-0.8
				c0-0.5,0-1.1,0.4-1.6C133.3,189.9,133.9,190,134.4,190.1c-0.5-0.2-1.1-0.2-1.5,0.2c-0.3,0.4-0.3,1-0.3,1.5c0,0.3,0.1,0.5,0.2,0.8
				c0.1,0.2,0.2,0.5,0.4,0.6c0.4,0.3,0.9,0.5,1.4,0.7c2.1,0.4,4.2,0,6.3-0.4l0,0c3.5-1.5,6.7-3.6,9.1-6.5c2.4-2.9,3.9-6.5,4.5-10.1
				c0.6-3.7,0.4-7.5-0.4-11.1c-0.1-0.4-0.2-0.9-0.4-1.2c0,0,0,0,0,0.1c0,0,0,0.1,0.1,0.1c0.1,0.1,0,0,0.3,0.2c0.2,0.1,0.6,0.1,1-0.2
				c0.3-0.4,0.1-0.2,0.2-0.4c0-0.1,0-0.1,0-0.1l0,0l0-0.1c0,0,0,0.1,0,0.1l0,0.4l0.1,0.7c0.1,1,0.1,2,0.1,2.9c0,2-0.1,3.9-0.3,5.9
				c-0.2,1.5-0.6,3-1,4.4c-0.2,0.7-0.5,1.5-0.8,2.2c-0.3,0.7-0.7,1.5-1.1,2c-0.9,1.3-1.8,2.4-2.8,3.6c-0.5,0.6-1.1,1.1-1.6,1.6
				c-0.6,0.5-1.2,0.9-2,1.3l0.1-0.1c-0.9,0.5-1.8,1-2.8,1.2c-1,0.3-2,0.4-3,0.4C138.3,190.9,136.3,190.7,134.4,190.1z"/>
		</g>
	</g>
	<g>
		<path id="XMLID_130_" fill="#FFFFFF" d="M61.9,148.8c0,0-2.3-3.9-5-2.5c-2.7,1.4,0,3.2-0.9,3.1c0,0-2.4-1.8-4.1,0.6
			c-1.7,2.3-4.3,5,0.5,7.4c4.8,2.4,7.5,3.1,9.9,2.2C64.8,158.6,61.9,148.8,61.9,148.8z"/>
		<g id="XMLID_132_">
			<path id="XMLID_134_" d="M61.9,148.8c-0.5-0.7-1.1-1.3-1.7-1.8c-0.7-0.5-1.4-0.8-2.2-0.7c-0.2,0-0.4,0.1-0.5,0.1
				c-0.2,0.1-0.3,0.1-0.5,0.2c-0.3,0.2-0.6,0.4-0.7,0.7c-0.1,0.2-0.1,0.4,0,0.7c0.1,0.1,0.2,0.3,0.3,0.4c0.1,0.1,0.1,0.2,0.2,0.3
				c0,0.1,0,0.1,0.1,0.2c0,0.1,0,0.1,0,0.2c0,0.1,0,0.1,0,0.2c0,0.1-0.1,0.2-0.1,0.3c-0.2,0.2-0.3,0.2-0.4,0.3c-0.1,0-0.1,0-0.2,0
				c-0.1,0-0.1,0-0.2,0l-0.1,0l-0.2-0.1c-0.6-0.3-1.4-0.5-1.9-0.3c-0.3,0.1-0.5,0.2-0.7,0.5c-0.1,0.1-0.2,0.2-0.3,0.4
				c-0.1,0.1-0.2,0.3-0.3,0.5c0,0-0.3,0.4-0.8,1c-0.4,0.6-1.2,1.6-1.1,2.4c0,0.4,0.3,0.9,0.9,1.4c0.6,0.5,1.2,0.8,2,1.3
				c1.5,0.8,3.2,1.7,5,2.1c0.9,0.2,1.8,0.3,2.6,0.2c0.4-0.1,0.9-0.2,1.2-0.3c0.2-0.1,0.4-0.5,0.5-0.9c0.4-1.6,0.1-3.3-0.1-4.7
				c-0.2-1.4-0.4-2.6-0.6-3.4C62,149.2,61.9,148.8,61.9,148.8s0.1,0.5,0.4,1.3c0.2,0.8,0.5,1.9,0.8,3.3c0.3,1.4,0.6,3,0.4,4.9
				c-0.1,0.5-0.2,1-0.8,1.4c-0.5,0.3-0.9,0.4-1.4,0.5c-1,0.2-2,0.1-3,0c-2-0.4-3.8-1.1-5.4-1.8c-0.8-0.4-1.7-0.8-2.4-1.3
				c-0.7-0.6-1.4-1.4-1.6-2.4c-0.2-1,0.1-1.8,0.4-2.4c0.3-0.6,0.6-1.1,0.8-1.4c0.5-0.7,0.7-1.1,0.7-1.1c0.2-0.2,0.3-0.3,0.4-0.5
				c0.2-0.2,0.4-0.4,0.6-0.6c0.4-0.4,1-0.6,1.6-0.7c0.6-0.1,1.2,0,1.7,0.2c0.5,0.2,0.9,0.4,1.4,0.7l-0.3-0.1c0,0,0,0-0.1,0
				c0,0,0,0-0.1,0c-0.1,0-0.2,0.1-0.3,0.2c-0.1,0.1-0.1,0.2-0.1,0.2c0,0,0,0.1,0,0.1c0,0.1,0,0.1,0,0.1c0,0.1,0,0,0,0
				c0,0-0.1-0.1-0.1-0.2c-0.1-0.2-0.2-0.4-0.3-0.7c-0.2-0.5-0.1-1.2,0.2-1.7c0.3-0.5,0.8-0.7,1.2-0.9c0.2-0.1,0.5-0.2,0.7-0.2
				c0.2,0,0.5-0.1,0.7-0.1c1,0,1.8,0.5,2.4,1.1C61,147.3,61.5,148,61.9,148.8z"/>
		</g>
	</g>
	<g>
		<path id="XMLID_127_" fill="#BFBFBF" d="M131,200.5c0-0.2,0.1-0.3,0.2-0.5c0-0.4,0.1-0.9,0.1-1.3c-2.5-2.4-8.2-3.3-11.5-4.4
			c-3.3-1.1-7.1-3-10.6-3.2c-5-0.3-10.6,1.4-15.8,1.7c0,0.8,0,1.5,0,2.3c0,0.7-0.1,1.7,0.2,2.4c1.2,0.7,4.6-0.4,5.9-0.4
			c0.6,0,2.3-0.3,2.8,0c0.9,0.6,0.7,1.8,1.6,2.5c1.3,1.1,4,1.1,5.6,1.3c3.5,0.5,7.2,0.6,10.9,0.6c3.1,0,7.4,0.3,10.4-0.9
			C130.9,200.7,130.9,200.6,131,200.5z"/>
		<g id="XMLID_129_">
			<path id="XMLID_131_" fill="#FFFFFF" d="M131,200.5l0.2-0.5l0,0l0.1-1.3l0,0.1c-1.7-1.4-3.9-2-6-2.6c-2.1-0.5-4.3-0.9-6.5-1.6
				c-2.1-0.7-4.2-1.5-6.3-2c-1-0.3-2.1-0.4-3.1-0.5c-1.1,0-2.1,0-3.2,0.1c-4.1,0.2-8.3,1.2-12.7,1.5l0.8-0.9l0,2.4
				c0,0.8-0.1,1.6,0.1,2l-0.3-0.3c0.1,0.1,0.5,0.2,0.8,0.2c0.4,0,0.7,0,1.1-0.1c0.8-0.1,1.6-0.2,2.4-0.4c0.4-0.1,0.9-0.1,1.3-0.1
				l1.2-0.1c0.4,0,0.8,0,1.4,0.1c0.1,0,0.3,0.1,0.5,0.2c0.1,0.1,0.2,0.1,0.3,0.2c0.2,0.2,0.3,0.4,0.5,0.7c0.2,0.4,0.3,0.8,0.4,1.1
				c0.1,0.2,0.1,0.3,0.2,0.4c0,0,0,0,0.1,0.1c0,0,0,0,0,0l0.1,0c0.1,0.1,0.2,0.1,0.2,0.2c0.5,0.4,1.3,0.6,2.1,0.7
				c0.8,0.1,1.6,0.2,2.4,0.3c0.8,0.1,1.6,0.3,2.4,0.4c3.2,0.4,6.5,0.5,9.7,0.6c1.6,0,3.3,0.1,4.9,0c1.6-0.1,3.3-0.2,4.8-0.8l0,0
				L131,200.5l0,0.2l0,0c-1.5,0.6-3.2,0.9-4.8,1c-1.6,0.1-3.3,0.1-4.9,0.1c-3.3,0.1-6.5,0.1-9.8-0.2c-0.8-0.1-1.6-0.2-2.4-0.3
				c-0.8-0.1-1.6-0.1-2.5-0.2c-0.8-0.1-1.7-0.3-2.5-0.8c-0.1-0.1-0.2-0.1-0.3-0.2l-0.1,0l-0.1-0.1c0,0-0.1-0.1-0.1-0.1
				c-0.2-0.2-0.3-0.4-0.4-0.6c-0.2-0.4-0.3-0.8-0.5-1.1c-0.1-0.1-0.2-0.3-0.2-0.3c0,0-0.1-0.1-0.2-0.1c0,0,0,0-0.1,0
				c-0.3,0-0.7,0-1.1,0l-1.2,0.1c-0.4,0-0.7,0.1-1.1,0.2c-0.8,0.2-1.6,0.3-2.4,0.5c-0.4,0.1-0.9,0.1-1.3,0.1c-0.5,0-1,0-1.5-0.3
				l-0.2-0.1l-0.1-0.2c-0.4-1-0.3-1.9-0.3-2.6l-0.1-2.3l0-0.8l0.8-0.1c4.1-0.4,8.3-1.6,12.6-1.9c1.1,0,2.3,0,3.5,0.1
				c1.2,0.2,2.3,0.4,3.4,0.8c2.2,0.7,4.2,1.7,6.2,2.5c2,0.8,4.2,1.4,6.3,2.1c2.1,0.7,4.3,1.5,5.9,3.1l0,0l0,0l-0.2,1.3l0,0l0,0
				L131,200.5z"/>
		</g>
	</g>
	<g>
		<polygon id="XMLID_124_" fill="#FFFFFF" points="88.2,107.7 89.1,129.5 103.9,169 119.3,139.3 134.4,114.2 130.4,100.8 		"/>
		<g id="XMLID_126_">
			<path id="XMLID_128_" d="M88.2,107.7l1.2,21.7l0-0.1l14.4,36.7l1,2.6l-1.9-0.1l14.8-27.7l0.9-1.7c0.4-0.6,0.7-1.1,1-1.7l2-3.3
				l4.1-6.7L134,114l0,0.4l-3.8-13.5l0.4,0.3L88.2,107.7l42.2-7.3l0.3-0.1l0.1,0.3l4.1,13.4l0.1,0.2l-0.1,0.2l-7.9,13.5l-4,6.8
				l-2,3.4l-1,1.7l-0.9,1.7l-14.3,27.9l-1.1,2.1l-0.8-2.2l-1-2.6l-13.2-37.2l0-0.1l0-0.1L88.2,107.7z"/>
		</g>
	</g>
	<g>
		<g>
			<path id="XMLID_121_" d="M105.8,129.5c0,0-5.7,9.9-6.3,23.1c-0.6,13.2,2.5,19.2,3.2,19.8c0.7,0.6,2.9-2.7,4.6-4.7
				C109,165.8,111.7,141.7,105.8,129.5z"/>
			<g id="XMLID_123_">
				<path id="XMLID_125_" d="M105.8,129.5c0,0-0.9,1.7-1.9,4.3c-1,2.6-2.1,6.2-2.7,9.9c-0.7,3.7-0.9,7.4-0.9,10.2
					c0,1.4,0.1,2.6,0.1,3.4c0.1,0.8,0.1,1.3,0.1,1.3s0,0.2,0,0.7c0,0.4,0.1,1.1,0.1,1.9c0.1,1.6,0.3,3.9,1,6.6
					c0.3,1.3,0.8,2.8,1.5,4c0,0.1,0.1,0.2,0.1,0.2l0,0l0,0c0,0,0.1,0,0,0.1c-0.1,0.1,0.2,0-0.3,0.2l0,0l0,0l0.1,0
					c0.2-0.1-0.2-0.4-0.1-0.5c0,0,0,0,0.1-0.1c0.2-0.2,0.5-0.4,0.8-0.7c0.5-0.6,1.1-1.3,1.6-2c0.3-0.3,0.6-0.7,0.9-1l0.5-0.5
					l0.1-0.1l0,0l0,0c-0.1,0.1,0,0,0,0l0.1-0.1c0.1-0.1,0.1-0.2,0.1-0.2c0.1-0.3,0.3-0.7,0.4-1.1c0.1-0.4,0.2-0.9,0.3-1.3
					c0.4-1.8,0.6-3.6,0.9-5.5c0.8-7.4,0.7-15-0.2-20.5c-0.4-2.8-1-5.1-1.5-6.6c-0.3-0.8-0.5-1.4-0.7-1.8
					C105.9,129.7,105.8,129.5,105.8,129.5c0,0,0.1,0.2,0.3,0.6c0.2,0.4,0.4,1,0.7,1.8c0.6,1.5,1.3,3.8,1.8,6.6
					c1.1,5.6,1.5,13.2,0.9,20.7c-0.1,1.9-0.4,3.8-0.7,5.6c-0.1,0.5-0.2,0.9-0.3,1.4c-0.1,0.5-0.2,0.9-0.5,1.4
					c-0.1,0.1-0.1,0.3-0.2,0.4l-0.1,0.1l-0.2,0.2l-0.4,0.5c-0.3,0.3-0.5,0.7-0.8,1c-0.5,0.7-1.1,1.4-1.6,2.1c-0.3,0.3-0.6,0.7-1,1
					c-0.1,0.1-0.2,0.2-0.4,0.2c-0.1,0-0.1,0.1-0.4,0.1c-0.1,0-0.2,0-0.3,0c-0.1,0-0.2-0.1-0.2-0.1l-0.1,0l0,0l0,0
					c-0.4-0.3-0.1-0.1-0.2-0.2l-0.2-0.2c-0.1-0.1-0.2-0.2-0.2-0.3c-1-1.6-1.4-3-1.8-4.4c-0.8-2.8-1.1-5.2-1.3-6.9
					c-0.1-0.8-0.1-1.5-0.2-1.9c0-0.4,0-0.7,0-0.7s0-0.5,0-1.3c0-0.8,0-2.1,0.2-3.5c0.2-2.9,0.7-6.7,1.6-10.3c1-3.7,2.3-7.2,3.5-9.8
					C104.8,131.1,105.8,129.5,105.8,129.5z"/>
			</g>
		</g>
		<g>
			<path id="XMLID_118_" d="M106.3,116.1l-5.1,6.5c0,0,4.2,7.3,4.5,7.4c0.3,0.1,7.1-8.3,7.5-9C113.7,120.3,106.3,116.1,106.3,116.1z
				"/>
			<g id="XMLID_120_">
				<path id="XMLID_122_" d="M106.3,116.1l-4.5,6.9l0.1-0.8l2.4,3.4c0,0,0.2,0.3,0.5,0.9c0.3,0.6,0.8,1.5,1.3,2.4
					c0.1,0.1,0.1,0.2,0.2,0.3c0,0-0.1-0.1-0.1-0.1l0,0c0,0,0,0-0.1,0c-0.1,0.1-0.2,0.2-0.2,0.3c-0.1,0.1-0.1,0.3-0.2,0.4l0-0.2
					c0,0,0-0.4-0.2-0.6c-0.1-0.1-0.1-0.1-0.2-0.1c0,0-0.1,0-0.1,0.1l0,0l0.1-0.1c0.2-0.2,0.4-0.4,0.7-0.6c0.5-0.5,0.9-1,1.4-1.5
					c1-1.1,2-2.2,3-3.4c0.5-0.6,1-1.2,1.5-1.7c0.2-0.3,0.5-0.6,0.7-0.9l0.2-0.2l0,0c0.4,0.3,0.1,0.1,0.2,0.2l0,0l0,0l0,0
					c0,0-0.1,0-0.2,0c0,0,0,0,0,0.1c0,0,0,0,0,0c0-0.1-0.1-0.2-0.3-0.3c-1-1-2.2-1.7-3.1-2.4C107.6,116.9,106.3,116.1,106.3,116.1
					s1.4,0.7,3.4,1.8c1,0.6,2.2,1.2,3.4,2.2c0.1,0.1,0.3,0.2,0.4,0.5c0,0,0.1,0.3,0.1,0.4l0,0l0,0l0,0c0,0,0-0.1,0,0.1l0,0.1
					l-0.2,0.2c-0.2,0.3-0.4,0.6-0.7,0.9c-0.5,0.6-0.9,1.2-1.4,1.9c-0.9,1.2-1.9,2.5-2.8,3.6c-0.5,0.6-0.9,1.1-1.3,1.7
					c-0.2,0.3-0.4,0.5-0.7,0.8l-0.1,0.1l-0.1,0.1c-0.1,0.1-0.2,0.1-0.3,0.2c-0.1,0-0.3,0.1-0.3,0.1l0,0c-0.8-0.1-0.2,0-0.4-0.1l0,0
					l-0.1,0c-0.1-0.1-0.3-0.2-0.4-0.3c-0.1-0.1-0.2-0.3-0.3-0.4c-0.7-1-1.2-1.8-1.6-2.4c-0.4-0.6-0.6-0.9-0.6-0.9l-1.8-3.8l-0.2-0.5
					l0.3-0.3L106.3,116.1z"/>
			</g>
		</g>
	</g>
	<g>
		<path id="XMLID_115_" fill="#414141" d="M80.1,169.8c0,0,10.4,25.5,11.5,25.7c1.1,0.2,12-0.8,13.2-1.5c1.2-0.8-0.9-24.9-0.9-24.9
			s-19.5-52.9-17-54.8c0,0-16,8.8-16.7,11.9c-0.6,3.1,1.9,25.8,2.9,27.7c1,1.9-13.5-5.8-14.2-4.2c-0.6,1.6-5.3,14.5-5.3,14.5
			s13.7,8.1,21.7,7.7c0,0,6.5-1.6,8.4-8.4"/>
		<g id="XMLID_117_">
			<path id="XMLID_119_" d="M80.1,169.8c2.2,5.1,4.4,10.2,6.7,15.2c1.1,2.5,2.3,5.1,3.5,7.5c0.3,0.6,0.6,1.2,1,1.8
				c0.1,0.1,0.2,0.3,0.3,0.4c0,0.1,0.1,0.1,0.1,0.2l0.1,0.1c0,0,0,0.1,0,0l0,0c0,0,0,0.1-0.1,0.1c0,0.1,0,0.1,0,0.2
				c0.1-0.6,0-0.2,0-0.3l0,0l0.1,0c0.1,0,0.2,0,0.2,0l0.5,0c1.4-0.1,2.7-0.2,4.1-0.3c1.4-0.1,2.7-0.3,4.1-0.5c0.7-0.1,1.4-0.2,2-0.3
				c0.3-0.1,0.7-0.1,1-0.2l0.5-0.1c0.1,0,0.1,0,0.2-0.1l0.1,0l0,0l0,0c0-0.1,0.4,0.7,0.2,0.3l-0.1-0.2c0-0.1-0.1-0.2-0.1-0.2
				c0,0,0,0,0,0l0,0c0,0,0,0,0,0l0-0.1c0-0.1,0-0.3,0.1-0.5c0-0.3,0-0.7,0-1c0-0.7,0-1.4,0-2.1c0-1.4-0.1-2.8-0.2-4.1
				c-0.3-5.5-0.8-11-1.3-16.6l0.1,0.2L98.5,157c-2.4-7-4.8-14-7.1-21.1c-1.1-3.5-2.2-7.1-3.2-10.6c-0.5-1.8-1-3.6-1.4-5.4
				c-0.2-0.9-0.4-1.8-0.6-2.8c-0.1-0.5-0.1-1-0.2-1.4c0-0.3,0-0.5,0-0.8c0-0.1,0-0.3,0.1-0.5c0-0.1,0.1-0.2,0.1-0.3
				c0.1-0.1,0.2-0.3,0.3-0.4l0.8,1.3c-2.9,1.6-5.7,3.2-8.5,5c-1.4,0.9-2.8,1.8-4.1,2.7c-1.3,1-2.7,2-3.5,3.1
				c-0.1,0.1-0.2,0.3-0.2,0.4l0,0.1c0-0.1,0,0.1,0,0.1l0,0.3c-0.1,0.4,0,0.8-0.1,1.2c0,0.8,0,1.6,0.1,2.4c0.1,1.6,0.2,3.3,0.3,4.9
				c0.3,3.3,0.6,6.6,1,9.9c0.2,1.6,0.4,3.3,0.7,4.9c0.1,0.8,0.3,1.6,0.4,2.4c0.1,0.4,0.2,0.8,0.3,1.1c0,0.1,0.1,0.1,0.1,0.4
				c0,0.1,0,0.4-0.2,0.6c-0.2,0.1-0.3,0.1-0.4,0.2c-0.3,0-0.5,0-0.8-0.1c-1.7-0.5-3.2-1.2-4.7-1.8c-1.5-0.6-3-1.3-4.6-1.9
				c-0.8-0.3-1.5-0.6-2.3-0.8c-0.4-0.1-0.8-0.2-1.1-0.2c-0.1,0-0.2,0-0.2,0c-0.1,0,0,0.1-0.1,0c0,0,0,0,0,0c0.1,0,0,0,0.1,0l0,0l0,0
				l-0.1,0.1l-0.1,0.3l-1.7,4.7l-3.5,9.3l-0.1-0.3c3.3,1.9,6.8,3.7,10.4,5.2c1.8,0.7,3.6,1.4,5.5,1.9c1.9,0.5,3.8,0.9,5.7,0.8l0,0
				c2-0.6,3.8-1.6,5.3-3.1c1.5-1.4,2.5-3.3,3.2-5.2c-1.1,4-4.4,7.3-8.4,8.5l0,0l0,0c-2,0.1-3.9-0.3-5.8-0.8
				c-1.9-0.5-3.7-1.1-5.5-1.8c-3.6-1.4-7.1-3.1-10.5-5l-0.2-0.1l0.1-0.2l3.3-9.4l1.7-4.7l0.1-0.3l0.1-0.1l0-0.1
				c0-0.1,0.1-0.1,0.1-0.2c0.3-0.3,0.6-0.3,0.9-0.3c0.5,0,0.9,0.1,1.3,0.2c0.8,0.2,1.6,0.5,2.4,0.8c1.6,0.6,3.1,1.2,4.6,1.8
				c1.5,0.6,3.1,1.3,4.6,1.7c0.2,0,0.4,0.1,0.5,0.1c0,0,0,0-0.1,0.1c-0.1,0.1-0.1,0.2-0.1,0.3c0,0,0-0.1-0.1-0.2
				c-0.2-0.5-0.2-0.9-0.3-1.3c-0.2-0.8-0.3-1.6-0.5-2.5c-0.3-1.6-0.5-3.3-0.7-4.9c-0.4-3.3-0.8-6.6-1.1-9.9c-0.2-1.7-0.3-3.3-0.4-5
				c-0.1-0.8-0.1-1.7-0.1-2.5c0-0.4,0-0.9,0-1.3l0-0.3c0-0.1,0,0,0-0.2l0.1-0.2c0.1-0.3,0.2-0.5,0.4-0.7c0.5-0.8,1.2-1.3,1.8-1.9
				c0.6-0.6,1.3-1.1,2-1.6c1.3-1,2.7-1.9,4.1-2.8c2.8-1.8,5.6-3.5,8.5-5.2l0.8,1.3c0.1,0,0.1-0.1,0.1-0.1c0,0,0,0,0,0
				c0,0,0,0.1,0,0.2c0,0.2,0,0.4,0,0.6c0,0.4,0.1,0.9,0.2,1.3c0.2,0.9,0.4,1.8,0.6,2.7c0.4,1.8,1,3.5,1.5,5.3
				c1.1,3.5,2.2,7,3.4,10.5c2.3,7,4.8,14,7.3,20.9l4.3,12.5l0,0.1l0,0.1c0.4,5.5,0.7,11.1,0.9,16.7c0,1.4,0.1,2.8,0.1,4.2
				c0,0.7,0,1.4,0,2.1c0,0.4,0,0.7-0.1,1.1c0,0.2,0,0.4-0.1,0.6c0,0.1-0.2,0.7-0.3,0.7l0,0.1c0.1-0.1-0.2,0.1-0.1,0.1l0,0l0,0
				l-0.2,0.1c-0.1,0-0.2,0.1-0.3,0.1l-0.5,0.1c-0.4,0.1-0.7,0.1-1.1,0.2c-0.7,0.1-1.4,0.2-2.1,0.3c-1.4,0.2-2.8,0.3-4.2,0.4
				c-1.4,0.1-2.8,0.2-4.2,0.2c-0.2,0-0.4,0-0.6,0c-0.1,0-0.2,0-0.3,0l-0.1,0c-0.1,0-0.2-0.1-0.3-0.1c-0.1-0.1-0.1-0.1-0.2-0.2
				l-0.1-0.1c-0.1-0.1-0.1-0.2-0.2-0.2c-0.1-0.2-0.2-0.3-0.3-0.5c-0.3-0.6-0.6-1.3-0.9-1.9c-1.2-2.5-2.3-5.1-3.3-7.6
				C84.2,180.1,82.1,174.9,80.1,169.8z"/>
		</g>
	</g>
	<g>
		<path id="XMLID_112_" fill="#414141" d="M104.6,194.6c0,0-0.6,3.7,3.5,4c4.1,0.3,22.9,3.1,25.2-0.6c2.3-3.7,3-16.3,3.2-20
			c0,0-0.2-1.1,0-2c0.2-0.9,10.7-13.3,11.4-16.1c0.8-2.8,1.6-1.8,1-8.3c-0.5-6.6-0.9-7.3,0.2-12c1.1-4.7,0.6-15.4-1.1-17.4
			c-1.7-2-14-17.9-13.7-19.1c0.3-1.2-11.1,9.8-8.2,6.3c2.9-3.5-22.5,59.4-21.9,59.1C104.9,168.2,103.9,194.1,104.6,194.6z"/>
		<g id="XMLID_114_">
			<path id="XMLID_116_" d="M104.6,194.6c-0.1,1.1,0.2,2.2,1,3c0.8,0.8,1.9,0.9,3,1l6.5,0.6c4.3,0.4,8.7,0.7,13,0.3
				c1.1-0.1,2.1-0.2,3.1-0.6c0.5-0.2,1-0.4,1.4-0.6l0.3-0.2l0.2-0.2l0.4-0.7c0.8-1.9,1.2-4.1,1.5-6.2c0.6-4.3,0.8-8.6,1-13l0,0.1
				c-0.1-0.6-0.1-1.2-0.1-1.9l0-0.2l0-0.1l0,0l0,0l0-0.1l0,0l0-0.1c0.1-0.1,0.1-0.3,0.2-0.4l0.3-0.5l0.3-0.4c0.7-0.9,1.3-1.8,2-2.7
				l4.1-5.4c1.3-1.8,2.7-3.6,3.7-5.5l0.4-0.7l0.1-0.3l0.1-0.1l0,0l0-0.1l0-0.1c0.1-0.3,0.2-0.6,0.3-0.9c0.1-0.3,0.2-0.6,0.3-0.8
				c0.2-0.5,0.3-0.9,0.4-1.4c0.1-0.5,0.1-1,0.1-1.5c0,0,0-0.6,0-1.7c-0.1-1.1-0.2-2.8-0.4-5c-0.1-1.1-0.2-2.3-0.2-3.7
				c0-1.4,0.2-2.9,0.6-4.4c0.4-1.5,0.6-2.9,0.7-4.6c0.1-1.6,0.1-3.4,0-5.2c-0.1-1.8-0.2-3.7-0.7-5.6c-0.1-0.5-0.2-0.9-0.4-1.3
				c-0.2-0.5-0.3-0.6-0.7-1.1c-0.6-0.8-1.3-1.7-2-2.5c-2.6-3.4-5.3-7-8-10.8c-0.7-1-1.3-1.9-2-2.9c-0.3-0.5-0.6-1-0.9-1.6
				c-0.2-0.3-0.3-0.5-0.4-0.9c0-0.1-0.1-0.2-0.1-0.4c0-0.1,0-0.2,0-0.3c0.7,0.2,0.3,0.1,0.6,0.1c0,0,0.1,0,0.1,0
				c0,0.1,0,0.3,0.1,0.5c0.1,0.1,0,0,0,0.1c0,0,0,0,0,0c0,0-0.1,0.1-0.1,0.1c-0.9,0.6-1.8,1.5-2.7,2.2c-0.9,0.8-1.8,1.6-2.7,2.4
				l-1.4,1.2l-0.7,0.6c-0.1,0.1-0.3,0.2-0.4,0.3c-0.1,0.1-0.1,0.1-0.3,0.2c-0.1,0-0.1,0.2-0.7-0.1c-0.3-0.5-0.1-0.7-0.1-0.7
				c0-0.1,0.1-0.2,0.1-0.2c0.1-0.2,0.2-0.3,0.3-0.4l0.2-0.2c0,0,0,0,0.1-0.1c0,0,0.1-0.1,0.2-0.1c0,0,0.5-0.1,0.6,0.1
				c0.3,0.2,0.2,0.3,0.3,0.4c0,0.1,0,0.1,0,0.2c0,0.1,0,0.1,0,0.2c0,0.1,0,0.2,0,0.3c0,0.2-0.1,0.3-0.1,0.5
				c-0.2,0.6-0.4,1.2-0.6,1.8c-0.8,2.4-1.7,4.7-2.5,7c-3.5,9.3-7.2,18.5-10.6,27.1c-1.7,4.3-3.4,8.5-4.9,12.4
				c-0.8,2-1.5,3.9-2.3,5.8c-0.4,0.9-0.7,1.9-1.1,2.8c-0.2,0.4-0.3,0.9-0.5,1.3c-0.2,0.1-0.1-0.2-0.1-0.1c0,0,0.1,0,0.1,0.1
				c0.1,0.1,0,0.1,0.1,0.2c0,0.1,0,0.1,0,0.2c0,0.1,0,0.2,0,0.4l0,0.7c0,7.4-0.2,13.6-0.3,18C104.3,192.1,104.4,194.6,104.6,194.6
				c-0.2,0-0.3-2.5-0.3-6.8c0-4.3,0.2-10.5,0-17.9l0-0.7l0-0.3c0-0.1,0-0.1,0-0.2c0,0,0-0.1,0,0c0,0,0.1,0,0.1,0
				c0.1,0.1-0.2-0.2-0.2-0.2c0.1-0.6,0.3-1,0.4-1.4c0.3-0.9,0.7-1.8,1-2.8c0.7-1.9,1.4-3.8,2.2-5.8c1.5-4,3.1-8.2,4.8-12.5
				c3.3-8.7,6.8-17.9,10.2-27.2c0.8-2.3,1.7-4.7,2.4-7c0.2-0.6,0.4-1.2,0.5-1.7l0.1-0.4l0-0.2c0,0,0-0.1,0,0l0,0.1
				c0,0,0,0.1,0.2,0.3c0.1,0.2,0.6,0.1,0.5,0.1c0.1,0,0.1-0.1,0.1-0.1c0,0,0,0,0,0l-0.1,0.2c-0.1,0.1-0.2,0.2-0.2,0.3c0,0,0,0,0,0
				c0,0,0.2-0.1-0.2-0.6c-0.6-0.3-0.5-0.1-0.6-0.1c-0.1,0,0,0,0.1-0.1l0.3-0.3l0.7-0.6l1.4-1.2c0.9-0.8,1.8-1.6,2.7-2.4
				c0.9-0.8,1.8-1.6,2.8-2.4c0.1,0,0.1-0.1,0.2-0.2c0,0,0.1-0.1,0.2-0.1c0,0,0.1,0,0.2-0.1c0.1,0,0.2-0.1,0.4,0
				c0.4,0.1,0.5,0.5,0.5,0.8l0,0.1c0,0,0-0.1,0-0.1c0-0.1,0,0,0,0.1c0.1,0.2,0.2,0.4,0.3,0.7c0.3,0.5,0.6,1,0.9,1.5
				c0.6,1,1.3,1.9,2,2.9c2.7,3.7,5.5,7.3,8.1,10.6c0.7,0.8,1.3,1.6,2,2.4c0.3,0.3,0.8,1,0.9,1.5c0.2,0.5,0.4,1.1,0.5,1.6
				c0.5,2,0.7,4,0.8,5.9c0.1,1.9,0.1,3.7,0,5.4c-0.1,1.7-0.3,3.4-0.7,4.9c-0.3,1.4-0.5,2.8-0.5,4c0,1.2,0.1,2.4,0.2,3.5
				c0.2,2.2,0.4,3.9,0.5,5c0.1,1.2,0.1,1.8,0.1,1.8c0,0.6,0,1.2-0.1,1.8c-0.1,0.6-0.3,1.4-0.6,1.9c-0.1,0.3-0.2,0.5-0.3,0.7
				c-0.1,0.2-0.2,0.4-0.2,0.7l0,0.1c0,0,0,0.1,0,0l0,0.1l-0.1,0.3l-0.2,0.5l-0.4,0.8c-1.2,2-2.6,3.8-4,5.6l-4.2,5.3
				c-0.7,0.9-1.4,1.8-2.1,2.6l-0.4,0.6l-0.1,0.1l-0.1,0.2l0,0.1l0,0c0,0.1,0-0.2,0-0.1l0,0l0,0l0,0l0,0.2c-0.1,0.5,0,1,0,1.5l0,0.1
				l0,0.1c-0.3,4.3-0.7,8.7-1.4,13c-0.4,2.2-0.8,4.3-1.7,6.4c-0.1,0.3-0.2,0.4-0.4,0.7c-0.1,0.1-0.2,0.3-0.3,0.4L133,199
				c-0.5,0.3-1.1,0.5-1.6,0.7c-1.1,0.3-2.2,0.4-3.3,0.5c-4.4,0.2-8.7-0.2-13.1-0.7l-6.5-0.8c-1.1-0.1-2.2-0.3-3-1.1
				C104.7,196.8,104.4,195.6,104.6,194.6z"/>
		</g>
	</g>
	<g>
		<path id="XMLID_109_" fill="#414141" d="M133.7,139.3c0,0,1.6,8,1.6,10.9c0,2.9,1.3,4.9-0.8,6.9c0,0-7.3,14.9-8,17.1
			c-0.8,2.2-2.7,1.5-1.6,2.8c1.1,1.3,5.6,5.3,6.2,5.3s4.6-4,5.1-5"/>
		<g id="XMLID_111_">
			<path id="XMLID_113_" d="M133.7,139.3c0.8,3,1.5,5.9,2,8.9c0.1,0.7,0.2,1.6,0.3,2.3c0.1,0.7,0.2,1.4,0.4,2.2
				c0.1,0.8,0.3,1.6,0.2,2.5c-0.1,1-0.7,1.9-1.3,2.5l0.2-0.3l-0.2,0.5c0,0-1.1,2.1-2.7,5.2c-1.6,3.1-3.8,7.3-5.7,11.5
				c-0.3,0.7-0.8,1.2-1.4,1.5l-0.4,0.2c0,0-0.1,0.1-0.1,0.1l0,0c0,0-0.1,0,0,0c0,0,0,0,0,0c0,0,0,0-0.1,0c0,0,0,0,0,0c0,0,0,0,0.1,0
				c0,0,0,0,0,0l0.1,0.1c0.1,0.1,0.1,0.2,0.2,0.3c0.7,0.8,1.5,1.6,2.3,2.4c0.8,0.7,1.6,1.5,2.4,2.1c0.4,0.3,0.8,0.6,1.1,0.8
				c0.3,0,0.7-0.4,1-0.6c1.4-1.1,2.4-2.1,3.1-2.9c0.7-0.7,1-1.3,1-1.3s-0.3,0.5-0.9,1.3c-0.7,0.8-1.6,1.9-2.9,3.1
				c-0.2,0.1-0.3,0.3-0.5,0.4c-0.2,0.1-0.4,0.4-0.7,0.4c-0.4-0.1-0.5-0.2-0.7-0.3c-0.2-0.1-0.4-0.3-0.6-0.4c-0.8-0.6-1.7-1.3-2.5-2
				c-0.8-0.7-1.7-1.4-2.5-2.3c-0.1-0.1-0.2-0.3-0.3-0.4c-0.1-0.2-0.2-0.3-0.2-0.7c0-0.4,0.3-0.6,0.4-0.7l0.4-0.3
				c0.4-0.3,0.8-0.7,0.9-1.1c1.7-4.4,3.7-8.7,5.1-11.9c1.4-3.2,2.4-5.4,2.4-5.4l0.2-0.4l0.1-0.2l0.1-0.1c0.5-0.4,0.8-0.8,0.9-1.3
				c0.1-0.5,0.1-1.2,0.1-2c-0.1-0.7-0.1-1.5-0.1-2.4c0-0.8,0-1.5,0-2.2C134.5,145.4,134.2,142.4,133.7,139.3z"/>
		</g>
	</g>
	<g>
		<path id="XMLID_107_" fill="#FFFFFF" d="M91.3,108.5l-2.3,3.7c0,0,7.6,12.3,11.4,13c1-1.1,2-2.2,2.9-3.4c1.3-1.6,3.1-3.7,3.3-5.9
			c-0.1,1,1.1,2.2,1.7,2.9c0.7,0.8,1.5,1.7,2.2,2.5c1,1.1,2.4,3.2,3.9,3.6c1.5,0.4,7.2-5.4,7.8-6.3c0.6-0.9,12.8-13.9,12.6-14.4
			c-0.2-0.4-1-1.8-1-1.8s-21.2,15.2-27.2,13.5C106.7,115.9,94.2,115.2,91.3,108.5z"/>
		<g id="XMLID_108_">
			<path id="XMLID_110_" d="M91.3,108.5l-2.2,3.8l0-0.1c1.6,2.4,3.3,4.8,5.2,7c0.9,1.1,1.9,2.2,2.9,3.2c0.5,0.5,1,1,1.6,1.4
				c0.5,0.4,1.2,0.7,1.7,0.9l-0.5,0.2c1.2-1.5,2.4-2.9,3.5-4.4c1.1-1.5,2.2-3,2.3-4.6l1.7,0.1c0,0.2,0.3,0.8,0.7,1.3
				c0.4,0.5,1,1,1.4,1.5l1.5,1.6c0.2,0.3,0.5,0.5,0.7,0.8l0.7,0.8c0.4,0.5,0.9,1,1.4,1.4c0.2,0.2,0.5,0.3,0.7,0.4l0.1,0l0,0l0,0l0,0
				l0,0c-0.1,0.2,0.2-0.5-0.2,0.5l0.1-0.3c0-0.1,0.1-0.3,0.1-0.2c0.1-0.1-0.1,0,0.1-0.1c0.5-0.2,1.1-0.6,1.6-1
				c0.6-0.4,1.1-0.9,1.6-1.3c1.1-0.9,2.1-1.9,3.1-3c0.1-0.1,0.2-0.3,0.3-0.3l0.2-0.2l0.2-0.3l0.7-0.8l1.5-1.6l5.9-6.4
				c1-1.1,2-2.1,2.9-3.2l0.7-0.8c0.2-0.3,0.5-0.6,0.6-0.7c0,0-0.1,0,0.1,0c0.1,0,0.1,0,0.1,0.1c0,0,0,0,0.1,0.1c0.1,0,0.1,0,0.2,0
				c0,0,0.1,0,0.1,0c-1.1,0.6-0.3,0.2-0.5,0.3l0,0l-0.1-0.1l-0.1-0.2l-0.2-0.5l-0.5-1l0.9,0.2c-4.3,2.9-8.6,5.7-13.1,8.2
				c-2.3,1.3-4.5,2.4-6.9,3.4c-1.2,0.5-2.4,1-3.7,1.3c-1.3,0.3-2.6,0.6-3.9,0.3l0,0c-3-0.3-5.9-0.9-8.7-2
				C95.3,113,92.6,111.3,91.3,108.5c1.3,2.7,4,4.4,6.8,5.4c2.8,1,5.7,1.6,8.6,1.8l0,0l0,0c1.2,0.3,2.5,0,3.7-0.4
				c1.2-0.4,2.4-0.8,3.6-1.4c2.3-1.1,4.6-2.3,6.8-3.6c4.4-2.6,8.7-5.5,12.8-8.5l0.6-0.4l0.3,0.6l0.5,1l0.3,0.5l0.1,0.2l0.1,0.1l0,0
				c0,0,0,0.1,0,0.1c0,0.1,0,0.2,0,0.3c0,0.3-0.1,0.2-0.1,0.3c-0.3,0.5-0.5,0.7-0.7,1l-0.7,0.9c-0.9,1.1-1.9,2.2-2.9,3.3l-5.8,6.5
				l-1.4,1.6l-0.7,0.8l-0.1,0.2l-0.2,0.2c-0.2,0.2-0.3,0.3-0.4,0.5c-1,1.1-2,2.2-3.1,3.2c-0.6,0.5-1.1,1-1.7,1.5
				c-0.6,0.5-1.2,0.9-2,1.3c-0.2,0.1-0.7,0.2-1,0.3l-0.3,0c-0.4-0.1-0.1,0-0.2,0l0,0l0,0l0,0l-0.1,0l-0.2-0.1
				c-0.5-0.2-0.9-0.4-1.2-0.7c-0.7-0.5-1.2-1.1-1.7-1.7l-0.7-0.8c-0.2-0.3-0.4-0.5-0.7-0.8l-1.4-1.6c-0.5-0.6-0.9-1.1-1.4-1.7
				c-0.2-0.3-0.5-0.6-0.7-1c-0.2-0.4-0.4-0.9-0.3-1.5l1.7,0.1c-0.1,1.1-0.6,2.1-1.1,3c-0.5,0.9-1.1,1.6-1.8,2.4
				c-1.2,1.4-2.5,2.9-3.8,4.3l-0.2,0.3l-0.3-0.1c-0.8-0.3-1.5-0.7-2.1-1.2c-0.6-0.5-1.1-1-1.6-1.6c-1-1.1-1.9-2.3-2.8-3.4
				c-1.7-2.4-3.3-4.8-4.9-7.3l0-0.1l0-0.1L91.3,108.5z"/>
		</g>
	</g>
	<g id="XMLID_97_">
		<polygon id="XMLID_100_" points="127.7,175.8 137.4,156.1 140.8,150.2 140.7,150.6 141.4,113.6 142.5,150.6 142.5,150.8 
			142.4,151.1 139.2,157.1 		"/>
	</g>
	<g id="XMLID_95_">
		<path id="XMLID_98_" d="M145.5,118.9l1.3,21.2l-0.2,13.1l0,0.1l0,0.1c-0.9,3-2.5,5.7-4.2,8.1c-1.7,2.5-3.6,4.8-5.3,7.3l0,0
			c-0.3,0.5-0.4,1-0.7,1.6l0,0l0,0c-2,2.5-3.7,5.1-5.6,7.7c1.8-2.6,3.4-5.4,5.2-7.9l0,0c0.2-0.5,0.3-1.1,0.6-1.6l0,0l0,0
			c1.5-2.6,3.3-5,4.9-7.6c1.6-2.5,3-5.2,3.7-8l0,0.2l-0.5-13.1L145.5,118.9z"/>
	</g>
	<g id="XMLID_93_">
		<path id="XMLID_96_" d="M134.9,146c0,0,0-1.9-0.1-3.8c-0.1-1.9-0.1-3.8-0.1-3.8s0.7-3.7,1-7.5c0.4-3.8,0.2-7.6,0.2-7.6
			s0,0.2,0.1,0.6c0.1,0.4,0.2,1,0.3,1.7c0.2,1.4,0.4,3.3,0.5,5.3c0.2,3.8,0.1,7.7,0.1,7.7s-0.5,1.9-0.9,3.7
			C135.3,144.2,134.9,146,134.9,146z"/>
	</g>
	<g id="XMLID_91_">
		<polygon id="XMLID_94_" points="130.7,129.1 132.4,139.9 132.5,161.6 130.2,140 		"/>
	</g>
	<g id="XMLID_89_">
		<polygon id="XMLID_92_" points="121.1,147.5 122.7,164.9 122.7,199.8 120.6,165 		"/>
	</g>
	<g id="XMLID_87_">
		<path id="XMLID_90_" d="M127.7,176.6l1.1,7.7c0,0-0.2,3.9-0.2,7.7c-0.1,3.9,0.2,7.8,0.2,7.8s-0.8-3.8-1.3-7.7
			c-0.5-3.9-0.8-7.8-0.8-7.8L127.7,176.6z"/>
	</g>
	<g id="XMLID_85_">
		<path id="XMLID_88_" d="M127,129.5l1.1,14.1c0,0-0.2,7-0.4,14.1c-0.2,7-0.2,14.1-0.2,14.1s-0.5-7-0.9-14.1
			c-0.4-7-0.7-14.1-0.7-14.1L127,129.5z"/>
	</g>
	<g id="XMLID_83_">
		<polygon id="XMLID_86_" points="115.5,159 117.4,172.4 117.9,199.4 115.2,172.6 		"/>
	</g>
	<g id="XMLID_81_">
		<path id="XMLID_84_" d="M112,166l1.1,11c0,0-0.2,5.5-0.5,11c-0.1,2.8-0.2,5.5-0.3,7.6c0,1,0,1.9,0,2.5c0,0.6,0,1,0,0.9
			c0,0-0.1-0.3-0.1-0.9c0-0.6-0.1-1.5-0.2-2.5c-0.1-2.1-0.3-4.8-0.5-7.6c-0.3-5.5-0.6-11-0.6-11L112,166z"/>
	</g>
	<g id="XMLID_79_">
		<polygon id="XMLID_82_" points="108.4,198.7 106.9,190.5 107.3,173.9 109.1,190.4 		"/>
	</g>
	<g id="XMLID_77_">
		<polygon id="XMLID_80_" points="100.3,194.9 98.8,185.6 98.9,166.9 100.9,185.5 		"/>
	</g>
	<g id="XMLID_75_">
		<polygon id="XMLID_78_" points="95.9,195.3 94,182.3 93.4,156 96.2,182.2 		"/>
	</g>
	<g id="XMLID_72_">
		<path id="XMLID_76_" d="M92.9,195.3l-3.3-20.6c0,0-0.9-10.4-1.8-20.8c-0.5-5.2-1-10.4-1.5-14.3c-0.4-3.9-0.9-6.5-1.1-6.4
			c0.1,0,0.8,2.5,1.4,6.4c0.7,3.9,1.5,9,2.2,14.2c1.5,10.3,2.9,20.7,2.9,20.7L92.9,195.3z"/>
	</g>
	<g id="XMLID_46_">
		<path id="XMLID_74_" d="M88.5,189.4L85,169.1c0,0-0.9-10.3-1.8-20.5c-0.8-10.3-1.5-20.6-1.1-20.6c-0.4,0,0.7,10.3,2.1,20.4
			c1.4,10.2,2.8,20.4,2.8,20.4L88.5,189.4z"/>
	</g>
	<g id="XMLID_41_">
		<path id="XMLID_48_" d="M84.7,180.9L80.5,161c0,0-1.3-10.1-2.5-20.1c-1.2-10.1-2.2-20.2-1.7-20.2c-0.6,0,1,10.1,2.7,20
			c1.7,10,3.6,20,3.6,20L84.7,180.9z"/>
	</g>
	<g id="XMLID_19_">
		<path id="XMLID_43_" d="M54.9,161c0,0,1.3,0.5,3.3,1.2c2,0.7,4.7,1.4,7.4,2.1c2.7,0.7,5.5,1.3,7.5,1.7c1.1,0.2,1.8,0.3,2.3,0.2
			c0.5,0,0.7-0.1,0.7-0.1c0.2-0.1,0.3-0.1,0.4-0.2l0,0l0,0l0,0l0,0c0,0,0-0.1,0,0.1l0,0l0,0l0.1-0.1l0.2-0.2
			c0.1-0.1,0.1-0.2,0.2-0.3c0.2-0.5,0.3-1.1,0.3-1.8c0-1.4-0.3-2.9-0.2-4.6l0,0.2l-4.3-35.7l5.9,35.4l0,0.1l0,0.1
			c-0.1,1.3,0.4,2.8,0.4,4.4c0,0.8,0,1.7-0.4,2.6c-0.1,0.2-0.2,0.5-0.3,0.7l-0.1,0.2l-0.1,0.1l0,0l-0.1,0.1l0,0l-0.1,0.1
			c-0.4,0.5-0.9,0.8-1.5,0.9c0,0-0.5,0.1-1.2,0.1c-0.7,0-1.7-0.2-2.7-0.5c-2.1-0.6-4.7-1.5-7.4-2.4c-2.7-0.9-5.3-2-7.2-2.8
			C56.1,161.6,54.9,161,54.9,161z"/>
	</g>
	<g id="XMLID_17_">
		<polygon id="XMLID_20_" points="57.1,154.9 63,155.8 73.9,160.8 62.3,157.8 		"/>
	</g>
	<path fill="#0A0A0A" d="M136.2,107.1c0,0,0.8,6.8,3.5,10c0,0,2,2.1,1.1,3.4c-0.9,1.3-6.3,9.7-9.1,11.9l-8,0.5l3.8,6.6
		c0,0-19.6,40.8-21.8,40.6c-2.1-0.2-0.9-8.6-0.9-8.6l19.1-48.8C123.9,122.8,135.2,107.4,136.2,107.1z"/>
	<path fill="#0A0A0A" d="M104.6,174.8l0.5,5.4c0,0-17.1-29.6-17.9-40.1l2.1-3.8h-3.5c0,0-4.9-6.3-4-10.2c1-3.9,3.8-6.9,5.5-7.8
		c1.6-0.9,1.6-1.6,1.6-1.6s4.2,15.3,5.3,18.8c0,0,2.9,11.7,5.6,15.4C102.5,154.6,106.1,174.8,104.6,174.8z"/>
	<g>
		<path id="XMLID_69_" fill="#6D6D6D" d="M122.8,172.5l-2.8,1.9c0,0,11.5,11.8,13.8,11.4l1.3-2.8C135.1,183,124.6,172.4,122.8,172.5
			z"/>
		<g id="XMLID_71_">
			<path id="XMLID_73_" d="M122.8,172.5l-2.6,2.1l0-0.4c2.6,2.2,5.2,4.4,7.9,6.5c0.9,0.9,1.9,1.8,2.9,2.6c0.5,0.4,1,0.8,1.5,1.1
				c0.3,0.2,0.5,0.3,0.7,0.5c0.1,0.1,0.2,0.1,0.3,0.1c0,0,0.1,0,0.1,0c0,0,0,0,0,0c0,0,0,0,0,0c0,0.1,0,0.1,0,0.2l-0.6,0.3l1.4-2.8
				l0.1,0.7c-1.8-2-3.7-3.9-5.6-5.8c-1-1-1.9-1.9-2.9-2.8c-0.5-0.4-1-0.9-1.5-1.3C124,173.1,123.4,172.6,122.8,172.5
				c0.7,0.1,1.3,0.5,1.8,0.9c0.6,0.4,1.1,0.8,1.7,1.2c1.1,0.8,2.1,1.7,3.2,2.6c2.1,1.8,4.1,3.6,6.1,5.4l0.3,0.3l-0.2,0.4l-1.2,2.9
				l-0.2,0.4l-0.4,0c-0.7,0.1-1-0.1-1.4-0.2c-0.4-0.1-0.7-0.3-1-0.5c-0.6-0.3-1.2-0.7-1.7-1.1c-1.1-0.8-2.1-1.6-3.2-2.4
				c-2.4-2.5-4.6-5.1-6.8-7.7l-0.2-0.3l0.3-0.1L122.8,172.5z"/>
		</g>
	</g>
	<g>
		<path id="XMLID_66_" fill="#6D6D6D" d="M88.2,182.2l2.3,1.6c0,0,4.7-6.3,4.8-8.4c0.2-2.1-2.5-1.5-2.5-1.5L88.2,182.2z"/>
		<g id="XMLID_68_">
			<path id="XMLID_70_" d="M88.2,182.2l2.5,1.3l-0.5,0.1c0.9-1.7,1.8-3.4,2.5-5.1c0.3-0.5,0.7-1,1-1.5c0.3-0.5,0.6-1,0.7-1.5l0-0.1
				l0,0l0,0l0,0l0,0c0,0,0-0.1,0,0.1l0,0l0-0.1l0-0.1c0-0.2,0-0.2,0-0.3c0-0.1,0-0.2-0.2-0.3c-0.3-0.2-0.9-0.2-1.4-0.2l0.4-0.3
				L88.2,182.2l4.1-8.5l0.1-0.2l0.3-0.1c0.7-0.2,1.4-0.3,2.3,0.1c0.4,0.2,0.8,0.6,1,1.1c0,0.1,0.1,0.3,0.1,0.4c0,0.2,0,0.2,0,0.3
				l0,0.1l0,0.1l0,0.1l0,0l0,0l0,0.3c-0.1,0.8-0.4,1.4-0.7,2c-0.3,0.6-0.6,1.2-0.8,1.8c-1.2,1.5-2.5,3-3.8,4.4l-0.3,0.3l-0.2-0.2
				L88.2,182.2z"/>
		</g>
	</g>
	<g>
		<path id="XMLID_63_" fill="#6D6D6D" d="M134.9,104.2c0,0,0.8,6.8,3.4,10c0,0,1.9,2.1,1,3.4c-0.9,1.3-6.1,9.7-8.9,11.8l-7.8,0.5
			l3.7,6.6c0,0-19.1,40.7-21.2,40.5c-2.1-0.2-0.9-8.6-0.9-8.6l18.6-48.6C122.9,119.9,133.9,104.5,134.9,104.2z"/>
		<g id="XMLID_65_">
			<path id="XMLID_67_" d="M134.9,104.2c0.3,1.8,0.7,3.5,1.2,5.2c0.6,1.7,1.2,3.3,2.3,4.7l0,0c0.5,0.6,1,1.2,1.3,2.1
				c0.1,0.4,0.2,0.9,0,1.3c-0.2,0.5-0.4,0.7-0.6,1c-0.8,1.3-1.7,2.6-2.5,3.9c-0.9,1.3-1.7,2.6-2.7,3.8c-0.9,1.3-1.9,2.5-3.1,3.6
				l-0.1,0.1l-0.2,0l-7.8,0.7l0.6-1l3.8,6.5l0.2,0.4l-0.2,0.4l-5.1,11.3c-3.1,6.3-6.3,12.7-9.7,18.9c-1.7,3.1-3.3,6.2-5.4,9.3
				c-0.1,0.2-0.3,0.4-0.4,0.6c-0.2,0.2-0.3,0.4-0.7,0.6c-0.1,0.1-0.1,0.1-0.4,0.2c-0.1,0-0.1,0-0.2,0l0,0c-0.1,0,0.1,0-0.1,0l0,0
				l-0.1,0l-0.1,0c-0.1,0-0.1,0-0.2-0.1c-0.1-0.1-0.3-0.1-0.3-0.2c-0.3-0.3-0.5-0.5-0.6-0.8c-0.4-1-0.4-2-0.5-2.9
				c0-1.8,0.2-3.6,0.4-5.4l0-0.1l0-0.1l19-48.4l0,0l0,0c1.9-2.6,3.9-5.3,5.9-7.9l3-3.9l1.5-1.9C133.7,105.4,134.2,104.7,134.9,104.2
				c-0.6,0.5-1.1,1.2-1.6,1.8l-1.5,2l-2.9,4c-1.9,2.7-3.8,5.3-5.7,8l0,0L105,168.7l0-0.1c-0.2,1.7-0.4,3.5-0.3,5.2
				c0,0.8,0.1,1.7,0.4,2.3c0.1,0.1,0.1,0.2,0.2,0.3c0,0,0,0,0,0c0,0,0,0,0,0l0.1,0l0.1,0l0,0l-0.1,0c0,0-0.1,0-0.1,0
				c-0.2,0-0.1,0-0.1,0c0,0,0.2-0.2,0.3-0.3c0.1-0.1,0.2-0.3,0.4-0.5c1.9-2.8,3.5-6,5.1-9.2c3.2-6.3,6.3-12.7,9.3-19l5.6-11.1l0,0.8
				l-3.6-6.7l-0.5-1l1.1-0.1l7.8-0.4l-0.3,0.1c1.1-0.9,2.1-2.1,3.1-3.3c1-1.2,1.9-2.5,2.8-3.7c0.9-1.3,1.8-2.5,2.6-3.8
				c0.2-0.3,0.5-0.7,0.6-0.9c0.1-0.3,0.1-0.6,0-1c-0.2-0.7-0.6-1.3-1.1-1.9l0,0c-1.1-1.5-1.7-3.2-2.2-4.9
				C135.4,107.8,135.1,106,134.9,104.2z"/>
		</g>
	</g>
	<g>
		<path id="XMLID_60_" fill="#6D6D6D" d="M104,171.7l0.5,5.4c0,0-17.1-29.6-17.9-40.1l2.1-3.8h-3.5c0,0-4.9-6.3-4-10.2
			c1-3.9,3.8-6.9,5.5-7.8c1.6-0.9,1.6-1.6,1.6-1.6s4.2,15.3,5.3,18.8c0,0,2.9,11.7,5.6,15.4C101.9,151.5,105.5,171.6,104,171.7z"/>
		<g id="XMLID_62_">
			<path id="XMLID_64_" d="M104,171.7l0.6,5.4l0.1,0.6l-0.3-0.5c-3.6-6-7-12-10.2-18.2c-1.6-3.1-3.2-6.2-4.6-9.4
				c-1.4-3.2-2.8-6.4-3.7-9.9c-0.2-0.8-0.3-1.7-0.4-2.6l0-0.3l0.2-0.3l2.1-3.7l0.9,1.5l-3.5,0l-0.5,0l-0.3-0.4
				c-1.2-1.6-2.2-3.3-3.1-5.2c-0.4-0.9-0.8-1.9-1-2.9c-0.1-0.5-0.2-1.1-0.1-1.6c0-0.3,0.1-0.6,0.1-0.9l0-0.2l0-0.1l0-0.1l0.1-0.3
				c0.6-2,1.7-3.8,3-5.3c0.7-0.8,1.4-1.5,2.3-2.1c0.5-0.3,0.9-0.5,1.2-0.8c0.2-0.1,0.3-0.3,0.4-0.4c0.1-0.1,0.1-0.1,0.1-0.2
				c0,0,0-0.1,0-0.1c0,0,0,0,0,0l0.2,0l0.1,0l0.1,0c0.4,0-0.5,0-0.4,0l0,0l1.3-0.2l3.9,14.6l1,3.7l0.9,3.7c0.7,2.4,1.4,4.8,2.2,7.2
				c0.4,1.2,0.9,2.3,1.4,3.5l0.4,0.8l0.5,0.8c0.4,0.5,0.6,1.1,0.9,1.7c0.9,2.4,1.5,4.9,2.1,7.3c0.5,2.5,1,5,1.4,7.5
				c0.2,1.3,0.3,2.5,0.5,3.8c0.1,0.6,0.1,1.3,0.1,1.9c0,0.3,0,0.6,0,0.9c0,0.2,0,0.3-0.1,0.5C104.2,171.4,104.2,171.6,104,171.7
				c0.2,0,0.2-0.2,0.2-0.4c0-0.2,0-0.3,0.1-0.5c0-0.3,0-0.6,0-0.9c0-0.6-0.1-1.3-0.2-1.9c-0.1-1.3-0.3-2.5-0.5-3.7
				c-0.4-2.5-0.9-5-1.5-7.4c-0.6-2.4-1.3-4.9-2.2-7.2c-0.2-0.6-0.5-1.1-0.9-1.6l-0.5-0.8l-0.5-0.8c-0.6-1.1-1.1-2.3-1.5-3.5
				c-0.9-2.4-1.7-4.8-2.4-7.2l-1-3.6l-1.1-3.6l-4.3-14.6l1.3-0.2c0,0.3,0,0.3-0.1,0.4c0,0.1-0.1,0.2-0.1,0.3
				c-0.1,0.2-0.2,0.3-0.3,0.4c-0.2,0.2-0.4,0.4-0.6,0.6c-0.5,0.4-0.9,0.6-1.2,0.8c-0.7,0.5-1.4,1.2-1.9,1.9
				c-1.2,1.4-2.1,3.1-2.6,4.8c-0.5,1.6,0.1,3.4,0.8,5c0.8,1.7,1.8,3.3,2.9,4.8l-0.7-0.4l3.5,0l1.7,0l-0.8,1.5l-2.1,3.8l0.1-0.6
				c0.1,0.8,0.2,1.5,0.4,2.3c0.7,3.3,1.9,6.5,3.1,9.7c1.3,3.2,2.7,6.4,4.1,9.5c2.9,6.3,6,12.5,9.4,18.6l-0.2,0.1L104,171.7z"/>
		</g>
	</g>
	<g>
		<path d="M74.5,156.2c0,0-0.6-8.2-6.3-14.4c-5.7-6.2-9.6-7.1-10.4-8.4c-0.5-0.9-23.9-23.4-37.3-36.2c-3.9-3.7-6.9-6.6-8.3-8
			c-0.3,0.4-0.6,0.8-1,1.1c3.5,3.6,11.3,12.7,11.3,12.7s-4.3,17.8-3,20.1c1.3,2.3,5.8,7,8,6.4c2.1-0.6,6-9,6.2-13.3l8.4,10.3
			l16.2,15.6c0,0-2.9,5.8-2.2,7.8c0.7,2,2.5,3.5,5.4,1.5c2.9-2,2.9-2,2.9-2l1,14.6l10.2,8.4L74.5,156.2z"/>
		<path d="M11.2,90.3c0,0-11.1-9.6-11.2-12.2c0,0,1.5-2.2,2.7-2.4c1.2-0.2,9.1,10.3,10,12c0.9,1.7,1.2,3,2,3.8L11.2,90.3z"/>
	</g>
	<ellipse transform="matrix(0.8566 0.5159 -0.5159 0.8566 77.1711 -4.0719)" cx="45.9" cy="136.8" rx="10.5" ry="17.7"/>
	<g>
		<path id="XMLID_57_" fill="#FFFFFF" d="M37,150.3c0,0,1.9,2,4.4,1.2c0,0,1.8-0.1,6.4-2.8c0,0,2.1-1.5,2.3-1.8
			c0.2-0.4,1.2-1.1,1.5-1.6c0.3-0.5-6,5.3-11.1,5.3C40.5,150.6,38,151.1,37,150.3z"/>
		<g id="XMLID_59_">
			<path id="XMLID_61_" fill="#FFFFFF" d="M37,150.3c1.2,1,3,1.4,4.3,0.7l0.1,0c0.8-0.2,1.8-0.7,2.7-1.2c0.9-0.5,1.7-1.1,2.6-1.7
				l0.7-0.3l-0.1,0c0.6-0.4,1.2-0.8,1.8-1.2c0.1-0.1,0.3-0.2,0.4-0.3c0.1-0.1,0,0,0.1-0.1c0.1-0.1,0.2-0.2,0.3-0.3
				c0.3-0.3,0.6-0.5,0.8-0.7c0.1-0.1,0.2-0.2,0.3-0.3l0,0l0,0l0,0c-0.4-0.4,0.6,0.5,0.5,0.4l0.1,0l0.1,0c0,0-0.1,0,0,0.1
				c0,0.1,0.1,0,0.2,0.1l0.1,0.3l0.1,0.1c0,0,0,0,0,0l0,0c0,0-0.1,0.1-0.2,0.1l-0.9,0.6c-0.6,0.4-1.2,0.8-1.9,1.2
				c-1.3,0.8-2.6,1.5-4,2c-1.4,0.5-2.9,0.9-4.4,0.9l0,0c-0.6,0.1-1.2,0.1-1.8,0.1C38.1,150.8,37.5,150.7,37,150.3
				c0.5,0.3,1.1,0.4,1.7,0.4c0.6,0,1.2-0.1,1.8-0.2l0,0l0,0c1.4-0.1,2.8-0.6,4.1-1.2c1.3-0.6,2.5-1.4,3.7-2.3
				c0.6-0.4,1.1-0.9,1.7-1.3l0.8-0.7c0.1-0.1,0.1-0.1,0.3-0.2l0.1,0l0,0c0,0,0.3-0.2,0.7,0c0.4,0.2,0.5,0.6,0.5,0.6l0,0l0,0
				c0-0.1-0.2,1-0.1,0.5l0,0l0,0c0,0.1-0.1,0.1-0.1,0.2c-0.1,0.2-0.3,0.4-0.4,0.5l-0.8,0.8c-0.1,0.1-0.1,0.1-0.1,0.1
				c0,0-0.2,0.3-0.3,0.3c-0.2,0.2-0.3,0.3-0.5,0.4c-0.6,0.5-1.2,1-1.8,1.4l-0.1,0l-0.7,0.4c-1,0.4-2,0.8-3,1.2c-1,0.3-2,0.7-3.2,0.7
				l0.1,0c-0.9,0.2-1.8,0.2-2.6-0.2C38.2,151.4,37.5,150.9,37,150.3z"/>
		</g>
	</g>
	<g>
		<path id="XMLID_54_" fill="#BFBFBF" d="M61.9,117.4c-11.5,1.9-16.3-4.6-16.3-4.6V103l11-2.2l6.5,5.5l1.1,7.6L61.9,117.4z"/>
		<g id="XMLID_56_">
			<path id="XMLID_58_" d="M61.9,117.4c-2.9,0.6-5.9,0.8-8.9,0.3c-1.5-0.3-3-0.8-4.3-1.5c-1.4-0.7-2.7-1.5-3.8-2.8l-0.2-0.2l0-0.4
				l-0.1-2l0.2-7.9l0-0.7l0.7-0.1l11-1.9l0.3,0l0.2,0.2l6.4,5.7l0.1,0.1l0,0.1l0.9,7.6l0,0l0,0L61.9,117.4l2.2-3.7l0,0.1l-1.3-7.5
				l0.1,0.2l-6.7-5.3l0.5,0.1l-10.9,2.5l0.7-0.8l0.2,7.9l-0.1,2l-0.2-0.6c0.7,1,1.8,2,3,2.7c1.2,0.8,2.5,1.4,3.9,1.8
				C56,117.6,59,117.8,61.9,117.4z"/>
		</g>
	</g>
	<g>
		<path id="XMLID_51_" fill="#FFFFFF" d="M91.9,109.1c0,4.4,16.6,6.5,16.6,6.5c3.2,0.8,25.9-12.9,25.9-12.9l-1-22.4
			c2.1-7.7,0.3-28.1,0.3-28.1c2.3-13.9-2.2-27.9-2.6-28.5c-0.4-0.7-0.1-2.9-0.1-2.9c0.3-15-14.8-19.1-14.8-19.1
			c4.9,2.3,2.4,15.3,2.4,15.3c-13.4-3.8-12.7-1.7-18.3-3.1c-5.6-1.4-14.7,1.4-24.2,0c-9.5-1.4-8.1,3.9-16.6,1.5
			C50.9,13.1,60,1.3,60,1.3s-9.4,2.6-10.6,6.8c-1.3,4.2-1.6,6.8-2.3,8.4c-0.6,1.6-16.4,19.7-17.4,27.7c-1,8.1-2.3,9,3.5,29
			c0,0-0.6,23.5-2.3,25.5c-1.6,1.9,7.7,27.7,23.9,6.1c0,0-3.2,17.1,24.8,14.8c0,0,7.4-2.5,11.7-10.2c1.4-2.6,2.5-5.7,2.8-9.5"/>
		<g id="XMLID_53_">
			<path id="XMLID_55_" d="M91.9,109.1c0,0.8,0.5,1.5,1.1,1.9c0.6,0.5,1.3,0.9,2,1.2c1.4,0.6,2.9,1.1,4.4,1.5c3,0.8,6,1.4,9.1,1.8
				l0,0c0.5,0.1,1.1-0.1,1.7-0.3c0.6-0.2,1.1-0.4,1.7-0.6c1.1-0.5,2.2-1,3.3-1.5c2.2-1.1,4.3-2.2,6.4-3.4c4.2-2.3,8.4-4.8,12.5-7.3
				l-0.2,0.3l-1.2-22.4l0-0.1l0-0.1c0.5-2.2,0.7-4.5,0.8-6.9c0.1-2.3,0.1-4.7,0.1-7c-0.1-4.7-0.4-9.4-0.8-14l0-0.1l0-0.1
				c0.4-2.6,0.6-5.2,0.6-7.8c0-2.6-0.2-5.2-0.5-7.8c-0.3-2.6-0.8-5.2-1.4-7.7c-0.3-1.3-0.7-2.5-1.1-3.8c0-0.2-0.1-0.3-0.2-0.4
				l-0.1-0.3c-0.1-0.2-0.1-0.1-0.2-0.3l-0.1-0.2l0-0.2c0-0.2-0.1-0.4-0.1-0.6c0-0.8,0-1.4,0.1-2.2l0,0.1c0.1-3.4-0.8-6.8-2.7-9.7
				c-1.8-2.9-4.5-5.1-7.5-6.7c-1.3-0.7-2.6-1.3-4-1.7l0.7-2c0.8,0.4,1.5,1,1.9,1.7c0.5,0.7,0.8,1.4,1,2.1c0.4,1.4,0.6,2.9,0.7,4.3
				c0.1,2.8-0.2,5.6-0.7,8.4l-0.2,1.1l-1-0.3c-3.1-0.9-6.1-1.7-9.2-2.2c-1.6-0.2-3.1-0.3-4.7-0.4c-0.8,0-1.7-0.1-2.5-0.3
				c-0.4-0.1-0.8-0.2-1.2-0.3l-0.6-0.1l-0.5-0.1c-0.4-0.1-0.8-0.1-1.1-0.2c-0.3-0.1-0.7-0.1-1.1-0.1c-0.8,0-1.5,0-2.3,0
				c-1.6,0-3.2,0.2-4.8,0.3c-3.2,0.3-6.4,0.5-9.7,0.4c-3.3,0-6.5-1-9.4-0.5c-1.5,0.2-2.8,0.9-4.4,1.5c-1.6,0.7-3.5,0.7-5.1,0.5
				c-1.6-0.3-3.3-0.5-4.9-1.8c-0.7-0.6-1.3-1.5-1.5-2.4c-0.2-0.9-0.2-1.8-0.1-2.7C55.4,8.1,56,6.5,56.8,5c0.8-1.5,1.6-2.8,2.6-4.2
				L60.2,2c-1.6,0.5-3.3,1.1-4.8,1.8c-1.5,0.7-3.1,1.6-4.2,2.7c-0.6,0.6-1,1.2-1.2,1.9c-0.3,0.8-0.5,1.7-0.7,2.5
				c-0.5,1.7-0.8,3.4-1.3,5.1l-0.1,0.3l-0.1,0.2l0,0.1l0,0c-0.1,0.1,0,0,0,0.1l0,0c-0.1,0.2-0.2,0.4-0.4,0.6
				c-0.3,0.4-0.6,0.8-0.8,1.1l-1.6,2.1l-3.2,4.2c-2.1,2.8-4.2,5.6-6.1,8.5c-1.9,2.9-3.7,5.9-4.9,9.1c-0.5,1.6-0.6,3.4-0.9,5.1
				c-0.2,1.7-0.4,3.4-0.4,5.2c0.1,3.4,0.8,6.9,1.6,10.3c0.8,3.4,1.7,6.8,2.7,10.2l0,0.1l0,0.1c-0.2,5.1-0.4,10.3-0.8,15.4
				c-0.2,2.6-0.4,5.1-0.8,7.7c-0.1,0.6-0.2,1.3-0.5,1.9c-0.1,0.2-0.1,0.3-0.2,0.5l-0.1,0.1c0,0.1,0-0.1,0,0l0,0l0,0l0,0.1
				c0,0.1-0.1,0.2-0.1,0.2c0,0.2,0,0.5,0,0.8c0.1,1.2,0.5,2.4,1,3.6c0.9,2.4,2.2,4.6,4,6.4c1.7,1.8,4,3.2,6.6,3.1
				c2.5,0,4.9-1.3,6.8-2.9c2-1.6,3.7-3.5,5.2-5.6l0.5-0.6l-0.1,0.8c-0.4,2.7,0.2,5.6,1.7,7.9c1.5,2.4,3.9,4,6.4,5.1
				c2.6,1.1,5.4,1.6,8.1,1.8c2.8,0.2,5.6,0.2,8.4,0l0,0c4-1.6,7.5-4.3,10.1-7.7c2.6-3.4,4.1-7.6,4.4-11.9c-0.3,4.3-1.8,8.5-4.4,12
				c-1.3,1.7-2.8,3.3-4.5,4.6c-1.7,1.3-3.6,2.4-5.6,3.2l0,0l0,0c-2.8,0.2-5.6,0.3-8.4,0.1c-2.8-0.2-5.6-0.7-8.2-1.7
				c-2.6-1-5.1-2.7-6.6-5.1c-1.5-2.4-2.2-5.3-1.8-8.2L55,105c-1.6,2.1-3.2,4-5.3,5.7c-2,1.6-4.4,3-7.1,3c-1.3,0-2.7-0.3-3.8-0.9
				c-1.2-0.6-2.2-1.4-3.1-2.4c-1.8-1.9-3.2-4.2-4.1-6.6c-0.5-1.2-0.9-2.5-1-3.8c0-0.3-0.1-0.6,0-1.1c0-0.1,0.1-0.2,0.1-0.2l0-0.1
				l0,0l0,0l0-0.1l0-0.1c0.1-0.1,0.1-0.2,0.2-0.4c0.2-0.6,0.3-1.2,0.4-1.8c0.4-2.5,0.6-5.1,0.8-7.6c0.3-5.1,0.6-10.3,0.7-15.4l0,0.1
				c-1-3.4-1.9-6.8-2.8-10.2c-0.8-3.4-1.6-6.9-1.7-10.5c0-1.8,0.2-3.6,0.4-5.3c0.3-1.7,0.4-3.5,0.9-5.3c1.2-3.4,3-6.5,4.9-9.5
				c1.9-3,4-5.8,6.1-8.6l3.2-4.2l1.6-2.1l0.7-1c0.1-0.2,0.2-0.4,0.3-0.5l0.1-0.2l0.1-0.3c0.5-1.6,0.8-3.4,1.3-5.1
				c0.2-0.9,0.5-1.7,0.7-2.6c0.3-0.9,0.9-1.8,1.5-2.5c1.4-1.3,3-2.2,4.6-3c1.6-0.8,3.3-1.4,5-1.9L61.9,0l-1.3,1.7
				c-0.9,1.2-1.8,2.6-2.5,4c-0.7,1.4-1.3,2.8-1.5,4.3c-0.2,1.5,0.1,2.9,1.1,3.7c0.2,0.2,0.5,0.4,0.8,0.5c0.2,0.1,0.3,0.1,0.5,0.2
				l0.6,0.2c0.7,0.2,1.5,0.4,2.2,0.5c1.5,0.2,2.9,0.2,4.3-0.4c1.4-0.5,2.9-1.4,4.7-1.7c0.9-0.1,1.7-0.2,2.5-0.2c0.4,0,0.9,0,1.3,0
				l1.2,0.1c0.9,0.1,1.6,0.2,2.4,0.3c0.8,0.1,1.6,0.1,2.4,0.1c3.1,0.1,6.3-0.2,9.5-0.5c1.6-0.1,3.2-0.3,4.8-0.3c0.8,0,1.6,0,2.5,0
				c0.4,0,0.8,0,1.3,0.1c0.4,0,0.9,0.1,1.3,0.2l0.6,0.1l0.6,0.1c0.4,0.1,0.7,0.2,1.1,0.2c0.7,0.1,1.5,0.2,2.3,0.2
				c1.6,0,3.3,0.1,4.9,0.4c3.2,0.5,6.4,1.3,9.5,2.2l-1.2,0.8c0.5-2.6,0.7-5.3,0.6-7.9c-0.1-1.3-0.2-2.6-0.6-3.8
				c-0.4-1.2-1-2.2-1.8-2.5l0.7-2c1.6,0.5,3,1.1,4.4,1.9c3.2,1.8,6.2,4.3,8.2,7.5c2,3.2,3,7,2.8,10.8l0,0.1l0,0
				c-0.1,0.6-0.1,1.3-0.1,1.8c0,0.1,0,0.3,0,0.4l0,0.1l0,0c0-0.1,0.1,0.2,0,0.1l0.2,0.3l0.1,0.3c0.1,0.2,0.1,0.3,0.2,0.5
				c0.4,1.3,0.7,2.6,1,3.9c0.6,2.6,1,5.3,1.3,7.9c0.3,2.7,0.5,5.4,0.4,8c0,2.7-0.3,5.4-0.7,8l0-0.2c0.3,4.7,0.6,9.4,0.6,14.1
				c0,2.4,0,4.7-0.2,7.1c-0.1,2.4-0.3,4.7-1,7.1l0-0.2l0.9,22.4l0,0.2l-0.2,0.1c-4.2,2.5-8.4,4.9-12.7,7.1c-2.1,1.1-4.3,2.3-6.5,3.3
				c-1.1,0.5-2.2,1-3.3,1.5c-0.6,0.2-1.1,0.4-1.7,0.6c-0.6,0.2-1.2,0.3-1.9,0.2l0,0c-3.1-0.4-6.1-1-9.1-1.9c-1.5-0.4-3-0.9-4.4-1.6
				c-0.7-0.3-1.4-0.7-2-1.2C92.5,110.6,92,109.9,91.9,109.1z"/>
		</g>
	</g>
	<g id="nariz_2_">
		<path id="XMLID_49_" d="M54.9,104.7c0,0,11.8-8.7,11.8-15.7c0,0-0.6-2.7-5.3-2.6c-4.7,0.1-9.9-0.9-11.2-1.1
			c-1.2-0.3-3.9,0.2-3.9,1C46.3,87.1,46.8,92.6,54.9,104.7z"/>
		<g id="XMLID_50_">
			<path id="XMLID_52_" fill="#000100" d="M54.9,104.7c2.6-2.2,4.9-4.6,7-7.2c1-1.3,2-2.7,2.7-4.1c0.7-1.4,1.2-3,1.1-4.4l0,0.2
				c0,0-0.1-0.2-0.2-0.3c0,0,0-0.1-0.2-0.3c-0.1-0.2-0.4-0.4-0.7-0.6c-0.4-0.2-0.9-0.5-1.6-0.6c-0.7-0.1-1.5-0.2-2.5-0.2
				c-2-0.1-4.3-0.3-6.7-0.7c-1.2-0.2-2.5-0.4-3.7-0.7c-0.5-0.1-1.1-0.1-1.7,0c-0.6,0.1-1.2,0.3-1.5,0.5c0,0,0,0-0.1,0c0,0,0,0,0,0
				l0,0c0.1,0-0.2,0,0.1,0l0,0l0,0.1c0,0.2,0,0.3,0,0.4c0,0.3,0.1,0.6,0.1,0.9c0.1,0.6,0.3,1.2,0.4,1.8c0.4,1.2,0.8,2.4,1.3,3.5
				c0.9,2.2,2,4.3,2.9,6c0.9,1.7,1.8,3.1,2.4,4.1C54.6,104.1,54.9,104.7,54.9,104.7c0,0-0.4-0.5-1-1.5c-0.6-0.9-1.6-2.3-2.6-4
				c-1-1.7-2.2-3.6-3.2-5.9c-0.5-1.1-1-2.3-1.5-3.5c-0.2-0.6-0.4-1.2-0.6-1.9c-0.1-0.3-0.1-0.7-0.2-1c0-0.2,0-0.4,0-0.6l0-0.1
				c0-0.1,0-0.2,0.1-0.3c0.1-0.2,0.2-0.3,0.2-0.4c0.4-0.4,0.7-0.5,1.1-0.6c0.3-0.1,0.7-0.2,1-0.3c0.7-0.1,1.4-0.2,2.1-0.1
				c1.3,0.2,2.5,0.4,3.7,0.5c2.4,0.3,4.7,0.4,6.6,0.3c0.9,0,1.9-0.1,2.8,0.1c0.9,0.1,1.7,0.4,2.3,0.7c0.6,0.3,1,0.7,1.3,1
				c0.3,0.3,0.4,0.5,0.4,0.5c0.2,0.3,0.3,0.5,0.4,1l0,0.1l0,0.1c-0.1,2-0.9,3.6-1.9,5.1c-0.9,1.5-2,2.8-3.2,4
				C60.3,100.6,57.7,102.8,54.9,104.7z"/>
		</g>
	</g>
	<g id="XMLID_15_">
		<path id="XMLID_18_" d="M98.7,44.2c0,0,1.7-1,3.4-2.1c1.7-1.1,3.3-2.1,3.3-2.1s3.6-1.4,7.2-3c1.8-0.8,3.5-1.7,4.8-2.4
			c0.6-0.4,1.1-0.7,1.5-1c0.3-0.3,0.5-0.4,0.5-0.4s-0.2,0.2-0.5,0.5c-0.3,0.3-0.8,0.7-1.3,1.2c-1.2,0.9-2.8,2-4.4,3.1
			c-3.3,2.1-6.8,4-6.8,4s-1.9,0.6-3.8,1.2C100.6,43.7,98.7,44.2,98.7,44.2z"/>
	</g>
	<g>
		<path id="XMLID_44_" fill="#FFFFFF" d="M48.3,86.6c0,0-0.9,2.4,1.3,3.4c2.2,0.9,7.2-2.1,10.4-1.7c0,0,2.3-0.1,0.6-0.4
			c-1.7-0.3-2.3-0.8-5.1-0.9c-2.7-0.2-5.1-0.4-5.1-0.4S48.2,86.3,48.3,86.6z"/>
		<g id="XMLID_45_">
			<path id="XMLID_47_" fill="#FFFFFF" d="M48.3,86.6c0,0,0,0.1-0.1,0.4c0,0.3,0,0.6,0.1,1.1c0.1,0.4,0.3,0.9,0.7,1.1
				c0.4,0.3,1,0.5,1.4,0.4c1-0.1,2.1-0.6,3-0.9c0.8-0.4,1.4-0.6,1.4-0.6c1.7-0.4,3.4-0.9,5.3-0.6l-0.1,0c0.3,0,0.6,0,0.8,0l0.1,0
				l0,0l0,0l0.1,0.2c0.1,0.3,0.2,0.5,0.2,0.4c0,0-0.2,0.2-0.3,0.4c0,0-0.1,0.2-0.1,0.2l0,0c0,0,0,0,0,0l-0.1,0l-0.2-0.1
				c-0.6-0.1-1.2-0.3-1.8-0.5c-1.1-0.4-2.2-0.6-3.4-0.7l-3.6-0.5c-0.6-0.1-1.2-0.1-1.8-0.2c-0.3,0-0.6-0.1-0.9-0.1
				c-0.1,0-0.3,0-0.4,0C48.5,86.5,48.3,86.5,48.3,86.6c0.1-0.1,0.3-0.1,0.4-0.1c0.2,0,0.3,0,0.5,0c0.3,0,0.6,0,0.9,0
				c0.6,0,1.2,0,1.8,0l3.6,0.1c1.2,0,2.5,0.1,3.7,0.4c0.6,0.1,1.1,0.2,1.7,0.3c0.2,0,0.3,0,0.6,0.1c0,0,0.1,0,0.2,0.1l0.1,0
				c0,0,0.1,0.1,0.1,0.1c0,0.1,0.1,0.1,0.1,0.2c0,0.1,0.1,0.2,0.1,0.4c0,0.2-0.1,0.4-0.2,0.5c0,0.1-0.1,0.1-0.2,0.1
				c-0.1,0-0.1,0.1-0.2,0.1c-0.2,0.1-0.2,0.1-0.3,0.1c-0.4,0.1-0.7,0.1-1,0.1l-0.1,0c-1.4-0.1-3,0.5-4.5,1.1c0,0-0.6,0.1-1.5,0.3
				c-0.9,0.1-2.1,0.4-3.6,0.2c-0.7-0.1-1.3-0.5-1.8-1c-0.4-0.5-0.6-1.1-0.6-1.6c0-0.5,0.1-0.9,0.2-1.1
				C48.2,86.7,48.3,86.6,48.3,86.6z"/>
		</g>
	</g>
	<g id="XMLID_14_">
		<path id="XMLID_16_" d="M40.2,36.5l5.3,1c0,0,2.3,1.3,4.6,2.6c1.2,0.7,2.3,1.3,3.1,1.9c0.4,0.3,0.8,0.5,1,0.7
			c0.2,0.2,0.3,0.3,0.3,0.3c0.1-0.1-2.4-1.1-4.9-1.9c-2.5-0.8-5-1.6-5-1.6L40.2,36.5z"/>
	</g>
	<g>
		<circle id="XMLID_38_" cx="40.7" cy="50.7" r="4.9"/>
		<g id="XMLID_40_">
			<path id="XMLID_42_" fill="#FFFFFF" d="M45.6,50.7c0,0,0,0.2,0,0.4c0,0.3,0,0.7-0.1,1.2c-0.2,1-0.9,2.3-2.1,3.1
				c-1.2,0.9-2.8,1.1-3.9,1c-1.1-0.1-1.9-0.5-1.9-0.5s-0.3-0.2-0.8-0.7c-0.5-0.5-1.1-1.2-1.5-2.3c-0.2-0.5-0.3-1.1-0.3-1.8
				c0-0.2,0-0.3,0-0.5c0-0.1,0-0.3,0-0.4c0.1-0.3,0.1-0.7,0.2-1c0.4-1.3,1.4-2.5,2.7-3.2c1.3-0.7,2.8-0.8,4-0.4
				c1.2,0.4,2.2,1.2,2.8,2c0.6,0.8,0.8,1.6,0.9,2.2c0,0.3,0,0.5,0,0.7C45.6,50.7,45.6,50.7,45.6,50.7s0-0.1,0-0.2
				c0-0.2,0-0.4-0.1-0.6c-0.1-0.5-0.4-1.3-1-2c-0.6-0.7-1.5-1.3-2.7-1.5c-1.1-0.2-2.4,0-3.3,0.6c-1,0.6-1.6,1.6-1.8,2.6
				c-0.1,0.3-0.1,0.5-0.1,0.7c0,0.1,0,0.3,0,0.4l0,0.3c0.1,0.5,0.2,0.9,0.4,1.2c0.4,0.7,0.8,1.2,1.2,1.4c0.4,0.3,0.6,0.4,0.6,0.4
				s0.4,0.3,1.1,0.6c0.8,0.3,1.9,0.3,3-0.1c1.1-0.4,1.9-1.4,2.3-2.3c0.2-0.4,0.3-0.8,0.4-1.1C45.6,50.9,45.6,50.7,45.6,50.7z"/>
		</g>
	</g>
	<g>
		<circle id="XMLID_35_" fill="#FFFFFF" cx="38.6" cy="48.8" r="1.5"/>
		<g id="XMLID_37_">
			<path id="XMLID_39_" fill="#FFFFFF" d="M40.2,48.8c0,0,0.1,0.2,0.1,0.5c0,0.3-0.2,0.9-0.6,1.2c-0.4,0.4-1,0.6-1.5,0.6
				c-0.5,0-0.8-0.1-0.8-0.1s-0.1-0.1-0.4-0.3c-0.2-0.2-0.5-0.6-0.6-1c-0.1-0.2-0.1-0.5-0.1-0.8l0-0.2l0-0.1c0-0.1,0.1-0.3,0.1-0.4
				c0.2-0.5,0.6-1,1.1-1.2c0.5-0.2,1.1-0.2,1.5,0c0.4,0.2,0.7,0.5,0.9,0.8C40.3,48.4,40.1,48.8,40.2,48.8c0,0,0-0.1-0.1-0.3
				c-0.1-0.2-0.2-0.4-0.4-0.6c-0.4-0.4-1.2-0.4-1.6,0c-0.4,0.4-0.3,0.9-0.1,1.1c0.2,0.2,0.4,0.2,0.4,0.2c0,0,0,0.1,0.1,0.2
				c0.1,0.1,0.3,0.3,0.6,0.2c0.3,0,0.6-0.2,0.8-0.4C40.1,49,40.2,48.8,40.2,48.8z"/>
		</g>
	</g>
	<g>
		<circle id="XMLID_32_" cx="117" cy="52.6" r="5.2"/>
		<g id="XMLID_34_">
			<path id="XMLID_36_" fill="#FFFFFF" d="M122.2,52.6c0,0,0,0.2,0,0.5c0,0.3,0,0.7-0.1,1.3c-0.2,1-1,2.4-2.2,3.2
				c-1.2,0.9-2.9,1.2-4,1c-1.2-0.2-1.9-0.6-1.9-0.6s-0.4-0.2-0.9-0.7c-0.5-0.5-1.2-1.3-1.6-2.4c-0.2-0.6-0.3-1.2-0.4-1.9
				c0-0.2,0-0.3,0-0.5c0-0.1,0-0.3,0-0.5c0.1-0.4,0.1-0.7,0.3-1.1c0.5-1.4,1.5-2.6,2.8-3.3c1.3-0.7,2.9-0.8,4.2-0.4
				c1.3,0.4,2.3,1.2,2.9,2.1c0.6,0.9,0.8,1.7,0.9,2.3c0,0.3,0,0.5,0,0.7C122.2,52.5,122.2,52.6,122.2,52.6s0-0.1,0-0.2
				c0-0.2,0-0.4-0.1-0.7c-0.1-0.6-0.4-1.4-1.1-2.1c-0.6-0.8-1.6-1.4-2.8-1.6c-1.2-0.2-2.5,0-3.5,0.7c-1,0.7-1.7,1.7-2,2.8
				c-0.1,0.3-0.1,0.5-0.1,0.8c0,0.2,0,0.3,0,0.5l0,0.3c0.1,0.5,0.2,0.9,0.4,1.3c0.4,0.8,0.9,1.3,1.3,1.5c0.4,0.3,0.6,0.4,0.6,0.4
				s0.4,0.4,1.2,0.6c0.8,0.3,2,0.3,3.2-0.2c1.1-0.5,2-1.5,2.4-2.4c0.2-0.5,0.3-0.9,0.4-1.1C122.2,52.8,122.2,52.6,122.2,52.6z"/>
		</g>
	</g>
	<g>
		<circle id="XMLID_29_" fill="#FFFFFF" cx="114.8" cy="50.5" r="1.6"/>
		<g id="XMLID_31_">
			<path id="XMLID_33_" fill="#FFFFFF" d="M116.5,50.5c0,0,0.1,0.2,0.1,0.6c0,0.4-0.2,0.9-0.6,1.3c-0.4,0.4-1.1,0.6-1.6,0.6
				c-0.5,0-0.9-0.1-0.9-0.1s-0.2-0.1-0.4-0.3c-0.2-0.2-0.5-0.6-0.6-1c-0.1-0.2-0.1-0.5-0.1-0.8l0-0.2l0-0.1c0-0.2,0.1-0.3,0.1-0.4
				c0.2-0.5,0.7-1,1.2-1.2c0.5-0.2,1.1-0.2,1.5,0c0.5,0.2,0.8,0.5,0.9,0.8C116.6,50.1,116.4,50.6,116.5,50.5c0,0,0-0.1-0.1-0.3
				c-0.1-0.2-0.2-0.4-0.4-0.6c-0.4-0.4-1.3-0.5-1.7-0.1c-0.5,0.4-0.3,1-0.1,1.2c0.2,0.2,0.4,0.2,0.4,0.2c0,0,0,0.1,0.1,0.2
				c0.1,0.1,0.4,0.3,0.7,0.2c0.3,0,0.7-0.2,0.8-0.5C116.4,50.8,116.5,50.5,116.5,50.5z"/>
		</g>
	</g>
	<g>
		<path id="XMLID_26_" fill="#BFBFBF" d="M119,100.8c3.5-1.7,5.7-4.8,7-8.4c1.4-3.8,1.8-7.7,2.4-11.8c0.2-1.5,0.5-2.9,0.7-4.4
			l-0.7-10.8c-0.3,28.3-14.9,34.7-18.6,35.9C112.9,102,116.2,102.2,119,100.8z"/>
		<g id="XMLID_28_">
			<path id="XMLID_30_" fill="#FFFFFF" d="M119,100.8c2.1-1.1,3.7-2.7,4.9-4.7c1.2-1.9,1.9-4.1,2.4-6.3c0.5-2.2,0.8-4.5,1-6.8
				c0.2-2.3,0.5-4.6,0.8-6.9l0,0.2l-0.3-2.6l-0.4-8.2l1.8-0.1c-0.2,7.2-1.4,14.5-4.3,21.2c-1.5,3.3-3.5,6.4-6,9
				c-2.6,2.6-5.6,4.7-9.1,5.8l0-0.3C112.8,101.9,116.1,102.1,119,100.8c-2.8,1.4-6.2,1.3-9.2,0.7l-0.6-0.1l0.6-0.2
				c3.3-1.2,6.3-3.4,8.7-6c2.4-2.6,4.2-5.7,5.5-9c2.6-6.6,3.5-13.7,3.5-20.8l1.8-0.1l0.7,8.2l0.1,2.6l0,0.1l0,0.1
				c-0.4,2.3-0.9,4.5-1.3,6.8c-0.4,2.3-0.8,4.6-1.5,6.8c-0.7,2.3-1.6,4.4-2.9,6.4C123,98.3,121.1,99.9,119,100.8z"/>
		</g>
	</g>
	<g>
		<path id="XMLID_23_" fill="#FFFFFF" d="M128.4,65.5C128,97.7,109,101.6,109,101.6"/>
		<g id="XMLID_25_">
			<path id="XMLID_27_" d="M128.4,65.5c0,0,0,0.9,0.1,2.3c0,1.4,0.2,3.2,0,5c-0.1,1.8-0.2,3.7-0.4,5.1c-0.2,1.4-0.3,2.3-0.3,2.3
				s0,0.1-0.1,0.3c-0.1,0.2-0.1,0.5-0.3,0.9c-0.3,0.8-0.7,1.9-1.1,3.2c-0.2,0.7-0.6,1.3-0.9,2.1c-0.4,0.7-0.7,1.5-1.1,2.3
				c-0.5,0.7-0.9,1.5-1.4,2.3c-0.5,0.8-1.1,1.5-1.7,2.2c-2.3,2.9-5.3,5.3-7.8,6.5c-2.5,1.3-4.3,1.6-4.3,1.6s1.8-0.5,4.1-1.9
				c2.3-1.4,5-3.9,7.1-6.8c0.5-0.8,1-1.5,1.4-2.3c0.4-0.8,0.8-1.6,1.2-2.3c0.4-0.7,0.6-1.5,0.9-2.2c0.3-0.7,0.6-1.4,0.7-2
				c0.4-1.3,0.7-2.4,0.9-3.1c0.1-0.4,0.2-0.7,0.2-0.9c0-0.2,0.1-0.3,0.1-0.3s0.3-0.9,0.6-2.2c0.5-1.3,0.7-3.1,1.1-4.8
				c0.4-1.8,0.5-3.6,0.7-5C128.3,66.4,128.4,65.5,128.4,65.5z"/>
		</g>
	</g>
	<g>
		<path id="XMLID_21_" d="M52.6,107.6c0,0,1.7-4,2-6.8c0.3-2.7,0.8-2.9,1.4-0.2c0,0-1.8,6.6-1.1,7.5c0.7,1-0.6-2.7-0.6-2.7
			L52.6,107.6z"/>
		<g id="XMLID_22_">
			<path id="XMLID_24_" fill="#000100" d="M52.6,107.6c0,0,0.6-2,0.9-4.1c0.2-1,0.3-2,0.2-2.7c0-0.4,0-0.7,0-1c0-0.3,0-0.4,0-0.4
				c0-0.2,0.1-0.3,0.1-0.5c0.1-0.2,0.1-0.3,0.3-0.7c0.1-0.1,0.1-0.1,0.3-0.3c0.2-0.1,0.4-0.2,0.7-0.3c0.1,0,0.3,0,0.4,0.1
				c0.1,0,0.1,0,0.2,0.1l0.1,0.1c0.1,0.1,0.2,0.2,0.3,0.3c0.1,0.1,0.2,0.2,0.2,0.3l0.1,0.3c0.2,0.6,0.3,1.2,0.4,1.7l0,0.3l-0.1,0.2
				c-0.6,1.7-1.1,3.4-1.5,5.1c-0.1,0.4-0.2,0.9-0.2,1.3c0,0.2,0,0.4,0,0.6c0,0,0,0.1,0.1,0.2c0.1,0-0.1,0.1-0.2,0.2c0,0,0,0.1,0,0
				c0,0-0.1-0.1-0.1,0c-0.2,0-0.2,0-0.2,0c0,0,0,0,0-0.1c-0.1-0.8-0.4-1.7-0.6-2.6l0.3,0.1L52.6,107.6l1.6-2.2l0.2-0.2l0.1,0.3
				c0.3,0.9,0.7,1.7,0.9,2.6c0,0.1,0,0.1,0,0.3c0,0,0,0.1,0,0.1c0,0,0,0.1-0.1,0.1c-0.2,0.1-0.3,0.1-0.4,0.1
				c-0.1-0.1-0.2-0.1-0.2-0.1c-0.1-0.1-0.2-0.3-0.3-0.4c-0.1-0.3-0.1-0.5-0.1-0.8c0-0.5,0-1,0-1.4c0.2-1.9,0.5-3.7,0.8-5.5l0,0.4
				c-0.1-0.5-0.3-1-0.5-1.3l-0.1-0.1c0,0,0,0,0,0c0,0.1,0.1,0.1,0.1,0.1l0,0c0,0,0.1,0,0.1,0.1c0.1,0,0.2,0.1,0.3,0
				c0.2,0,0.4-0.1,0.5-0.2c0.1-0.1,0.1-0.1,0.1-0.1c0.1-0.1,0,0,0,0.1c0,0.1,0,0.2,0,0.3c0,0,0,0.1-0.1,0.3
				c-0.1,0.2-0.1,0.5-0.2,0.9c-0.2,0.8-0.6,1.9-1,2.9C53.7,105.7,52.6,107.6,52.6,107.6z"/>
		</g>
	</g>
</g>
</svg>
