<?xml version="1.0" encoding="utf-8"?>
<!-- Generator: Adobe Illustrator 19.0.0, SVG Export Plug-In . SVG Version: 6.00 Build 0)  -->
<svg version="1.2" baseProfile="tiny" id="Capa_1" xmlns="http://www.w3.org/2000/svg" xmlns:xlink="http://www.w3.org/1999/xlink"
	 x="0px" y="0px" viewBox="0 0 149.4 196.6" xml:space="preserve">
<g id="XMLID_2_">
	<g id="XMLID_4020_">
		<path id="XMLID_56_" d="M19.3,41.5c0.9,1.5,1.6,3.1,2.2,4.7c0.6,1.6,1.1,3.3,1.5,5c0.8,3.4,1.2,6.8,1.3,10.3
			c0.3,6.9-0.5,13.9-2,20.7l0-0.1c0.2,1.8,0.6,3.6,1.2,5.3c0.6,1.7,1.4,3.4,2.3,5c1.9,3.1,4.3,5.9,7.1,8.3
			c5.6,4.8,12.3,8.1,19.3,10.2c7,2.1,14.4,3.1,21.7,3c7.3-0.1,14.6-1.3,21.6-3.7c11.2-3.6,21.3-10.6,28.4-20
			c1.8-2.4,3.4-4.8,4.8-7.4c1.4-2.6,2.7-5.3,3.7-8c2.1-5.5,3.5-11.3,4.4-17.1l0,0.1l0-0.9l0-1l1,0.3l3,0.9l-0.9,0.4
			c1.9-4.2,3.5-8.5,4.8-12.8c1.3-4.4,2.4-8.8,2.8-13.4c0.2-2.3,0.1-4.5-0.3-6.7c-0.5-2.2-1.4-4.2-3.1-5.6c-1.7-1.3-3.9-1.9-6.1-1.9
			c-2.2,0-4.5,0.4-6.7,1l-0.2,0l-0.1,0c-0.4-0.1-0.5-0.3-0.7-0.4c-0.1-0.1-0.3-0.3-0.4-0.4l-0.7-0.8c-0.5-0.6-1-1.1-1.5-1.6
			c-1-1.1-2-2.1-3.1-3c-2.2-1.8-4.8-3.4-7.5-4.2c-2.8-0.9-5.7-1-8.6-0.6c-2.9,0.4-5.7,1.4-8.3,2.7l-0.1,0l-0.1,0
			c-2.3-0.2-4.5-0.8-6.6-1.6c-2.1-0.9-4.1-2-6-3c-3.9-2.2-8-4-12.4-4.2c-4.4-0.2-8.8,1-12.9,2.8c-4.1,1.8-7.9,4-11.6,6.5l0,0l0,0
			c-3.3,0.8-6.7,1.5-10.2,1.8c-3.4,0.4-6.9,0.4-10.3,0.7c-1.7,0.2-3.5,0.4-4.8,1.6c-1.3,1.1-1.9,2.9-2.3,4.5
			c-0.8,3.3-1,6.8-1.2,10.2c0.2-3.4,0.4-6.9,1.1-10.2c0.4-1.7,1-3.4,2.3-4.6c1.3-1.2,3.2-1.5,4.8-1.7c3.4-0.3,6.9-0.3,10.3-0.8
			c3.4-0.4,6.8-1,10.1-1.9l-0.1,0C54.1,7.3,58,5,62.1,3.2c4.1-1.8,8.5-3.1,13.1-2.9c2.3,0.1,4.5,0.5,6.6,1.3
			c2.1,0.8,4.1,1.8,6.1,2.8c2,1.1,3.9,2.1,6,3c2,0.8,4.2,1.4,6.4,1.5l-0.2,0c2.7-1.3,5.5-2.3,8.5-2.8c3-0.4,6.1-0.3,9,0.6
			c2.9,0.9,5.6,2.4,7.9,4.3c1.2,0.9,2.2,2,3.3,3.1c0.5,0.5,1,1.1,1.5,1.7l0.7,0.8c0.1,0.1,0.2,0.3,0.4,0.4c0.1,0.1,0.3,0.2,0.2,0.2
			l-0.3,0c2.3-0.6,4.6-1.1,7-1.1c2.4,0,4.9,0.5,6.8,2.1c2,1.5,3.1,3.9,3.6,6.2c0.5,2.3,0.6,4.7,0.4,7.1c-0.3,4.7-1.4,9.2-2.7,13.7
			c-1.3,4.4-2.9,8.8-4.8,13.1l-0.3,0.6l-0.6-0.2l-3.1-0.9l1-0.7l0,0.9l0,0.1l0,0.1c-0.9,6-2.2,11.9-4.4,17.5c-1,2.8-2.3,5.6-3.7,8.3
			c-1.4,2.7-3.1,5.2-4.9,7.7c-3.6,4.8-8,9.2-13,12.7c-5,3.5-10.4,6.3-16.2,8.2c-7.2,2.3-14.7,3.4-22.2,3.4c-7.5,0-15-1.1-22.2-3.4
			c-7.1-2.3-14-5.7-19.6-10.7c-2.8-2.5-5.3-5.4-7.2-8.7c-0.9-1.6-1.7-3.4-2.3-5.1c-0.6-1.8-1-3.6-1.2-5.5l0-0.1l0-0.1
			c1.6-6.7,2.4-13.6,2.3-20.5c-0.1-3.4-0.4-6.9-1.1-10.3c-0.4-1.7-0.8-3.4-1.4-5C20.9,44.6,20.2,42.9,19.3,41.5z"/>
	</g>
	<g id="XMLID_4012_">
		<path id="XMLID_55_" d="M121.8,27.8c0.3,3.1,0.9,6.3,1.8,9.3c0.9,3,2,6,3.4,8.8c1.5,2.8,3.3,5.3,5.7,7.4c1.2,1,2.5,1.9,3.8,2.6
			c1.4,0.7,2.9,1.1,4.4,1.5l-0.6,0.3c2.2-5.7,4.3-11.5,5.7-17.4c0.7-3,1.2-5.9,1.4-8.9c0.2-3,0-6-1.1-8.6c-0.5-1.3-1.3-2.5-2.4-3.3
			c-1-0.9-2.3-1.4-3.7-1.7c-2.8-0.5-5.9-0.1-8.6,0.8l-0.7,0.2l-0.4-0.6c-3.3-4.6-8-8.5-13.4-10.3c-1.4-0.4-2.8-0.7-4.2-0.8
			c-1.4-0.1-2.9-0.1-4.3,0.1c-2.8,0.4-5.6,1.4-8.2,2.7l-0.2,0.1l-0.2,0C97.8,9.8,95.6,9,93.6,8c-2-1-3.9-2.1-5.9-3.1
			c-3.9-2-8-3.7-12.3-3.9c-2.2-0.2-4.3,0-6.5,0.4c-2.1,0.4-4.2,1.1-6.2,1.9c-4,1.7-7.8,4-11.4,6.6l0,0l0,0
			c-3.3,1.5-6.8,2.1-10.4,2.3c-3.5,0.2-7.1-0.1-10.6,0.2c-1.7,0.2-3.5,0.7-4.8,1.8c-0.7,0.5-1.2,1.2-1.7,2c-0.4,0.8-0.8,1.6-1,2.4
			c-0.5,1.7-0.7,3.5-0.8,5.2c-0.1,1.8,0,3.5,0,5.3c-0.1-1.8-0.2-3.5-0.1-5.3c0.1-1.8,0.2-3.5,0.7-5.3c0.2-0.9,0.6-1.7,1-2.5
			c0.5-0.8,1-1.5,1.7-2c1.4-1.2,3.2-1.7,4.9-1.9c3.5-0.4,7.1-0.1,10.6-0.4c3.5-0.2,7-0.9,10.2-2.4l-0.1,0c3.5-2.7,7.3-5,11.4-6.8
			c2.1-0.9,4.2-1.6,6.4-2.1c2.2-0.5,4.5-0.6,6.7-0.5c4.5,0.2,8.8,1.9,12.8,3.9c2,1,3.9,2.1,5.9,3c2,0.9,4,1.6,6.1,1.7l-0.3,0.1
			c2.7-1.4,5.6-2.5,8.6-3c1.5-0.2,3.1-0.3,4.6-0.2c1.5,0.1,3.1,0.4,4.5,0.8c3,0.9,5.7,2.4,8.1,4.2c2.4,1.9,4.6,4,6.4,6.6l-1.1-0.4
			c1.6-0.6,3.1-0.9,4.7-1.1c1.6-0.2,3.3-0.2,4.9,0.1c1.6,0.3,3.3,1,4.7,2.1c1.4,1.1,2.4,2.6,3,4.1c1.2,3.2,1.2,6.4,0.9,9.5
			c-0.3,3.1-0.9,6.2-1.7,9.2c-1.6,6-3.8,11.7-6.3,17.4l-0.2,0.4l-0.4-0.1c-1.6-0.4-3.1-0.9-4.6-1.7c-1.4-0.8-2.7-1.7-3.9-2.8
			c-2.4-2.2-4.2-4.9-5.6-7.7c-1.4-2.9-2.4-5.9-3.2-9C122.5,34.1,122,30.9,121.8,27.8z"/>
	</g>
	<g id="XMLID_4004_">
		<path id="XMLID_54_" d="M21.9,22.5c-1.5,0.7-3,1.1-4.6,1.5c-1.6,0.4-3.2,0.6-4.8,0.8c-3.2,0.4-6.4,0.6-9.7,0.6L3.6,25
			c-0.7,1.4-1.1,2.9-1.3,4.5c-1,4.9,0,10.1,1.6,14.9c0.8,2.4,1.8,4.8,3.1,7.1c0.6,1.1,1.3,2.3,2,3.3c0.4,0.5,0.7,1,1.1,1.5
			c0.4,0.5,0.9,1,1.3,1.2l-0.1,0c0.6,0,1.1-0.4,1.6-0.9c0.4-0.5,0.8-1.1,1.1-1.7c0.6-1.3,1.2-2.6,1.7-3.9c0.6-1.3,1.1-2.6,1.9-3.9
			c0.4-0.6,0.8-1.2,1.4-1.6c0.6-0.5,1.3-0.7,2-0.7c-0.7,0-1.4,0.3-1.9,0.8c-0.5,0.5-0.9,1.1-1.3,1.7C17,48.3,16.5,49.7,16,51
			c-0.5,1.3-1,2.7-1.6,4c-0.3,0.7-0.6,1.3-1.1,1.9c-0.4,0.6-1.1,1.2-2,1.2l-0.1,0l-0.1,0c-0.8-0.3-1.2-0.8-1.7-1.3
			c-0.5-0.5-0.9-1-1.3-1.6c-0.8-1.1-1.5-2.2-2.2-3.3c-1.3-2.3-2.5-4.7-3.5-7.1c-1-2.5-1.7-5-2.2-7.7c-0.5-2.6-0.6-5.4-0.2-8.1
			c0.4-1.7,1-3.4,1.9-4.9l0.3-0.5l0.5,0c3.2,0.2,6.3,0.3,9.5,0.2c1.6-0.1,3.2-0.2,4.8-0.4C18.8,23.3,20.4,23,21.9,22.5z"/>
	</g>
	<g id="XMLID_3996_">
		<path id="XMLID_53_" d="M24,68.7c0.9-0.2,1.9-0.3,2.9-0.1c1,0.1,1.9,0.7,2.3,1.6c0.4,0.9,0.5,1.9,0.4,2.9c-0.1,1,0,1.9,0.5,2.7
			c0.9,1.7,2.6,2.8,4.3,3.6c1.7,0.9,3.6,1.4,5.4,1.9c3.7,0.9,7.6,1.4,11.4,1.7c3.8,0.3,7.7,0.4,11.5,0.5l-0.6,0.6
			c0-0.1,0-0.3,0.1-0.4l0.1-0.2l0.2-0.3c0.1-0.2,0.2-0.4,0.3-0.5c0.2-0.4,0.5-0.7,0.7-1c0.5-0.7,1-1.3,1.5-2l0.2-0.3l0.3,0l3.6,0.2
			l0.3,0l0.2,0.3l2.6,3.8l-0.6-0.3c5,0.1,10.1-0.3,15.2-0.7c5.1-0.4,10.1-1,15.2-1.5l9.9-1l-0.8,0.5c1.3-2.1,2.7-4,4.5-5.6
			c0.9-0.8,1.9-1.6,3.2-2.1c0.6-0.2,1.4-0.3,2.2-0.2c0.8,0.1,1.5,0.5,2,0.9c1.1,0.9,1.7,2.1,2.2,3.2l0.3,0.9l0.3,0.9
			c0.2,0.6,0.3,1.2,0.5,1.7c0.5,2.3,0.8,4.7,1,7l0,0.2l-0.1,0.2c-2.4,5-6,9.3-10.1,12.8c-4.2,3.5-8.9,6.3-13.9,8.5
			c-9.9,4.3-20.8,6.4-31.6,6.3c-5.4-0.1-10.8-0.7-16-2c-5.2-1.3-10.3-3.2-15-6c-4.6-2.7-8.8-6.3-12-10.7c-3.2-4.3-5.5-9.3-6.7-14.6
			l0,0l0,0C22.8,77.7,23.4,73.2,24,68.7c-0.6,4.5-1.1,8.9-1.9,13.4l0,0c1.3,5.2,3.6,10.2,6.8,14.4c3.2,4.3,7.4,7.8,12,10.4
			c9.3,5.3,20.1,7.5,30.8,7.5c10.7,0,21.4-2.2,31.1-6.5c4.8-2.2,9.4-5,13.4-8.4c4-3.5,7.4-7.6,9.6-12.4l-0.1,0.4
			c-0.2-2.3-0.5-4.6-1-6.7c-0.1-0.5-0.3-1.1-0.4-1.6l-0.3-0.8l-0.3-0.8c-0.4-1-1-1.9-1.7-2.5c-1.3-1.2-3.4-0.1-4.9,1.4
			c-1.6,1.5-2.9,3.4-4.1,5.2l-0.3,0.4l-0.5,0.1l-9.9,1.1c-5.1,0.5-10.2,0.9-15.3,1.2c-5.1,0.3-10.2,0.6-15.4,0.3l-0.4,0L71,84.5
			l-2.5-3.9L69,81l-3.6-0.3l0.5-0.2c-0.5,0.6-1,1.3-1.5,1.9c-0.2,0.3-0.5,0.6-0.7,1c-0.1,0.2-0.2,0.3-0.3,0.5L63.3,84l0,0.1
			c0,0,0-0.1,0-0.1l-0.6,0.6c-3.9-0.2-7.7-0.3-11.6-0.8c-3.9-0.4-7.7-1-11.5-2c-1.9-0.6-3.7-1.1-5.5-2.1c-1.7-0.9-3.4-2.1-4.4-3.8
			C29.4,75,29.3,74,29.4,73c0.1-0.9,0.1-1.9-0.3-2.8c-0.4-0.9-1.3-1.4-2.2-1.6C25.9,68.5,25,68.5,24,68.7z"/>
	</g>
	<g id="XMLID_3988_">
		<path id="XMLID_52_" d="M102,17.5c0,0-0.1-0.2-0.4-0.4c-0.3-0.2-0.8-0.4-1.4-0.4c-1.2-0.1-2.9,0.4-4.3,1.1
			c-1.5,0.8-2.7,1.7-3.6,2.6c-0.9,0.8-1.4,1.5-1.4,1.5s-0.1,0.1-0.2,0.2c-0.1,0.1-0.3,0.3-0.5,0.6C89.7,23.2,89,24,88.6,25
			c-0.2,0.5-0.3,1-0.1,1.5c0,0.1,0,0.1,0.1,0.2c0,0,0.1,0.2,0,0.1c0.1,0.1,0.3,0.3,0.3,0.3c0.1,0.1,0.4,0.3,0.7,0.4
			c1.3,0.3,3,0,4.5-0.5c3.1-1.2,5.8-3.3,7.2-5.4c0.7-1,1-2.1,1-2.8C102.2,17.9,101.9,17.6,102,17.5c0,0,0.3,0.3,0.4,1.1
			c0.1,0.8-0.2,1.9-0.8,3c-1.3,2.3-3.9,4.7-7.1,6.2c-1.6,0.7-3.4,1.3-5.2,1c-0.5-0.1-0.9-0.2-1.4-0.6c-0.3-0.2-0.4-0.3-0.5-0.5
			c-0.2-0.2-0.2-0.2-0.2-0.4C87.1,27.3,87,27.1,87,27c-0.4-1-0.2-1.9,0-2.6c0.4-1.4,1.1-2.4,1.6-3c0.2-0.3,0.4-0.6,0.6-0.7
			c0.1-0.2,0.2-0.3,0.2-0.3s0.7-0.6,1.8-1.4c1.1-0.7,2.7-1.6,4.3-2.2c1.7-0.6,3.5-0.8,4.8-0.5c0.6,0.1,1.1,0.4,1.4,0.7
			C101.9,17.4,102,17.6,102,17.5z"/>
	</g>
	<g id="XMLID_3980_">
		<path id="XMLID_51_" d="M37,17.5c0,0,0.1-0.2,0.4-0.5c0.3-0.3,0.8-0.6,1.4-0.7c1.3-0.3,3.1-0.1,4.8,0.5c1.7,0.5,3.3,1.4,4.3,2.2
			c1.1,0.8,1.8,1.4,1.8,1.4s0.1,0.1,0.2,0.3c0.1,0.2,0.3,0.4,0.6,0.7c0.5,0.7,1.2,1.6,1.6,3c0.2,0.7,0.3,1.6,0,2.6
			c0,0.1-0.1,0.2-0.2,0.3c-0.1,0.1-0.1,0.2-0.2,0.4c-0.1,0.1-0.2,0.3-0.5,0.5c-0.5,0.4-0.9,0.5-1.4,0.6c-1.9,0.3-3.6-0.3-5.2-1
			c-3.2-1.5-5.8-4-7.1-6.2c-0.6-1.1-0.9-2.2-0.8-3C36.6,17.9,37,17.6,37,17.5c0,0-0.3,0.4-0.3,1.1c0,0.7,0.3,1.8,1,2.8
			c1.4,2.1,4.1,4.3,7.2,5.4c1.5,0.6,3.2,0.9,4.5,0.5c0.3-0.1,0.6-0.2,0.7-0.4c0.1,0,0.2-0.2,0.3-0.3c0,0,0-0.1,0-0.1
			c0-0.1,0.1-0.1,0.1-0.2c0.1-0.4,0-1-0.1-1.5c-0.4-1-1-1.8-1.4-2.3c-0.2-0.3-0.4-0.5-0.5-0.6c-0.1-0.1-0.2-0.2-0.2-0.2
			s-0.5-0.6-1.4-1.5c-0.9-0.9-2.2-1.8-3.6-2.6c-1.5-0.8-3.1-1.2-4.3-1.1c-0.6,0-1.1,0.2-1.4,0.4C37.1,17.4,37,17.6,37,17.5z"/>
	</g>
	<g id="XMLID_3972_">
		<path id="XMLID_50_" d="M44.7,43.3c0,0,0,0.2,0,0.4c0,0.3,0,0.7-0.1,1.2c-0.2,1-0.9,2.2-2.1,3c-1.1,0.8-2.7,1.1-3.8,1
			c-1.1-0.1-1.8-0.5-1.8-0.5s-0.3-0.2-0.8-0.6c-0.5-0.4-1.1-1.2-1.5-2.2c-0.2-0.5-0.3-1.1-0.3-1.8c0-0.2,0-0.3,0-0.5l0-0.4
			c0.1-0.3,0.1-0.7,0.2-1c0.4-1.3,1.4-2.4,2.7-3.1c1.3-0.6,2.7-0.7,3.9-0.3c1.2,0.3,2.2,1.1,2.7,1.9c0.6,0.8,0.8,1.6,0.9,2.1
			c0,0.3,0,0.5,0,0.6C44.7,43.3,44.7,43.3,44.7,43.3s0-0.1,0-0.2c0-0.1,0-0.4-0.1-0.6c-0.1-0.5-0.4-1.3-1-2
			c-0.6-0.7-1.5-1.3-2.6-1.5c-1.1-0.2-2.3,0-3.2,0.6c-1,0.6-1.6,1.6-1.8,2.5c-0.1,0.3-0.1,0.5-0.1,0.7l0,0.4l0,0.3
			c0.1,0.4,0.2,0.8,0.4,1.2c0.4,0.7,0.8,1.1,1.2,1.4c0.4,0.2,0.6,0.3,0.6,0.3s0.4,0.3,1.1,0.6c0.8,0.2,1.9,0.3,2.9-0.1
			c1.1-0.4,1.9-1.3,2.3-2.2c0.2-0.4,0.3-0.8,0.4-1.1C44.7,43.5,44.7,43.3,44.7,43.3z"/>
	</g>
	<g id="XMLID_3964_">
		<path id="XMLID_49_" d="M109.6,41.3c0,0,0,0.2,0,0.4c0,0.3,0,0.7-0.1,1.2c-0.2,1-0.9,2.2-2.1,3c-1.1,0.8-2.7,1.1-3.8,1
			c-1.1-0.1-1.8-0.5-1.8-0.5s-0.3-0.2-0.8-0.6c-0.5-0.4-1.1-1.2-1.5-2.2c-0.2-0.5-0.3-1.1-0.3-1.8c0-0.2,0-0.3,0-0.5l0-0.4
			c0.1-0.3,0.1-0.7,0.2-1c0.4-1.3,1.4-2.4,2.7-3.1c1.3-0.6,2.7-0.7,3.9-0.3c1.2,0.3,2.2,1.1,2.7,1.9c0.6,0.8,0.8,1.6,0.9,2.1
			c0,0.3,0,0.5,0,0.6C109.6,41.3,109.6,41.3,109.6,41.3s0-0.1,0-0.2c0-0.1,0-0.4-0.1-0.6c-0.1-0.5-0.4-1.3-1-2
			c-0.6-0.7-1.5-1.3-2.6-1.5c-1.1-0.2-2.3,0-3.2,0.6c-1,0.6-1.6,1.6-1.8,2.5c-0.1,0.3-0.1,0.5-0.1,0.7l0,0.4l0,0.3
			c0.1,0.4,0.2,0.8,0.4,1.2c0.4,0.7,0.8,1.1,1.2,1.4c0.4,0.2,0.6,0.3,0.6,0.3s0.4,0.3,1.1,0.6c0.8,0.2,1.9,0.3,2.9-0.1
			c1.1-0.4,1.9-1.3,2.3-2.2c0.2-0.4,0.3-0.8,0.4-1.1C109.6,41.5,109.6,41.3,109.6,41.3z"/>
	</g>
	<g id="XMLID_3956_">
		<path id="XMLID_48_" d="M106.5,106.6l1.4,11l0,0.2l-0.2,0.1c-5.5,2.2-11.3,3.6-17.1,4.6c-5.8,1-11.8,1.4-17.7,1.2
			c-8.5-0.5-16.9-2.2-24.7-5.3l-0.5-0.2l0-0.5l0.1-7.5l0-1l0.9,0.4c9.2,3.6,19.2,5.3,29.2,5c2.5,0,5-0.4,7.4-0.6
			c1.2-0.2,2.4-0.5,3.7-0.7c0.6-0.1,1.2-0.2,1.8-0.4l1.8-0.5C97.5,111.1,102.1,108.9,106.5,106.6c-4.4,2.4-8.9,4.7-13.7,6l-1.8,0.6
			c-0.6,0.2-1.2,0.3-1.8,0.4c-1.2,0.3-2.4,0.6-3.7,0.8c-2.5,0.3-5,0.7-7.5,0.8c-10,0.6-20.2-0.9-29.7-4.4l1-0.6l0.1,7.5l-0.5-0.7
			c7.8,2.9,16,4.3,24.3,4.6c5.8,0.4,11.6,0.3,17.4-0.4c5.8-0.7,11.6-1.9,17.1-3.7l-0.2,0.3L106.5,106.6z"/>
	</g>
	<g id="XMLID_3948_">
		<path id="XMLID_47_" d="M55.4,119.9l-4-1.3l-2-0.6c-0.3-0.1-0.7-0.2-1-0.3l-0.5-0.1l-0.5,0c-1.4,0.2-2.5,1.1-3.5,2
			c-1,1-1.9,2.1-2.6,3.2l0-0.1c-0.4,3.6-1.9,7-4,9.9c-2.1,2.9-4.9,5.3-7.8,7.5c-1.4,1.1-3,2-4.5,3c-0.4,0.2-0.7,0.5-1,0.7l0,0l0,0
			c0-0.1,0,0.2,0-0.2l0,0l-0.1,0c-0.1,0,0.1,0.1,0.1,0c0,0,0.1-0.1,0.1-0.1l0,0c0,0,0,0,0,0.1c0,0.1,0.1,0.3,0.3,0.4
			c0.5,0.6,1.1,1.3,1.7,1.8c2.6,2.3,5.5,4.4,8.4,6.4l-0.9,0l3.9-3.1l1.1-0.9l0.2,1.4l2.2,15.2l-0.5-0.7c1.6,0.8,3.5,1.4,5.4,1.9
			c10.2,2.9,21.1,3.5,31.7,3.3c10.7-0.3,21.4-1.6,32-3.5l-0.5,0.4c3.4-7.6,4.8-16,4.1-24.4c-0.6-8.3-2.9-16.6-6.7-24l0.4,0.2
			L90.8,122l0.1-0.1c-4.7,4.7-9.4,9.5-13.9,14.5c-2.2,2.5-4.4,5-6.5,7.6c-1,1.3-2,2.6-3,4c-0.5,0.7-0.9,1.4-1.3,2.1
			c-0.4,0.7-0.8,1.5-0.8,2.4c0-0.8,0.4-1.6,0.8-2.4c0.4-0.7,0.8-1.5,1.3-2.2c0.9-1.4,1.9-2.7,2.9-4.1c2.1-2.6,4.2-5.2,6.4-7.7
			c4.4-5,9-9.9,13.7-14.6l0,0l0.1,0l16-3.9l0.3-0.1l0.1,0.2c3.9,7.6,6.3,15.8,7.1,24.3c0.8,8.5-0.5,17.2-3.9,25l-0.1,0.3l-0.3,0.1
			c-10.6,2-21.4,3.4-32.2,3.9c-10.8,0.3-21.8-0.1-32.4-3c-2-0.6-3.8-1.2-5.8-2.2l-0.4-0.2l-0.1-0.5l-1.8-15.3l1.3,0.5l-4,3l-0.4,0.3
			l-0.4-0.3c-2.9-2.1-5.7-4.3-8.4-6.7c-0.7-0.6-1.3-1.3-1.9-2.1c-0.1-0.2-0.3-0.4-0.4-0.7c0-0.1,0-0.2-0.1-0.3c0-0.1,0-0.2,0-0.4
			c0-0.2,0.1-0.4,0.1-0.4l0.1-0.1l0,0c0.2-0.2,0.1-0.1,0.1-0.1l0,0l0,0c0.4-0.3,0.8-0.5,1.2-0.8c1.5-0.9,3-1.8,4.5-2.8
			c2.9-2,5.6-4.3,7.8-7.1c2.1-2.8,3.7-6,4.2-9.5l0-0.1l0,0c0.8-1.2,1.7-2.3,2.8-3.2c1-0.9,2.3-1.9,3.7-2l0.6,0l0.5,0.1
			c0.4,0.1,0.7,0.2,1,0.3l2,0.7L55.4,119.9z"/>
	</g>
	<g id="XMLID_3940_">
		<path id="XMLID_46_" d="M55.9,120c-0.4,2.1-1,4.1-1.8,6c-0.4,1-1,1.9-1.7,2.7c-0.2,0.2-0.4,0.4-0.6,0.6l-0.5,0.6
			c-0.1,0.2-0.2,0.4-0.2,0.6c0,0.2-0.1,0.5-0.1,0.7c0,1.9,1,3.9,2,5.5c0.3,0.4,0.6,0.8,0.9,1.2c0.3,0.4,0.7,0.8,0.8,0.7l3.1,0.6
			l0.8,0.1l-0.2,0.8l-0.7,3.3l0-0.5c0.8,2.1,1.5,4.1,2.1,6.2c0.9,3.2,1.7,6.4,2.4,9.6c0.7,3.2,1.3,6.5,1.4,9.9l-1.5-0.1L65,152
			l0.4-0.1c-0.1-0.1-0.1-0.1-0.2-0.2c-0.1,0,0,0,0,0c0,0,0-0.1,0-0.2c0-0.1,0-0.3,0-0.5c0-0.3-0.1-0.7-0.1-1c-0.1-0.7-0.3-1.4-0.4-2
			c-0.3-1.4-0.7-2.7-1-4c-0.8-2.7-1.6-5.4-2.4-8C59.5,130.6,57.7,125.3,55.9,120c2,5.2,3.9,10.5,5.7,15.8c0.9,2.6,1.8,5.3,2.7,8
			c0.4,1.3,0.8,2.7,1.2,4c0.2,0.7,0.3,1.4,0.5,2.1c0.1,0.4,0.1,0.7,0.2,1.1c0,0.2,0,0.4,0,0.6c0,0.1,0,0.2,0,0.3
			c0,0.1-0.1,0.3-0.3,0.5l0.2-0.3L63.6,169l-1.5-0.1c-0.2-3.1-0.9-6.4-1.6-9.5c-0.8-3.2-1.7-6.3-2.7-9.4c-0.6-2.1-1.1-4.2-1.8-6.3
			l-0.1-0.3l0.1-0.2l0.9-3.3l0.6,0.9l-3-0.8c-0.1,0-0.1,0-0.2-0.1c-0.1,0-0.3-0.1-0.4-0.2c-0.2-0.1-0.3-0.2-0.4-0.3
			c-0.2-0.2-0.4-0.4-0.6-0.7c-0.3-0.4-0.6-0.9-0.9-1.4c-0.5-0.9-1-1.9-1.4-2.9c-0.3-1-0.6-2.1-0.5-3.3c0-0.3,0.1-0.6,0.2-0.8
			c0.1-0.3,0.3-0.6,0.4-0.8c0.2-0.2,0.3-0.4,0.6-0.6c0.2-0.2,0.4-0.3,0.6-0.5c0.7-0.7,1.3-1.6,1.8-2.5
			C54.7,124.1,55.4,122.1,55.9,120z"/>
	</g>
	<g id="XMLID_3932_">
		<path id="XMLID_45_" d="M93.1,121.7c0.5,2.2,0.3,4.5-0.3,6.6c-0.6,2.2-1.8,4.2-3.2,5.9c-2.9,3.5-6.8,6.1-10.9,8l-0.1,0.1l-0.2,0
			l-2.4,0.1l0.7-1l0.9,2.4l0.2,0.6l-0.6,0.4c-2.1,1.5-4.1,3.3-5.9,5.2c-2.4,2.5-4.4,5.3-5.9,8.4c-1.4,3.1-2.1,6.6-2,10l-1.6,0
			c0-5,1.3-9.9,3.2-14.4c1.9-4.5,4.3-8.8,7.1-12.8c2.8-4,5.9-7.8,9.2-11.3c1.7-1.8,3.4-3.4,5.3-5c0.9-0.8,1.9-1.5,2.9-2.2
			c0.5-0.3,1-0.7,1.6-0.9c0.3-0.1,0.6-0.2,0.9-0.3C92.5,121.5,92.9,121.5,93.1,121.7c-0.2-0.2-0.6-0.2-0.9-0.1
			c-0.3,0.1-0.6,0.2-0.8,0.3c-0.5,0.3-1,0.6-1.5,0.9c-1,0.7-1.9,1.5-2.8,2.3c-1.8,1.6-3.5,3.3-5.1,5.1c-3.2,3.6-6.2,7.4-8.9,11.5
			c-2.6,4-4.9,8.3-6.7,12.8c-1.7,4.5-2.8,9.2-2.7,13.9l-1.6,0c-0.2-3.7,0.5-7.4,1.9-10.8c1.4-3.4,3.5-6.5,6-9.2c2-2,4.1-3.7,6.5-5.2
			l-0.4,1l-0.8-2.4l-0.3-1.1l1.1,0l2.4,0.1l-0.3,0.1c4.1-1.6,7.9-3.9,10.9-7.2c1.5-1.6,2.7-3.5,3.4-5.6
			C93.2,126.1,93.5,123.9,93.1,121.7z"/>
	</g>
	<g id="XMLID_3924_">
		<path id="XMLID_44_" d="M22.3,145.1c0,0-0.5,1-1,2.5c-0.2,0.8-0.4,1.7-0.4,2.7c0,1,0.3,2,0.9,2.8c0.2,0.2,0.3,0.4,0.5,0.5l0.6,0.4
			c0.2,0.1,0.4,0.2,0.6,0.3c0.2,0.1,0.4,0.2,0.7,0.3c1,0.4,1.8,0.6,2.6,0.8c1.5,0.4,2.5,0.4,2.5,0.4c0.6,0.1,1.3,0.1,1.8,0
			c0.6-0.1,0.9-0.3,1-0.6l0.1-0.2l0.1-0.1c0.7-0.6,1.3-1.5,1.6-2.4c0.4-0.9,0.6-2,0.4-2.7c-0.1-0.3-0.3-0.5-0.6-0.6
			c-0.4-0.1-0.8,0-1.3,0.2c-0.9,0.3-1.9,0.9-2.8,1.5l-3.1,2.2l2.3-2.9c0.5-0.6,0.9-1.2,1.1-1.8c0.1-0.3,0.2-0.6,0.1-0.8
			c0-0.2-0.2-0.3-0.5-0.4c-0.6-0.1-1.3,0-2,0.3c-0.7,0.3-1.3,0.6-1.8,1.1l-1.3,1.2l0.9-1.5c0.3-0.6,0.6-1.2,0.8-1.9
			c0.2-0.6,0.3-1.4-0.1-1.9c-0.5-0.4-1.3-0.3-1.9-0.2C23.6,144.6,23,144.8,22.3,145.1c0.6-0.3,1.3-0.6,2-0.8
			c0.3-0.1,0.7-0.2,1.1-0.2c0.4,0,0.8,0.1,1.1,0.3c0.3,0.3,0.4,0.7,0.4,1c0,0.4,0,0.7-0.1,1.1c-0.2,0.7-0.4,1.4-0.8,2l-0.4-0.3
			c0.5-0.6,1.2-1,1.9-1.3c0.7-0.3,1.5-0.6,2.4-0.4c0.4,0,1,0.4,1.2,0.9c0.2,0.5,0,1-0.1,1.4c-0.3,0.8-0.7,1.5-1.2,2.1l-0.7-0.7
			c0.9-0.7,1.8-1.4,2.9-1.9c0.6-0.2,1.2-0.4,1.9-0.4c0.4,0,0.8,0.2,1.1,0.4c0.3,0.3,0.6,0.6,0.7,1c0.5,1.4,0.2,2.6-0.2,3.8
			c-0.4,1.1-1,2.2-1.9,3.2l0.2-0.3c-0.2,0.6-0.6,1-1,1.3c-0.4,0.3-0.9,0.5-1.3,0.6c-0.9,0.2-1.7,0.2-2.5,0.1c0,0-1.2-0.2-2.8-0.8
			c-0.8-0.3-1.8-0.7-2.6-1.2c-0.2-0.1-0.5-0.3-0.7-0.4c-0.2-0.2-0.5-0.3-0.7-0.5l-0.7-0.6c-0.2-0.2-0.4-0.5-0.5-0.8
			c-0.6-1.1-0.7-2.3-0.6-3.4c0.1-1.1,0.4-2,0.7-2.8C21.7,146,22.3,145.1,22.3,145.1z"/>
	</g>
	<g id="XMLID_3916_">
		<path id="XMLID_43_" d="M39.9,165.3c0,3.7,1.7,7.2,3.9,10.1c2.2,2.9,5.1,5.3,8.1,7.3l0.1,0.1l0,0.2c0.2,2.2,0.9,4.3,1.7,6.4
			c0.4,1,0.9,2.1,1.4,3c0.5,1,1.1,1.9,1.8,2.6c0.2,0.1,0.4,0.3,0.5,0.3c0.1,0,0.1,0,0.1,0c0,0,0,0,0,0c0,0,0,0,0,0l0,0l0.1-0.1
			c0.3-0.2,0.4-0.3,0.6-0.4c0.2-0.2,0.4-0.4,0.5-0.6c0.6-0.8,1.2-1.8,1.5-2.8c0.8-2,1.1-4.2,0.5-6.1l-0.8-2.5l2,1.6
			c0.9,0.7,2.2,1.2,3.5,1.5c1.3,0.3,2.6,0.4,4,0.5c2.7,0.1,5.4,0,8.1-0.3c0,0,0.5-0.1,1.4-0.2c0.9-0.1,2.3-0.3,4.1-0.6
			c1.7-0.3,3.9-0.8,6.1-1.6c0.3-0.1,0.5-0.2,0.7-0.4c0.1-0.1,0.2-0.1,0.3-0.2l0,0c0,0,0,0,0.1,0.1c0,0,0.1,0.1,0.1,0.1
			c0,0,0.1,0,0.1,0.1c0,0,0.1,0,0.1,0c0,0,0,0,0.1,0l0,0c0.5,0.1-0.7-0.1-0.6-0.1l0,0c0,0,0-0.1,0-0.2c0,0-0.1-0.2,0.5-0.6
			c0.3-0.4,1.4,0.2,1.2,0.1c0.2,0.2,0.2,0.2,0.2,0.3c0.1,0.2,0.1,0.3,0.1,0.4l0.2,0.5c0.1,0.3,0.2,0.7,0.3,1
			c0.4,1.3,0.8,2.7,1.4,4.2c0.5,1.4,1.1,2.9,2,4.1c0.4,0.6,1,1.2,1.4,1.3c0.1,0,0.3,0.1,0.3,0.1c0.1,0,0.2,0,0.3,0c0,0,0.1,0,0.1,0
			c0.3-0.1,0.5-0.3,0.8-0.5c1-1.1,1.7-2.8,2.2-4.5c0.5-1.7,0.8-3.6,1.1-5.5l0-0.3c0-0.3,0-0.2,0.1-0.5c0.1-0.2,0.1-0.3,0.2-0.4
			l0.2-0.4c0.2-0.5,0.5-0.9,0.7-1.3c0.5-0.9,1-1.7,1.5-2.6c1-1.7,2-3.5,2.9-5.3c0.5-0.9,0.9-1.8,1.3-2.7c0.4-0.9,0.8-1.9,0.9-2.7
			c0-0.1,0-0.2,0-0.3c0-0.1-0.1-0.1,0-0.1c0,0,0,0,0,0c0.1,0-0.1,0.1,0.1-0.1l-0.1,0.2l-0.2-0.1c-0.1,0-0.2,0-0.3,0
			c-0.4,0-0.9,0-1.4,0.1c-1,0.1-2,0.2-3.1,0.3c-8.2,1-16.4,2-24.1,2.3c-7.7,0.4-15,0.3-21.1-0.3c-6.2-0.6-11.2-1.7-14.7-2.7
			c-1.7-0.5-3.1-1-4-1.3C40.4,165.5,39.9,165.3,39.9,165.3c0,0,0.5,0.2,1.4,0.5c0.9,0.3,2.3,0.8,4,1.3c3.5,1,8.5,2,14.7,2.5
			c6.1,0.5,13.4,0.5,21.1,0c7.7-0.5,15.9-1.6,24-2.7c1-0.1,2-0.3,3.1-0.4c0.5,0,1-0.1,1.7-0.1c0.2,0,0.4,0,0.5,0.1l0.2,0.1l0,0
			c0.2,0.1,0.1,0.1,0.2,0.1c0.1,0,0.1,0.1,0.2,0.1c0.3,0.4,0.3,0.8,0.3,1.1c-0.1,1.2-0.5,2.1-0.9,3.1c-0.4,1-0.8,1.9-1.3,2.8
			c-0.9,1.8-1.9,3.6-2.8,5.4c-0.5,0.9-0.9,1.7-1.4,2.6c-0.2,0.4-0.4,0.9-0.6,1.3l-0.1,0.3l-0.1,0.2c0,0-0.1,0.3-0.1,0.2l0,0.4
			c-0.2,2-0.5,3.9-1,5.7c-0.2,0.9-0.5,1.8-0.9,2.7c-0.4,0.9-0.8,1.8-1.6,2.5c-0.4,0.4-0.8,0.7-1.4,0.9c-0.2,0.1-0.3,0.1-0.5,0.1
			c-0.2,0-0.2,0-0.4,0c-0.4,0-0.7,0-1-0.1c-1.2-0.4-1.8-1.2-2.3-1.9c-1-1.5-1.7-3-2.3-4.5c-0.6-1.5-1-2.9-1.5-4.3
			c-0.1-0.3-0.2-0.7-0.3-1l-0.2-0.4c0-0.1-0.1-0.1,0-0.1c0,0,0,0,0.1,0.2c-0.2,0,0.9,0.5,1.1,0.1c0.5-0.4,0.4-0.5,0.4-0.5
			c0-0.1,0-0.2,0-0.1l0,0c0,0,0-0.1,0,0l0,0.1c-0.1,0.6-0.4,0.8-0.6,1c-0.2,0.2-0.4,0.3-0.5,0.4c-0.3,0.2-0.7,0.4-1,0.5
			c-2.5,1-4.6,1.5-6.4,1.9c-1.8,0.4-3.2,0.6-4.2,0.7c-1,0.1-1.5,0.2-1.5,0.2c-2.8,0.2-5.6,0.3-8.5,0.1c-1.4-0.1-2.8-0.3-4.3-0.7
			c-1.4-0.4-2.8-0.9-4.1-1.9l1.3-0.8c0.7,2.5,0.1,4.9-0.8,7.1c-0.5,1.1-1.1,2.1-1.8,3.1c-0.2,0.2-0.4,0.5-0.6,0.7
			c-0.3,0.2-0.6,0.5-0.8,0.6l-0.1,0.1l0,0c-0.1,0.1-0.1,0-0.1,0.1c-0.1,0-0.2,0.1-0.4,0.1c-0.3,0-0.5,0-0.7-0.1
			c-0.4-0.2-0.6-0.4-0.9-0.6c-0.9-0.9-1.4-1.9-2-3c-0.5-1-0.9-2.1-1.3-3.2c-0.7-2.2-1.4-4.4-1.5-6.7l0.2,0.3c-3-2.1-5.8-4.7-8-7.7
			C41.4,172.6,39.8,169,39.9,165.3z"/>
	</g>
	<g id="XMLID_3908_">
		<path id="XMLID_42_" d="M110.6,164.6c0,0,0.5,0.1,1.4,0.1c0.9,0,2.2-0.1,3.8-0.5c1.5-0.4,3.2-1.2,4.6-2.6c1.4-1.4,2.3-3.2,2.8-5.2
			c0.9-4,0.3-8.2-0.4-11.2c-0.3-1.5-0.7-2.8-0.9-3.6c-0.1-0.4-0.2-0.8-0.3-1c-0.1-0.2-0.1-0.4-0.1-0.4c-0.7-2.9-1.7-5.7-2.8-8.6
			l-0.3-0.8l0.8-0.3c1.2-0.5,2.6-0.7,4-0.4c1.3,0.4,2.5,1.2,3.3,2.2c1.6,1.9,2.6,4.2,3.3,6.4c0.4,1.1,0.7,2.3,0.9,3.4
			c0.1,0.6,0.2,1.2,0.3,1.7c0.1,0.6,0.1,1.2,0.2,1.8c0.1,2.4,0,4.7-0.4,7.1c-0.4,2.3-1.1,4.6-2.2,6.7c-0.5,1.1-1.2,2-2,3
			c-0.8,0.9-1.7,1.7-2.6,2.4c-1.9,1.4-4.3,2.1-6.6,2.4c-2.3,0.3-4.7,0.2-7-0.1l0,0l0,0l-0.4-0.8l0,0l0,0L110.6,164.6l-0.7,1.6l0,0
			l0.4,0.8l0,0c2.3,0.2,4.7,0.3,6.9-0.1c2.3-0.4,4.5-1.2,6.3-2.6c0.9-0.7,1.7-1.5,2.5-2.4c0.7-0.9,1.3-1.8,1.8-2.9
			c1-2,1.6-4.3,1.9-6.6c0.3-2.3,0.4-4.6,0.2-6.9c0-0.6-0.1-1.2-0.2-1.7c-0.1-0.6-0.2-1.1-0.4-1.7c-0.3-1.1-0.6-2.2-1-3.3
			c-0.8-2.1-1.7-4.2-3.2-5.8c-0.7-0.8-1.6-1.4-2.5-1.6c-0.9-0.2-1.9,0-2.8,0.4l0.5-1.2c1.1,2.9,2.2,5.7,3.1,8.7c0,0,0,0.1,0.1,0.4
			c0.1,0.2,0.2,0.6,0.2,1.1c0.2,0.9,0.5,2.2,0.7,3.8c0.5,3.2,0.9,7.6-0.4,11.8c-0.6,2.1-1.8,4-3.4,5.4c-1.6,1.3-3.4,2.1-4.9,2.4
			c-1.6,0.3-2.9,0.3-3.8,0.3C111.1,164.7,110.6,164.6,110.6,164.6z"/>
	</g>
	<g id="XMLID_3901_">
		<path id="XMLID_15_" fill="none" stroke="#000000" stroke-width="0.5" stroke-miterlimit="10" d="M8.6,103"/>
	</g>
	<g id="XMLID_3893_">
		<path id="XMLID_40_" d="M112.5,174.1c0,0-4.1-2.9-10.3-7c-6.3-4.1-14.7-9.4-23.4-14.2c-8.7-4.9-17.6-9.3-24.5-12.2
			c-3.4-1.4-6.3-2.5-8.4-3.1c-2.1-0.7-3.2-1-3.2-1c-4.3-1.3-8.8-2.3-13.2-2.3c-2.2,0.1-4.4,0.4-6.3,1.4c-1.9,0.9-3.3,2.6-4.3,4.5
			l-0.9,2l-0.7-2l-1.1-3l1.5,0.2c-0.4,0.6-0.9,1.1-1.4,1.6c-0.3,0.2-0.5,0.5-0.9,0.7c-0.2,0.1-0.3,0.2-0.6,0.3
			c-0.2,0.1-0.6,0.2-1.1,0l-0.2-0.1l-0.1-0.2c-0.6-0.9-0.6-1.6-0.6-2.3c0-0.4,0-0.7,0.1-1c0-0.3,0.1-0.7,0.2-1
			c0.4-1.3,1-2.5,1.9-3.6c0.9-1,2-1.8,3.2-2.4c0.6-0.3,1.2-0.5,1.8-0.7c0.6-0.2,1.3-0.4,1.9-0.5c5.1-1,10.2-0.2,15,0.9
			c4.9,1.2,9.6,2.7,14.2,4.6c4.6,1.9,9.2,3.9,13.6,6.1c17.8,8.9,34.6,19.5,51.1,30.6l0,0l0,0c0.3,0.9,0.2,2-0.5,2.7
			C114.5,174,113.5,174.1,112.5,174.1c1,0,2-0.2,2.7-0.8c0.7-0.7,0.8-1.8,0.5-2.7l0,0c-16.6-10.9-33.5-21.3-51.4-29.9
			c-4.5-2.1-9-4.1-13.6-5.9c-4.6-1.8-9.3-3.3-14.1-4.4c-4.8-1-9.8-1.7-14.5-0.7c-0.6,0.1-1.1,0.3-1.7,0.5c-0.5,0.2-1.1,0.4-1.6,0.7
			c-1,0.6-2,1.2-2.7,2.1c-0.7,0.9-1.3,1.9-1.5,2.9c-0.1,0.3-0.1,0.5-0.2,0.8c0,0.3-0.1,0.5,0,0.8c0,0.3,0.1,0.5,0.1,0.8l0.1,0.3
			c0,0.1,0.1,0.1,0.1,0.2l-0.3-0.2c-0.1-0.1-0.2,0-0.1,0c0,0,0.2-0.1,0.3-0.1c0.2-0.1,0.4-0.3,0.6-0.6c0.4-0.4,0.8-0.9,1.2-1.4
			l1-1.2l0.5,1.5l1.1,3l-1.6-0.1c1-2.3,2.8-4.3,5-5.4c2.2-1.2,4.7-1.6,7.1-1.7c4.8-0.2,9.4,0.9,13.9,2.2c0,0,1.2,0.4,3.3,1.1
			c2.1,0.7,5,1.9,8.4,3.4c6.9,3,15.7,7.7,24.3,12.9c8.6,5.1,16.9,10.6,23.1,14.9C108.5,171.1,112.5,174.1,112.5,174.1z"/>
	</g>
	<g id="XMLID_3885_">
		<path id="XMLID_39_" d="M93.9,154.6c0,0-1,0.5-2.4,1.5c-1.4,1-3.1,2.5-4,4.5c-0.4,1-0.5,2-0.3,2.9l0.1,0.3l0,0.1c0-0.1,0,0,0,0
			l0.1,0.2c0.1,0.2,0.2,0.5,0.2,0.7c0.1,0.2,0.2,0.3,0.3,0.5c0.1,0.1,0.2,0.2,0.3,0.4c0.2,0.1,0.3,0.2,0.3,0.1
			c0.1,0,0.2-0.1,0.4-0.2c0.3-0.2,0.4-0.4,0.4-0.4c0.3-0.2,0.5-0.5,0.8-0.8c0.1-0.2,0.2-0.3,0.3-0.5c0.1-0.1,0.1-0.1,0.1-0.2
			c0,0,0,0,0,0l0,0l0,0c0,0,0,0,0,0l0.1,0.1l0.3,0.1l0.1,0l0.1,0c-0.2-0.3,0.5,0.6-0.4-0.6l0,0l0,0c0,0.1,0-0.1,0.5-0.3
			c0.3-0.1,0.8,0.1,0.9,0.4c0.2,0.2,0.2,0.4,0.2,0.5l0,0.1l0,0l0,0l0,0.1l0,0.1c-0.1,0.9-0.1,1.7,0.1,2.3c0.1,0.3,0.2,0.5,0.3,0.6
			c0.1,0.1,0.3,0.1,0.6,0.1c0.6-0.1,1.4-0.6,2.1-1l0.5-0.3l0.4,0.3c0.6,0.4,1,0.9,1.4,1.3c0.4,0.4,0.9,0.6,1.3,0.6
			c0.4,0,0.9-0.3,1.3-0.7c0.4-0.4,0.8-0.9,1.2-1.4c1.3-1.9,1.9-4.7,0.9-6.9l0.4,0.1c-1.9,0.4-3.7-0.1-5.2-1
			C96.2,157.4,94.9,156.1,93.9,154.6c1.1,1.4,2.4,2.6,3.9,3.4c1.5,0.8,3.3,1.1,4.9,0.7l0.3-0.1l0.1,0.2c1.2,2.5,0.7,5.4-0.6,7.7
			c-0.4,0.6-0.7,1.1-1.2,1.6c-0.5,0.5-1.1,1-2,1.1c-0.9,0.1-1.7-0.4-2.2-0.8c-0.6-0.4-1-0.8-1.5-1.2l0.9,0c-0.7,0.6-1.5,1.1-2.6,1.4
			c-0.5,0.1-1.3,0.2-1.9-0.2c-0.6-0.4-0.9-1-1.1-1.5c-0.3-1-0.3-2.1-0.3-2.9c0,0,0,0,0,0l0,0.1c0,0.1,0,0.2,0.2,0.5
			c0.1,0.2,0.6,0.5,0.9,0.4c0.5-0.1,0.5-0.3,0.5-0.3l0,0l0,0c0.5-0.8,0.1-0.2,0.3-0.4l0,0l0,0l0,0c0,0.1-0.1,0.2-0.1,0.3
			c-0.1,0.1-0.1,0.2-0.2,0.3c-0.1,0.2-0.3,0.4-0.4,0.6c-0.3,0.4-0.6,0.8-1,1.1c0,0-0.2,0.2-0.8,0.5c-0.3,0.1-0.7,0.3-1.3,0.3
			c-0.2,0-0.3,0-0.5-0.1c-0.2-0.1-0.3-0.1-0.5-0.2c-0.3-0.1-0.5-0.4-0.8-0.6c-0.2-0.2-0.3-0.5-0.5-0.7c-0.1-0.3-0.2-0.5-0.3-0.8
			c-0.1-0.2-0.1-0.5-0.2-0.7l0-0.2l0-0.1l0-0.1l0-0.5c-0.1-1.2,0.2-2.5,0.8-3.6c1.3-2.1,3.3-3.4,4.8-4.3
			C92.9,155,93.9,154.6,93.9,154.6z"/>
	</g>
	<g id="XMLID_3877_">
		<path id="XMLID_38_" d="M77.6,20.4c0,0-0.6,1.9-1,3.8c-0.2,0.9-0.4,1.9-0.5,2.6c-0.1,0.7-0.2,1.2-0.2,1.2s-0.3,0.9-0.6,2.2
			c-0.1,0.7-0.3,1.5-0.3,2.3c0,0.8,0.2,1.7,0.7,2.2c0.5,0.6,1.5,0.8,2.3,0.8c0.9,0,1.7-0.2,2.4-0.4c0.7-0.2,1.3-0.4,1.7-0.5
			c0.4-0.1,0.6-0.2,0.6-0.2s-0.2,0.1-0.6,0.3c-0.4,0.2-0.9,0.5-1.6,0.7c-0.7,0.3-1.5,0.5-2.5,0.7c-0.9,0.1-2.1,0.1-3.1-0.6
			c-0.9-0.8-1.3-1.9-1.5-2.9c-0.2-1-0.1-1.9-0.1-2.7c0.1-1.5,0.3-2.5,0.3-2.5s0.2-0.5,0.5-1.2c0.3-0.7,0.8-1.6,1.2-2.5
			C76.5,22,77.6,20.4,77.6,20.4z"/>
	</g>
	<g id="XMLID_3869_">
		<path id="XMLID_37_" d="M59.7,20.5c0,0,1.1,1.5,2,3.2c0.5,0.8,0.9,1.7,1.2,2.3c0.3,0.7,0.5,1.1,0.5,1.1s0.2,0.9,0.3,2.4
			c0.1,0.7,0.1,1.6-0.1,2.5c-0.1,0.9-0.4,2-1,2.8c-0.6,0.9-1.5,1.5-2.4,1.7c-0.9,0.3-1.7,0.3-2.4,0.3c-0.7-0.1-1.3-0.1-1.7-0.2
			c-0.4-0.1-0.6-0.1-0.6-0.1s0.2,0,0.6,0c0.4,0,1,0,1.7,0c0.7-0.1,1.5-0.2,2.2-0.6c0.7-0.3,1.4-0.9,1.7-1.7c0.7-1.5,0.5-3.3,0.2-4.6
			c-0.3-1.3-0.6-2.1-0.6-2.1s0-0.4-0.1-1.1c-0.1-0.7-0.3-1.6-0.5-2.5C60.4,22.3,59.7,20.5,59.7,20.5z"/>
	</g>
	<g id="XMLID_3861_">
		<path id="XMLID_36_" d="M44,40.5c0,0,0,0.1,0,0.2c0,0.1,0,0.3,0,0.5c0,0.4-0.3,1-0.8,1.4c-0.5,0.4-1.3,0.6-1.8,0.6
			c-0.6,0-0.9-0.1-0.9-0.1S40.3,43,40,42.7c-0.3-0.2-0.6-0.6-0.8-1.1c-0.1-0.3-0.2-0.6-0.2-0.9l0-0.3l0-0.2c0-0.2,0.1-0.4,0.2-0.5
			c0.3-0.6,0.8-1.1,1.4-1.4c1.2-0.5,2.5,0.1,2.9,0.8C44.1,39.9,43.9,40.5,44,40.5c0,0,0-0.6-0.6-1.1c-0.5-0.5-1.6-0.6-2.2-0.1
			c-0.3,0.2-0.5,0.6-0.5,0.9c0,0.1,0,0.1,0,0.2l0,0.2c0,0,0,0,0,0.1c0,0.1,0.1,0.2,0.2,0.3c0.3,0.3,0.6,0.3,0.6,0.3
			c0,0,0.1,0.1,0.3,0.3c0.2,0.1,0.6,0.3,1,0.2c0.4,0,0.8-0.3,1-0.6C43.9,40.7,44,40.5,44,40.5z"/>
	</g>
	<g id="XMLID_3853_">
		<path id="XMLID_34_" d="M107.8,38.5c0,0,0,0.1,0,0.2c0,0.1,0,0.3,0,0.5c0,0.4-0.3,1-0.8,1.4c-0.5,0.4-1.2,0.6-1.8,0.6
			c-0.6,0-0.9-0.1-0.9-0.1s-0.2-0.1-0.4-0.3c-0.3-0.2-0.6-0.6-0.8-1.1c-0.1-0.3-0.2-0.6-0.2-0.9l0-0.3l0-0.2c0-0.2,0.1-0.4,0.2-0.5
			c0.3-0.6,0.8-1.1,1.4-1.4c1.2-0.5,2.5,0.1,2.9,0.8C108,37.9,107.8,38.5,107.8,38.5c0,0,0-0.6-0.6-1.1c-0.5-0.5-1.6-0.6-2.2-0.1
			c-0.3,0.2-0.5,0.6-0.5,0.9c0,0.1,0,0.1,0,0.2l0,0.2c0,0,0,0,0,0.1c0,0.1,0.1,0.2,0.2,0.3c0.3,0.3,0.6,0.3,0.6,0.3
			c0,0,0.1,0.1,0.3,0.3c0.2,0.1,0.6,0.3,1,0.2c0.4,0,0.8-0.3,1-0.6C107.8,38.8,107.8,38.5,107.8,38.5z"/>
	</g>
	<g id="XMLID_3845_">
		<path id="XMLID_28_" d="M37.9,150.1c0,0,0.2-1.2,0.3-2.4c0.2-1.2,0.4-2.5,0.4-2.5s1.2-2.2,2.5-4.2c0.7-1,1.4-2,2.1-2.6
			c0.3-0.3,0.6-0.6,0.9-0.7c0.2-0.1,0.4-0.1,0.4-0.2c0,0-0.6,0.3-1,1c-0.5,0.7-1,1.8-1.4,2.9c-0.9,2.2-1.5,4.5-1.5,4.5s-0.7,1-1.4,2
			C38.5,149,37.9,150.1,37.9,150.1z"/>
	</g>
	<g id="XMLID_3837_">
		<path id="XMLID_27_" d="M98.4,132c0,0-0.1,1.3-0.3,3.2c-0.2,1.9-0.6,4.4-1,6.9c-0.9,5-2.2,10-2.2,10l-0.7,1.9l-0.1-0.8
			c1.4,2.5,4,4.6,6.9,5c0.4,0,0.7,0.1,1.1,0l0.6,0l0.3,0l0.1,0l0,0c0,0,0.1,0-0.1,0l0,0l0,0l0.1,0c0.5-0.1,0.6-0.2,0.9-0.4
			c0.3-0.2,0.5-0.4,0.8-0.7c1-1.1,1.7-2.5,2.3-4c1.2-3,1.9-6.1,2.5-9.3c0.6-3.2,1-6.4,1.3-9.6c-0.1,3.2-0.4,6.4-0.8,9.6
			c-0.4,3.2-1,6.4-2,9.5c-0.5,1.6-1.2,3.1-2.3,4.5c-0.3,0.3-0.6,0.7-1,0.9c-0.4,0.3-1,0.6-1.3,0.6l-0.1,0l0,0l-0.1,0l0,0l-0.1,0
			l-0.3,0l-0.6,0.1c-0.4,0-0.9,0-1.3,0c-1.8-0.1-3.5-0.8-4.9-1.7c-1.4-1-2.6-2.2-3.6-3.7l-0.2-0.3l0.1-0.5l0.5-1.9
			c0,0,1.8-4.7,3.1-9.6c0.7-2.4,1.3-4.9,1.7-6.8C98.2,133.3,98.4,132,98.4,132z"/>
	</g>
	<g id="XMLID_3829_">
		<path id="XMLID_25_" d="M87.6,154.6c0,0-1.4-0.8-3.4-1.9c-2.1-1.1-4.9-2.5-7.7-3.9c-5.6-2.8-11.3-5.2-11.3-5.2s-2.8-1.4-7-3.4
			c-4.2-2-10-4.4-15.9-6.3c-3-0.9-6-1.7-8.9-2.1c-2.9-0.5-5.6-0.6-7.9-0.4c-2.3,0.1-4.2,0.8-5.5,1.3c-0.6,0.3-1.1,0.6-1.4,0.8
			c-0.3,0.2-0.5,0.3-0.5,0.3s0.2-0.1,0.5-0.3c0.3-0.2,0.8-0.5,1.4-0.8c1.2-0.6,3.1-1.3,5.5-1.6c2.3-0.3,5.1-0.3,8.1,0.1
			c2.9,0.4,6,1,9.1,1.8c6.1,1.6,12,3.8,16.4,5.6c4.4,1.8,7.2,3.1,7.2,3.1s5.6,3,10.9,6.2c2.7,1.6,5.4,3.3,7.3,4.6
			C86.3,153.7,87.6,154.6,87.6,154.6z"/>
	</g>
	<g id="XMLID_3821_">
		<path id="XMLID_24_" d="M49.4,94.4c-0.5-0.3-1.2-0.5-1.8-0.3c-0.6,0.2-0.9,0.8-1,1.4l0,0.1l0,0c-0.1-0.1,0.1,0.1,0.3,0.1
			c0.2,0.1,0.3,0.1,0.5,0.2c0.3,0.1,0.7,0.2,1,0.2c0.7,0.1,1.3,0.3,2,0.4c1.3,0.2,2.7,0.4,4,0.5c2.7,0.3,5.4,0.5,8.1,0.6
			c5.4,0.1,10.9-0.1,16.1-1.1c3-0.5,6.1-1.3,8.6-2.8c1.3-0.8,2.4-1.7,3.2-2.9c0.8-1.2,1.3-2.6,1.4-4l0.6,0.8l-24.8-7.5l0.3,0
			l-15.6,7.4l0.1-0.2l1.7,6.2l0,0.1l-0.1,0L49.4,94.4l4.5-1l-0.1,0.1L52,87.4l0-0.1l0.1-0.1l15.4-7.9l0.1-0.1l0.2,0l25,6.7l0.6,0.2
			l0,0.6c-0.1,1.7-0.6,3.4-1.5,4.9c-0.9,1.5-2.3,2.6-3.7,3.5c-2.9,1.8-6.1,2.7-9.2,3.3c-5.5,0.8-11.1,0.6-16.6,0.2
			c-2.7-0.2-5.5-0.6-8.2-1c-1.4-0.2-2.7-0.5-4-0.8c-0.7-0.1-1.3-0.3-2-0.5c-0.3-0.1-0.7-0.2-1-0.3c-0.2-0.1-0.3-0.1-0.5-0.2
			c-0.1,0-0.2-0.1-0.2-0.1c0,0-0.1-0.1-0.1-0.2c0-0.1,0.1-0.2,0.1-0.2l-0.1,0.1c0.2-0.6,0.6-1.3,1.2-1.4
			C48.2,93.9,48.9,94.1,49.4,94.4z"/>
	</g>
	<g id="XMLID_3813_">
		<path id="XMLID_23_" d="M47.8,96.4l1.9-6.3l1.4-2.4l0.9-1.6l0.6,1.6c0.6,1.7,1.1,3.3,1.4,5c0.3,1.7,0.6,3.5,0.3,5.2
			c0-1.7-0.5-3.4-1.1-4.9c-0.6-1.6-1.3-3.1-2.1-4.6l1.5,0l-1,2.6L47.8,96.4z"/>
	</g>
	<g id="XMLID_3804_">
		<path id="XMLID_31_" fill="#FFFFFF" d="M66,83.4c-1.7,4.8-25,7.4-26.2,2.4C40,66.5,63.6,58,68.5,63.6C73.1,68.9,71.8,69.5,66,83.4
			z"/>
		<g id="XMLID_33_">
			<path id="XMLID_35_" d="M66,83.4c-0.4,1.1-1.5,1.8-2.6,2.4c-1.1,0.6-2.2,1-3.3,1.4c-2.3,0.7-4.6,1.2-7,1.6
				c-2.4,0.3-4.8,0.5-7.2,0.4c-1.2-0.1-2.4-0.2-3.7-0.5c-0.6-0.2-1.2-0.4-1.9-0.7c-0.6-0.4-1.3-0.9-1.6-1.9l0-0.1l0-0.1
				c0-0.8,0-1.7,0.1-2.5c0,0,0-0.2,0.1-0.7c0-0.5,0.2-1.1,0.4-2c0.4-1.7,1.2-4.1,2.9-6.7c1.6-2.5,3.9-5.2,6.9-7.4
				c3-2.2,6.6-3.9,10.4-4.8c1.9-0.4,3.9-0.6,5.9-0.2c1,0.2,1.9,0.6,2.7,1.2c0.2,0.2,0.4,0.4,0.5,0.5l0.4,0.5
				c0.3,0.3,0.6,0.7,0.8,1.1c0.5,0.8,1,1.5,1.2,2.5c0.2,0.9,0.2,1.8,0.1,2.6c-0.3,1.7-1,3.1-1.5,4.5C67.6,79.9,66,83.4,66,83.4
				s1.4-3.6,3.6-8.9c0.5-1.3,1.1-2.8,1.3-4.4c0.1-0.8,0.1-1.6-0.1-2.4c-0.2-0.8-0.7-1.5-1.2-2.2c-0.3-0.3-0.5-0.7-0.9-1l-0.5-0.5
				c-0.1-0.2-0.3-0.3-0.5-0.4c-0.7-0.5-1.5-0.8-2.4-1c-1.8-0.3-3.7-0.1-5.5,0.4c-3.6,0.9-7,2.7-9.8,4.9c-2.8,2.2-4.9,4.7-6.3,7.1
				c-1.4,2.4-2.1,4.6-2.4,6.2c-0.3,1.6-0.4,2.5-0.4,2.5c-0.2,0.7-0.2,1.5-0.2,2.3l0-0.2c0,0.5,1,1.1,2,1.4c1,0.3,2.2,0.5,3.3,0.7
				c2.3,0.2,4.6,0.2,7,0.1c2.3-0.2,4.7-0.5,6.9-1.1c1.1-0.3,2.3-0.6,3.3-1.1C64.4,85.1,65.5,84.5,66,83.4z"/>
		</g>
	</g>
	<g id="XMLID_3795_">
		<path id="XMLID_29_" fill="#FFFFFF" d="M70.6,85.1c1.7,4.8,24.4,4.4,25.6-0.6C96,65.1,72.5,56.6,67.6,62.3
			C62.9,67.5,64.8,71.2,70.6,85.1z"/>
		<g id="XMLID_30_">
			<path id="XMLID_32_" d="M70.6,85.1c0.5,1.1,1.6,1.6,2.7,2c1.1,0.4,2.2,0.6,3.3,0.7c2.3,0.3,4.6,0.3,6.9,0.2
				c2.3-0.1,4.6-0.4,6.7-0.9c1.1-0.3,2.2-0.6,3.1-1.1c0.9-0.4,1.8-1.1,1.9-1.7l0,0.2l-0.2-1.8c-0.1-0.6-0.2-1.2-0.3-1.8
				c0,0,0-0.2-0.1-0.7c-0.1-0.4-0.2-1.1-0.4-1.9c-0.5-1.6-1.3-3.8-2.9-6.2c-1.6-2.4-3.9-4.8-6.9-6.9c-3-2-6.6-3.7-10.4-4.2
				c-1.9-0.2-3.9-0.2-5.4,0.7c-0.2,0.1-0.4,0.2-0.5,0.4c-0.2,0.2-0.3,0.3-0.5,0.5c-0.3,0.4-0.6,0.7-0.9,1.1
				c-0.6,0.7-0.9,1.6-1.2,2.4c-0.5,1.7-0.3,3.5,0.1,5.1c0.4,1.6,0.9,3.1,1.4,4.5c1,2.8,1.9,5.1,2.6,6.7
				C70.2,84.1,70.6,85.1,70.6,85.1s-0.4-0.9-1.1-2.5c-0.7-1.6-1.7-3.8-2.8-6.6c-0.5-1.4-1.1-2.9-1.6-4.5c-0.4-1.6-0.7-3.5-0.2-5.4
				c0.3-0.9,0.7-1.8,1.2-2.6c0.3-0.4,0.6-0.8,0.9-1.2c0.3-0.4,0.7-0.8,1.2-1.1c1.8-1.1,4-1.2,6-1c4,0.4,7.9,2,11,4
				c3.2,2,5.8,4.6,7.6,7c1.8,2.5,2.8,4.9,3.4,6.6c0.3,0.9,0.5,1.5,0.5,2c0.1,0.5,0.2,0.7,0.2,0.7c0.1,0.7,0.1,1.3,0.2,2
				c0,0.7,0,1.3,0,2l0,0.1l0,0.1c-0.2,0.9-0.8,1.4-1.4,1.8c-0.6,0.4-1.1,0.7-1.7,0.9c-1.2,0.5-2.3,0.7-3.5,0.9
				c-2.3,0.4-4.7,0.5-7,0.5c-2.3,0-4.7-0.2-7-0.7c-1.1-0.2-2.3-0.5-3.4-1C72.2,86.8,71,86.2,70.6,85.1z"/>
		</g>
	</g>
	<g id="XMLID_3787_">
		<path id="XMLID_22_" d="M84.5,96l0.7-7.6l0.4-1.2l0.6-2.1l1.1,1.7l3.7,5.9l0.3,0.4L91,93.3C88.9,94.6,86.8,95.4,84.5,96
			c2.1-0.8,4.2-2,5.9-3.4l-0.1,0.6l-4.5-5.3l1.7-0.4l-0.2,1.3L84.5,96z"/>
	</g>
	<g id="XMLID_3779_">
		<path id="XMLID_21_" d="M56.8,116.2c0,0,0,0.1-0.1,0.3c-0.1,0.2-0.1,0.5-0.4,0.8c-0.4,0.7-1.3,1.3-2.4,1.6c-1,0.3-2.2,0.2-3,0
			c-0.8-0.2-1.4-0.5-1.4-0.5s-0.2-0.2-0.6-0.5c-0.4-0.4-0.9-0.9-1.2-1.9c-0.1-0.4-0.2-1-0.1-1.5c0-0.2,0-0.2,0.1-0.5
			c0-0.1,0.1-0.2,0.1-0.3c0.1-0.3,0.3-0.6,0.5-0.8c0.8-0.9,1.9-1.3,2.9-1.4c2.1-0.2,4.1,0.9,4.9,2.2c0.4,0.6,0.6,1.3,0.6,1.7
			c0,0.2,0,0.4-0.1,0.5C56.8,116.1,56.8,116.2,56.8,116.2s0-0.1,0-0.2c0-0.1,0-0.3,0-0.5c-0.1-0.4-0.3-1-0.7-1.5
			c-0.9-1.1-2.8-1.8-4.5-1.4c-0.8,0.2-1.6,0.6-1.9,1.2c-0.1,0.1-0.1,0.3-0.2,0.4c0,0.1,0,0.2-0.1,0.3c0,0,0,0.1,0,0.2
			c0,0.3,0.1,0.5,0.2,0.7c0.5,0.9,1.3,1.2,1.3,1.2c0,0,0.3,0.3,0.8,0.6c0.6,0.3,1.3,0.6,2.2,0.6c0.9,0,1.8-0.3,2.3-0.7
			c0.3-0.2,0.4-0.5,0.5-0.6C56.7,116.3,56.8,116.2,56.8,116.2z"/>
	</g>
	<g id="XMLID_3771_">
		<path id="XMLID_19_" d="M69.5,118.2c0,0,0,0.1,0,0.3c0,0.2-0.1,0.5-0.3,0.9c-0.4,0.7-1.3,1.4-2.3,1.7c-1,0.4-2.2,0.3-3,0.2
			c-0.9-0.1-1.4-0.4-1.4-0.4s-0.3-0.1-0.6-0.5c-0.4-0.3-0.9-0.9-1.3-1.8c-0.2-0.4-0.3-1-0.2-1.5c0-0.2,0-0.2,0.1-0.5
			c0-0.1,0.1-0.2,0.1-0.3c0.1-0.3,0.3-0.6,0.4-0.8c0.7-0.9,1.8-1.4,2.9-1.5c2.1-0.3,4.2,0.7,5.1,1.9c0.5,0.6,0.6,1.2,0.6,1.7
			c0,0.2,0,0.4,0,0.5C69.5,118.1,69.5,118.2,69.5,118.2s0-0.1,0-0.2c0-0.1,0-0.3,0-0.5c-0.1-0.4-0.3-1-0.8-1.5
			c-0.9-1-2.9-1.6-4.6-1.1c-0.8,0.2-1.6,0.7-1.9,1.3c-0.1,0.1-0.1,0.3-0.1,0.4c0,0.1,0,0.2-0.1,0.3c0,0,0,0.1,0,0.2
			c0,0.3,0.1,0.5,0.2,0.7c0.5,0.9,1.4,1.2,1.3,1.2c0,0,0.3,0.3,0.8,0.5c0.6,0.3,1.4,0.5,2.3,0.5c0.9,0,1.7-0.4,2.2-0.9
			c0.3-0.2,0.4-0.5,0.5-0.7C69.4,118.3,69.5,118.2,69.5,118.2z"/>
	</g>
	<g id="XMLID_3763_">
		<path id="XMLID_18_" d="M81.5,118.4c0,0,0,0.1,0,0.3c0,0.2,0,0.5-0.2,0.9c-0.3,0.7-1,1.6-2,2.1c-0.9,0.5-2.1,0.7-2.9,0.7
			c-0.9,0-1.4-0.2-1.4-0.2s-0.3-0.1-0.7-0.4c-0.4-0.3-1.1-0.7-1.6-1.5c-0.2-0.4-0.4-0.9-0.5-1.5c0-0.2,0-0.2,0-0.5
			c0-0.1,0-0.2,0-0.3c0.1-0.3,0.2-0.6,0.3-0.9c0.5-1,1.5-1.7,2.6-2c2.1-0.6,4.2,0,5.3,1c0.6,0.5,0.8,1.1,0.9,1.5
			c0,0.2,0.1,0.4,0.1,0.5C81.5,118.3,81.5,118.4,81.5,118.4s0-0.1,0-0.2c0-0.1-0.1-0.3-0.1-0.5c-0.1-0.4-0.5-0.9-1-1.3
			c-1.1-0.8-3.2-1.1-4.7-0.3c-0.8,0.4-1.4,1-1.6,1.6c-0.1,0.2-0.1,0.3-0.1,0.4c0,0.1,0,0.2,0,0.3c0,0,0,0.1,0,0.2
			c0.1,0.3,0.2,0.5,0.3,0.7c0.7,0.8,1.5,0.9,1.5,0.9c0,0,0.3,0.2,0.9,0.4c0.6,0.2,1.4,0.3,2.3,0.1c0.9-0.2,1.6-0.7,2-1.2
			c0.2-0.3,0.3-0.6,0.4-0.7C81.4,118.5,81.5,118.4,81.5,118.4z"/>
	</g>
	<g id="XMLID_3755_">
		<path id="XMLID_17_" d="M92.8,116.8c0,0,0,0.1,0.1,0.3c0,0.2,0.1,0.5,0,0.9c-0.1,0.8-0.8,1.7-1.6,2.3c-0.8,0.7-2,1-2.8,1.1
			c-0.9,0.1-1.4,0-1.4,0s-0.3-0.1-0.8-0.3c-0.5-0.2-1.2-0.6-1.8-1.3c-0.3-0.4-0.6-0.8-0.7-1.4c0-0.2,0-0.2-0.1-0.5
			c0-0.1,0-0.2,0-0.3c0-0.3,0.1-0.6,0.2-0.9c0.4-1.1,1.3-1.9,2.2-2.4c1.9-0.9,4.2-0.6,5.4,0.2c0.6,0.4,1,1,1.1,1.4
			c0.1,0.2,0.1,0.4,0.1,0.5C92.8,116.8,92.8,116.8,92.8,116.8s0-0.1,0-0.2c0-0.1-0.1-0.3-0.2-0.4c-0.2-0.4-0.6-0.8-1.2-1.1
			c-1.2-0.7-3.3-0.6-4.7,0.4c-0.7,0.5-1.2,1.2-1.3,1.8c0,0.2,0,0.3,0,0.4c0,0.1,0,0.2,0,0.3c0,0,0,0.1,0.1,0.2
			c0.1,0.3,0.3,0.5,0.4,0.6c0.8,0.7,1.7,0.7,1.6,0.7c0,0,0.4,0.2,0.9,0.2c0.6,0.1,1.5,0.1,2.3-0.3c0.8-0.3,1.5-0.9,1.8-1.5
			c0.2-0.3,0.2-0.6,0.3-0.8C92.8,116.9,92.8,116.8,92.8,116.8z"/>
	</g>
	<g id="XMLID_3747_">
		<path id="XMLID_16_" d="M102.8,113.9c0,0,0,0.1,0.1,0.3c0,0.2,0.1,0.5,0,0.9c-0.1,0.8-0.6,1.8-1.4,2.5c-0.8,0.7-1.9,1.2-2.6,1.4
			c-0.8,0.2-1.4,0.2-1.4,0.2s-0.3,0-0.8-0.2c-0.5-0.2-1.2-0.4-1.9-1.1c-0.3-0.3-0.6-0.8-0.8-1.3c0-0.2-0.1-0.2-0.1-0.5
			c0-0.1,0-0.2,0-0.3c0-0.3,0-0.6,0.1-0.9c0.3-1.1,1.1-2,2-2.6c1.8-1.1,4.1-1,5.4-0.2c0.7,0.4,1.1,0.9,1.3,1.3
			c0.1,0.2,0.1,0.4,0.2,0.5C102.8,113.8,102.8,113.9,102.8,113.9s0-0.1-0.1-0.2c0-0.1-0.1-0.3-0.2-0.4c-0.2-0.3-0.7-0.8-1.3-1
			c-1.3-0.5-3.3-0.3-4.7,0.8c-0.7,0.5-1.1,1.3-1.2,1.9c0,0.2,0,0.3,0,0.4c0,0.1,0,0.2,0.1,0.3c0,0,0.1,0.1,0.1,0.2
			c0.1,0.2,0.3,0.4,0.5,0.6c0.8,0.6,1.7,0.5,1.7,0.5c0,0,0.4,0.1,1,0.2c0.1,0,0.1,0,0.2,0c0.1,0,0.2,0,0.3,0c0.2,0,0.4,0,0.6-0.1
			c0.4-0.1,0.8-0.2,1.2-0.4c0.8-0.4,1.4-1,1.7-1.7c0.1-0.3,0.2-0.6,0.2-0.8C102.9,114,102.8,113.9,102.8,113.9z"/>
	</g>
	<g id="XMLID_3739_">
		<path id="XMLID_20_" d="M107.5,112.1c0,0,0.1,0.3,0.3,0.8c0.1,0.5,0.2,1.2-0.1,2c-0.1,0.4-0.4,0.8-0.8,1c-0.2,0.1-0.4,0.2-0.6,0.3
			c0,0-0.5,0.1-0.6,0.1c-0.4,0-0.7-0.1-0.9-0.2c-0.2-0.1-0.3-0.1-0.3-0.1s-0.2-0.1-0.4-0.4c-0.2-0.3-0.5-0.7-0.7-1.3
			c-0.4-1.1-0.5-2.7,0.4-4c0.2-0.3,0.5-0.6,0.9-0.8c0.1,0,0.2-0.1,0.3-0.1c0.1,0,0.1,0,0.2,0l0.1,0c0.2,0,0.4,0,0.6,0.1
			c0.7,0.3,1.1,0.8,1.3,1.2c0.2,0.4,0.3,0.8,0.4,1.1C107.5,111.9,107.5,112.1,107.5,112.1s0-0.2-0.2-0.4c-0.1-0.3-0.3-0.6-0.6-1
			c-0.3-0.3-0.7-0.7-1.2-0.8c-0.1,0-0.2,0-0.3,0l-0.1,0c0,0,0,0-0.1,0c0,0-0.1,0-0.1,0.1c-0.2,0.1-0.3,0.3-0.4,0.5
			c-0.4,0.9,0,2.1,0.4,2.7c0.2,0.3,0.4,0.5,0.5,0.6c0.1,0.1,0.2,0.1,0.2,0.1s0.1,0.2,0.2,0.3c0,0,0,0,0,0l0,0l0.1,0c0,0,0.1,0,0.2,0
			c0.1,0,0.3-0.1,0.5-0.3c0.4-0.4,0.6-1,0.7-1.4C107.5,112.4,107.5,112.1,107.5,112.1z"/>
	</g>
	<g id="XMLID_3730_">
		<path id="XMLID_26_" fill="#FFFFFF" d="M48.5,106.6c0,0,17.7,26.7,41.9,2"/>
		<g id="XMLID_290_">
			<path id="XMLID_292_" d="M48.5,106.6c0,0,0.6,0.8,1.7,1.9c1.1,1.1,2.6,2.5,4.2,3.7c1.6,1.2,3.4,2.3,4.7,2.9
				c0.7,0.3,1.2,0.6,1.6,0.7c0.4,0.2,0.6,0.2,0.6,0.2s0.1,0.1,0.3,0.2c0.2,0.1,0.5,0.3,0.9,0.4c0.8,0.3,1.9,0.8,3.4,1.1
				c2.9,0.7,6.9,0.7,10.8-0.5c3.9-1.2,7.3-3.5,9.8-5.4c0.6-0.5,1.2-0.9,1.6-1.3c0.5-0.4,0.9-0.8,1.2-1.1c0.7-0.6,1.1-0.9,1.1-0.9
				s-0.4,0.4-1,1c-0.3,0.3-0.7,0.7-1.1,1.2c-0.5,0.4-1,0.9-1.6,1.4c-2.3,2-5.7,4.6-9.6,6.1c-3.9,1.6-8.3,1.9-11.5,1.3
				c-1.6-0.2-2.9-0.7-3.8-1c-0.5-0.1-0.8-0.3-1-0.4c-0.2-0.1-0.4-0.1-0.4-0.1s-0.2-0.1-0.7-0.3c-0.4-0.3-1-0.6-1.6-1
				c-1.3-0.9-3-2.2-4.5-3.7c-1.5-1.5-2.8-3.1-3.8-4.3C49,107.5,48.5,106.6,48.5,106.6z"/>
		</g>
	</g>
	<g id="XMLID_7_">
		<path id="XMLID_297_" fill="#FFFFFF" d="M53.8,64.3c0,0-1.5-5,6.5-4.6l16.4-0.4c0,0,7,0.9,2.9,6c0,0-8,15-12.1,15.4
			C62.6,80.8,53.8,64.3,53.8,64.3z"/>
		<g id="XMLID_298_">
			<path id="XMLID_300_" d="M53.8,64.3c-0.2-0.8-0.2-1.6,0.1-2.4c0.3-0.8,1-1.4,1.7-1.7c1.5-0.8,3.2-0.8,4.8-0.9l0,0l16-1.1l0.3,0
				l0.1,0l0.1,0c0.9,0.2,1.6,0.4,2.4,0.7c0.8,0.4,1.6,0.9,2.1,1.8c0.6,0.9,0.6,2.1,0.2,2.9c-0.1,0.4-0.4,0.8-0.6,1.2l-0.7,1l0.1-0.1
				c-1.7,2.9-3.5,5.7-5.4,8.5c-1,1.4-2,2.7-3.1,4c-0.6,0.6-1.2,1.2-1.8,1.8c-0.7,0.5-1.4,1.1-2.4,1.2l0,0l0,0
				c-1.1-0.1-2-0.6-2.7-1.2c-0.7-0.6-1.4-1.2-2-1.9c-1.2-1.4-2.3-2.9-3.4-4.4C57.4,70.7,55.5,67.6,53.8,64.3
				c1.8,3.2,3.8,6.2,5.9,9.2c1.1,1.5,2.2,2.9,3.5,4.2c0.6,0.6,1.3,1.3,2,1.8c0.7,0.5,1.5,0.9,2.2,0.9l0,0c0.6-0.1,1.3-0.6,1.9-1.1
				c0.6-0.5,1.1-1.1,1.7-1.8c1-1.2,2-2.6,2.9-4c1.8-2.8,3.4-5.6,5-8.6l0-0.1l0.1-0.1c0.9-1.1,1.3-2.3,0.8-3
				c-0.5-0.8-1.9-1.3-3.2-1.4l0.2,0l-0.3,0l-16-0.2l0,0c-1.5-0.1-3.1-0.2-4.6,0.4c-0.7,0.3-1.3,0.8-1.7,1.5
				C53.8,62.8,53.7,63.6,53.8,64.3z"/>
		</g>
	</g>
</g>
</svg>
