<?xml version="1.0" encoding="utf-8"?>
<!-- Generator: Adobe Illustrator 19.0.0, SVG Export Plug-In . SVG Version: 6.00 Build 0)  -->
<svg version="1.2" baseProfile="tiny" id="Capa_1" xmlns="http://www.w3.org/2000/svg" xmlns:xlink="http://www.w3.org/1999/xlink"
	 x="0px" y="0px" viewBox="0 0 237.4 231.4" xml:space="preserve">
<g id="XMLID_2_">
	<g id="g3011_2_">
		<g id="g3017_2_" transform="translate(260.6665,300.666)">
			<g id="path3019_2_" inkscape:connector-curvature="0">
				<path id="XMLID_98_" fill="#DEBE94" d="M-159.6-120.8c0,0-14.6,25.3,9.9,50c0,0,1.3,1.8,2.6,0c1.3-1.8,7.4-13.6,11.5-28.6
					c0,0,7.1,24.3,11.9,28c0,0,1.9,3.2,3.7-0.4c1.8-3.7,21.8-20.8,6.7-51L-159.6-120.8z"/>
				<g id="XMLID_99_">
					<path id="XMLID_101_" fill="#FFFFFF" d="M-159.6-120.8c-2.1,4.1-3.2,8.5-3.8,13c-0.5,4.5-0.3,9.1,0.7,13.5
						c0.5,2.2,1.2,4.4,2,6.4c0.4,1.1,0.9,2.1,1.4,3.1c0.6,1,1,2,1.7,2.9c2.3,3.8,5.2,7.3,8.4,10.5l0,0l0.1,0.1
						c0.1,0.2,0.4,0.4,0.6,0.4c0.1,0,0.2,0,0.4-0.2c0.1-0.1,0.2-0.2,0.3-0.3c0.1-0.2,0.2-0.4,0.3-0.5c0.2-0.3,0.4-0.7,0.6-1.1
						c0.8-1.5,1.5-3,2.2-4.6c1.4-3.1,2.7-6.3,3.8-9.5c1.6-4.2,3-8.4,4.2-12.7l0.9-3.3l0.9,3.3c1.4,4.9,3,9.7,4.7,14.5
						c0.9,2.4,1.8,4.7,2.9,7c0.5,1.1,1.1,2.3,1.7,3.3c0.6,1.1,1.3,2.1,2.1,2.8l0.1,0.1l0.1,0.1c0.2,0.4,0.7,0.8,1,0.9
						c0.1,0,0.2,0.1,0.4,0c0.1,0,0.1-0.1,0.2-0.1l0.2-0.2c0.2-0.2,0.3-0.4,0.4-0.7l0.2-0.4c0.1-0.1,0.2-0.3,0.3-0.4
						c0.4-0.6,0.8-1.1,1.2-1.6c1.6-2,3.1-3.9,4.4-6c2.7-4.1,4.7-8.7,5.7-13.6c1-4.8,1-9.9,0.1-14.7c-0.8-4.9-2.6-9.6-4.8-14.1
						l0.3,0.2L-159.6-120.8l46.2-2.4l0.2,0l0.1,0.2c2.2,4.5,4.1,9.2,5,14.2c1,5,1,10.1,0.1,15.1c-1,5-3,9.8-5.7,14.1
						c-1.3,2.2-2.9,4.2-4.4,6.2c-0.4,0.5-0.8,1-1.1,1.4c-0.1,0.1-0.2,0.2-0.2,0.4l-0.2,0.4c-0.1,0.3-0.4,0.6-0.6,0.9
						c-0.1,0.1-0.3,0.3-0.4,0.4c-0.2,0.1-0.4,0.3-0.6,0.4c-0.4,0.2-1,0.2-1.4,0.1c-0.9-0.3-1.3-0.9-1.8-1.6l0.2,0.2
						c-1.2-1-1.9-2.1-2.6-3.2c-0.7-1.1-1.3-2.3-1.8-3.4c-1.1-2.3-2.1-4.7-3-7.1c-1.8-4.8-3.5-9.6-5-14.5l1.9,0
						c-1.2,4.4-2.5,8.7-4.1,12.9c-1.3,3.2-2.7,6.4-4.2,9.5c-0.8,1.6-1.5,3.1-2.4,4.6c-0.2,0.4-0.4,0.8-0.7,1.2
						c-0.1,0.2-0.2,0.4-0.4,0.5c-0.2,0.2-0.3,0.4-0.6,0.6c-0.2,0.2-0.5,0.4-0.8,0.5c-0.4,0.1-0.8,0.1-1.1,0
						c-0.7-0.2-1.1-0.6-1.4-1.1l0.1,0.1c-3.2-3.3-6-7-8.3-11c-0.6-1-1.1-2-1.6-3.1c-0.4-1.1-1-2.1-1.3-3.2c-0.8-2.1-1.4-4.4-1.9-6.6
						c-0.9-4.5-1-9.2-0.3-13.7C-163.1-112.4-161.8-116.8-159.6-120.8z"/>
				</g>
			</g>
		</g>
		<g id="g3021_2_" transform="translate(260.6665,300.666)">
			<g id="path3023_2_">
				<path id="XMLID_61_" fill="#18180F" d="M-159.6-120.8c-2.1,4.1-3.2,8.5-3.8,13c-0.5,4.5-0.3,9.1,0.7,13.5c0.5,2.2,1.2,4.4,2,6.4
					c0.4,1.1,0.9,2.1,1.4,3.1c0.6,1,1,2,1.7,2.9c2.3,3.8,5.2,7.3,8.4,10.5l0,0l0.1,0.1c0.1,0.2,0.4,0.4,0.6,0.4c0.1,0,0.2,0,0.4-0.2
					c0.1-0.1,0.2-0.2,0.3-0.3c0.1-0.2,0.2-0.4,0.3-0.5c0.2-0.3,0.4-0.7,0.6-1.1c0.8-1.5,1.5-3,2.2-4.6c1.4-3.1,2.7-6.3,3.8-9.5
					c1.6-4.2,3-8.4,4.2-12.7l0.9-3.3l0.9,3.3c1.4,4.9,3,9.7,4.7,14.5c0.9,2.4,1.8,4.7,2.9,7c0.5,1.1,1.1,2.3,1.7,3.3
					c0.6,1.1,1.3,2.1,2.1,2.8l0.1,0.1l0.1,0.1c0.2,0.4,0.7,0.8,1,0.9c0.1,0,0.2,0.1,0.4,0c0.1,0,0.1-0.1,0.2-0.1l0.2-0.2
					c0.2-0.2,0.3-0.4,0.4-0.7l0.2-0.4c0.1-0.1,0.2-0.3,0.3-0.4c0.4-0.6,0.8-1.1,1.2-1.6c1.6-2,3.1-3.9,4.4-6
					c2.7-4.1,4.7-8.7,5.7-13.6c1-4.8,1-9.9,0.1-14.7c-0.8-4.9-2.6-9.6-4.8-14.1l0.3,0.2L-159.6-120.8l46.2-2.4l0.2,0l0.1,0.2
					c2.2,4.5,4.1,9.2,5,14.2c1,5,1,10.1,0.1,15.1c-1,5-3,9.8-5.7,14.1c-1.3,2.2-2.9,4.2-4.4,6.2c-0.4,0.5-0.8,1-1.1,1.4
					c-0.1,0.1-0.2,0.2-0.2,0.4l-0.2,0.4c-0.1,0.3-0.4,0.6-0.6,0.9c-0.1,0.1-0.3,0.3-0.4,0.4c-0.2,0.1-0.4,0.3-0.6,0.4
					c-0.4,0.2-1,0.2-1.4,0.1c-0.9-0.3-1.3-0.9-1.8-1.6l0.2,0.2c-1.2-1-1.9-2.1-2.6-3.2c-0.7-1.1-1.3-2.3-1.8-3.4
					c-1.1-2.3-2.1-4.7-3-7.1c-1.8-4.8-3.5-9.6-5-14.5l1.9,0c-1.2,4.4-2.5,8.7-4.1,12.9c-1.3,3.2-2.7,6.4-4.2,9.5
					c-0.8,1.6-1.5,3.1-2.4,4.6c-0.2,0.4-0.4,0.8-0.7,1.2c-0.1,0.2-0.2,0.4-0.4,0.5c-0.2,0.2-0.3,0.4-0.6,0.6
					c-0.2,0.2-0.5,0.4-0.8,0.5c-0.4,0.1-0.8,0.1-1.1,0c-0.7-0.2-1.1-0.6-1.4-1.1l0.1,0.1c-3.2-3.3-6-7-8.3-11c-0.6-1-1.1-2-1.6-3.1
					c-0.4-1.1-1-2.1-1.3-3.2c-0.8-2.1-1.4-4.4-1.9-6.6c-0.9-4.5-1-9.2-0.3-13.7C-163.1-112.4-161.8-116.8-159.6-120.8z"/>
			</g>
		</g>
	</g>
	<g id="g3033_2_" transform="translate(109.6001,584)">
		<g id="path3035_2_" inkscape:connector-curvature="0">
			<path id="XMLID_93_" fill="#DEBE94" d="M-72.1-520.6c0,0,3.1,77.5,28.2,77.5c25.1,0,11.3-34.2,11.3-34.2l-23.8-43.3H-72.1z"/>
			<g id="XMLID_95_">
				<path id="XMLID_97_" fill="#FFFFFF" d="M-72.1-520.6c0,0,0.2,4.1,0.9,10.2c0.6,6.1,1.7,14.2,3.2,22.2c1.5,8,3.5,15.9,5.5,21.7
					c1,2.9,1.9,5.2,2.7,6.8c0.4,0.8,0.7,1.4,0.9,1.8c0.2,0.4,0.3,0.6,0.3,0.6c1.2,2.4,2.5,4.8,4.1,6.9c1.6,2.1,3.5,3.9,5.8,5.1
					c1.1,0.6,2.4,1,3.6,1.1c0.3,0.1,0.6,0,0.9,0.1l0.2,0c0,0,0.1,0,0.1,0l0.1,0l0.5,0c0.7,0,1.4,0,2-0.1c2.5-0.3,5.1-1.1,7.1-2.7
					c2-1.6,3.3-4,3.9-6.5c0.7-2.5,0.8-5.3,0.6-7.9c-0.4-5.4-1.7-10.7-3.5-15.8l0,0.1l-23.4-43.5l0.1,0.1L-72.1-520.6l15.7-0.1l0.1,0
					l0,0.1l24.1,43.1l0,0l0,0c2,5.2,3.4,10.6,3.9,16.1c0.2,2.8,0.2,5.6-0.5,8.4c-0.6,2.8-2.1,5.5-4.3,7.4c-2.3,1.9-5.1,2.8-8,3.2
					c-0.7,0.1-1.4,0.1-2.1,0.2l-0.5,0l-0.1,0c-0.1,0-0.1,0-0.2,0l-0.3,0c-0.4,0-0.7,0-1.1-0.1c-1.5-0.2-2.9-0.6-4.2-1.2
					c-2.6-1.3-4.8-3.3-6.5-5.6c-1.8-2.2-3.2-4.7-4.4-7.2c0,0-0.1-0.2-0.3-0.7c-0.2-0.4-0.5-1.1-0.8-1.9c-0.7-1.7-1.6-4.1-2.5-7.1
					c-1.8-5.9-3.6-14-4.8-22.1c-1.3-8.1-2-16.3-2.5-22.4C-72-516.5-72.1-520.6-72.1-520.6z"/>
			</g>
		</g>
	</g>
	<g id="XMLID_395_">
		<path id="XMLID_90_" fill="#DEBE94" d="M56.1,127.6c0.7-5.3,3.8-22.2-9-33.4l-4.7-2.2c0,0,5.3-5.9,5.8-16.4l15.7,58.4
			C59.3,132.2,55.8,129.9,56.1,127.6"/>
		<g id="XMLID_92_">
			<path id="XMLID_94_" fill="#FFFFFF" d="M56.1,127.6c0.8-6,1-12.1-0.5-17.9c-0.7-2.9-1.8-5.7-3.4-8.2c-1.6-2.5-3.5-4.7-5.7-6.6
				l0.2,0.1l-4.8-2.1l-1.2-0.5l0.8-1.1c0.3-0.4,0.7-0.9,1-1.4c2.8-4.2,4.4-9.2,4.7-14.3l0.4-5.4l1.3,5.2L64,133.9l0.1,0.2l-0.2-0.1
				c-1.6-0.7-3.2-1.4-4.7-2.4c-0.7-0.5-1.4-1-2-1.7c-0.3-0.3-0.5-0.7-0.7-1.1C56.2,128.5,56.1,128,56.1,127.6c0,0.4,0,0.9,0.2,1.3
				c0.2,0.4,0.4,0.8,0.7,1.1c0.6,0.6,1.3,1.2,2.1,1.6c1.5,0.9,3.1,1.6,4.7,2.2l-0.2,0.2L47.4,75.8l1.7-0.2
				C48.8,81,47.3,86.4,44.4,91c-0.4,0.6-0.8,1.1-1.2,1.6L42.8,91l4.7,2.4l0.1,0.1l0.1,0.1c2.2,2.2,4.2,4.6,5.7,7.3
				c1.5,2.7,2.5,5.7,3.1,8.7C57.7,115.5,57.2,121.7,56.1,127.6z"/>
		</g>
	</g>
	<path id="XMLID_391_" fill="#DEBE94" d="M237.4,64.8c-0.4-12.4-3.8-32.4-26.7-29.6c0,0-8.9-4.7-25.2-3.7c0,0-21.3-4.1-26.3-2.6
		c-5,1.5-8.6-5.3-32.3-0.3c-23.7,5-13.4-2.9-34.1,1.2c-20.7,4-17.4,0-17.4,0s-29.9,4.7-39.9,14.6c0,0-59.9,0.7-22,51.9
		c0,0-12.8,32.6,11.7,43.1l0.6,14.2c0,0,3.8,8.1,43.7,1l0.2,0.6c0,0-2.1,7.4,14,10.1c0,0-0.3,2,0.3,4.4c0.1,0.1,0.2,0.2,0.3,0.3
		c0.3,0.3,0.6,0.6,0.7,1c0.3,0.8,0.5,1.6,1,2.3c0.2,0.3,0.3,0.4,0.5,0.6c0.2,0.2,0.3,0.4,0.5,0.6c0,0.1,0.1,0.1,0.1,0.1
		c0.1,0.1,0.1,0.1,0.2,0.2c0.5,0.2,0.9,0.7,1,1.3c0.2,0.4,0.3,0.8,0.3,1.2c0.1,0.2,0.1,0.4,0.1,0.6c0.8,1.6,2.5,3.6,5.8,5
		c0.1,0,0.2,0,0.3,0c0.7,0,1.2,0.3,1.5,0.7c0,0,0.1,0,0.1,0c0,0,1.7,1.9,7,2.7c0.3-0.2,0.7-0.3,1.2-0.3c1.2,0,2.4,0.4,3.6,0.3
		c0.7-0.1,1.4-0.1,2.1,0.1c0.2-0.1,0.4-0.1,0.6-0.1c0.3,0,0.6,0.1,0.9,0.2c6.4-0.3,18.1-0.7,21.5,0.2c0,0,11.4-0.5,15.4-0.9
		c0.1-0.1,0.3-0.2,0.4-0.3c0.3-0.5,0.9-0.8,1.6-0.8c0.1,0,0.2,0,0.3,0c2.1-1.9,6.9-6.4,8-9.8c0,0,9.6-10.4,9.9-12.4
		c0,0,9.7-6.9,12.1-16.3c0,0,31.1,3,33.8,1.1l1.6-1.6c0,0,4.8,0.3,5.9-4.7c1.1-5,0-9.2,0-13.1c0,0,5.4-4,7.7-9c2.2-5,2.9-7,3.2-9.6
		c0.3-2.6,1.5-9.8-5.1-21.9l-1.5-2.5C226.5,85,237.8,77.2,237.4,64.8"/>
	<g id="g3041_2_" transform="translate(453.3125,385.75)">
		<g id="path3043_2_" inkscape:connector-curvature="0">
			<path id="XMLID_87_" fill="#DEBE94" d="M-272.3-239.5c0,0-21.7-0.5-26.2,1.7l-6.4-1.8c0,0-9.9,2.1-12.5,0.9
				c-2.6-1.2-11.2-10.1-7.7-19.9c3.6-9.8,10-6.7,11.9-5.2c0,0-0.4-5.2,5.4-2.9c5.8,2.3,4.4,6.1,5.4,6.7c1,0.6,2.3,4.2,11.9,3.3
				c0,0,29.4-9.3,31.1-10.6c0,0-18.6-11.3,0-35.3c0,0-11.7-24.8,6.9-42.6"/>
			<g id="XMLID_89_">
				<path id="XMLID_91_" fill="#FFFFFF" d="M-272.3-239.5c-4.4,0-8.8,0-13.2,0.3c-2.2,0.1-4.4,0.2-6.5,0.5c-1.1,0.1-2.2,0.2-3.2,0.4
					c-1.1,0.2-2.1,0.4-3.1,0.8l-0.1,0.1l-0.1,0l-6.4-1.7l0.2,0c-1.8,0.4-3.7,0.7-5.5,1c-1.9,0.2-3.7,0.5-5.7,0.4
					c-0.5,0-1-0.1-1.5-0.3l-0.1,0l-0.1-0.1l-0.2-0.1l-0.3-0.2l-0.6-0.4c-0.8-0.6-1.5-1.3-2.2-2c-1.3-1.4-2.5-3-3.4-4.7
					c-1.9-3.3-2.8-7.4-2.1-11.3c0.1-0.5,0.2-1,0.4-1.4c0.1-0.3,0.1-0.4,0.2-0.8l0.3-0.6c0.2-0.4,0.3-0.9,0.6-1.3
					c0.2-0.5,0.5-0.9,0.7-1.4c1-1.7,2.6-3.3,4.8-4c1.3-0.3,2.6-0.3,3.8,0c1.2,0.3,2.3,0.9,3.3,1.6l-1.6,0.9c0-0.8,0.1-1.5,0.4-2.3
					c0.3-0.7,0.9-1.5,1.7-1.9c0.8-0.4,1.6-0.5,2.4-0.4c0.7,0.1,1.4,0.3,2,0.5c0.2,0.1,0.3,0.1,0.5,0.2l0.4,0.2
					c0.3,0.1,0.6,0.2,0.9,0.4c0.6,0.3,1.2,0.7,1.7,1.2c1.1,0.9,1.9,2.3,2.1,3.6l0.2,0.9c0,0.1,0.1,0.3,0.1,0.3c0,0,0,0.1,0,0.1l0,0
					c0,0,0,0-0.1,0c-0.1,0.1-0.1,0.1-0.1,0.1c0,0,0,0-0.1,0.1l0,0c0.5-0.5,0.1-0.1,0.2-0.2l0,0l0,0l0,0c0.1,0.1,0.1,0.1,0.2,0.2
					l0.3,0.2l0.2,0.2c0.2,0.2,0.4,0.4,0.6,0.6c0.8,0.7,1.8,1.2,2.9,1.6c2.2,0.6,4.7,0.6,7.1,0.5l-0.2,0c5.2-1.6,10.5-3.3,15.7-4.9
					l7.8-2.6l3.9-1.3l1.9-0.7c0.6-0.2,1.3-0.5,1.7-0.8l0.1,1c-2.9-2-5.1-4.7-6.6-7.8c-1.5-3.1-2-6.6-1.7-10c0.3-3.4,1.5-6.7,2.9-9.7
					c1.5-3,3.4-5.8,5.5-8.5l0,0.3c-1.5-3.6-2.5-7.3-3.1-11.1c-0.5-3.8-0.7-7.7-0.1-11.5c0.5-3.8,1.7-7.5,3.4-10.9
					c1.8-3.4,4.2-6.5,6.9-9.1c-2.7,2.7-5.1,5.8-6.8,9.2c-1.7,3.4-2.8,7.1-3.3,10.9c-0.5,3.8-0.3,7.6,0.3,11.4
					c0.6,3.8,1.6,7.5,3.2,10.9l0.1,0.2l-0.1,0.2c-2,2.7-3.8,5.5-5.3,8.4c-1.4,3-2.5,6.2-2.7,9.4c-0.3,3.3,0.3,6.6,1.7,9.5
					c1.4,2.9,3.7,5.5,6.3,7.2l0.8,0.5l-0.7,0.4c-0.7,0.5-1.4,0.7-2,0.9l-1.9,0.7l-3.9,1.4l-7.8,2.7c-5.2,1.8-10.4,3.5-15.6,5.2
					l-0.1,0l-0.1,0c-2.5,0.2-5.1,0.3-7.7-0.4c-1.3-0.3-2.6-1-3.6-1.9c-0.3-0.2-0.5-0.5-0.7-0.7l-0.2-0.2c0,0-0.1-0.1-0.2-0.1l0,0
					l0,0l0,0c0,0-0.1,0,0.1,0l-0.1,0c-0.1-0.1-0.2-0.1-0.2-0.2c-0.5-0.6-0.5-1-0.6-1.3l-0.2-0.9c-0.5-2.2-2.3-3.5-4.5-4.2
					c-1.1-0.4-2.2-0.5-2.8-0.2c-0.3,0.2-0.5,0.4-0.7,0.9c-0.2,0.4-0.2,1-0.2,1.4l0.1,2.2l-1.8-1.3c-1.5-1.1-3.6-1.7-5.3-1.2
					c-1.5,0.4-2.7,1.5-3.6,3c-0.4,0.7-0.8,1.4-1.2,2.3l-0.3,0.6l-0.2,0.6c-0.1,0.4-0.3,0.8-0.4,1.3c-0.7,3.4-0.1,7.1,1.6,10.3
					c0.8,1.6,1.9,3.1,3.1,4.4c0.6,0.7,1.3,1.3,1.9,1.8l0.5,0.4l0.3,0.2l0.2,0.1c0,0,0.1,0.1,0,0l0.1,0c0.3,0.1,0.7,0.2,1.2,0.3
					c1.8,0.2,3.6,0,5.4-0.2c1.8-0.2,3.7-0.5,5.5-0.8l0.1,0l0.1,0l6.4,1.8l-0.3,0c1.1-0.4,2.2-0.7,3.3-0.8c1.1-0.2,2.2-0.3,3.3-0.4
					c2.2-0.2,4.4-0.2,6.6-0.3C-281.1-239.7-276.7-239.7-272.3-239.5z"/>
			</g>
		</g>
	</g>
	<g id="g3045_2_" transform="translate(232.75,309.6875)">
		<g id="path3047_2_" inkscape:connector-curvature="0">
			<path id="XMLID_84_" fill="#DEBE94" d="M-143.9-131.7c0,0,0.1,1.2,0.4,1.4c0.2,0.3,1.2,0.2,1.2,0.2L-143.9-131.7z"/>
			<g id="XMLID_86_">
				<path id="XMLID_88_" fill="#FFFFFF" d="M-143.9-131.7c0,0,0.3,0.4,0.6,0.7c0.1,0.1,0.2,0.1,0.3,0.2c0,0,0.1,0,0.1,0
					c0,0,0.1,0,0,0c-0.1,0-0.2,0.1-0.3,0.1c-0.1,0-0.1,0.1-0.2,0.1c0,0,0,0-0.1,0l0,0l0.1,0c0.1,0,0.1-0.1,0.1-0.2
					c0-0.1,0.1-0.2,0.1-0.2l0.1-0.2l0,0c0,0,0,0,0,0.1c0,0,0.1,0.1,0.2,0.1c0.1,0.1,0.3,0.1,0.4,0.2l-0.5,1.2L-143.9-131.7l2.1,1.2
					l1.3,0.7l-1.8,0.5c-0.2,0.1-0.4,0.1-0.7,0.2c-0.2,0-0.5,0.1-0.9,0c0,0-0.1-0.1-0.2-0.1c-0.1-0.1-0.2-0.2-0.2-0.2l0,0l0,0l0,0
					l0,0l-0.1-0.1l0,0l0,0l0,0c0-0.1-0.1-0.1-0.1-0.2c-0.1-0.4,0-0.7,0-0.9C-144.1-131.3-143.9-131.7-143.9-131.7z"/>
			</g>
		</g>
	</g>
	<g id="g3049_2_" transform="translate(292.9375,289.75)">
		<g id="path3051_2_" inkscape:connector-curvature="0">
			<path id="XMLID_81_" fill="#DEBE94" d="M-178.9-103.4c0,0,18.9,0.8,19.5,0C-158.8-104.3-178.7-103.6-178.9-103.4"/>
			<g id="XMLID_83_">
				<path id="XMLID_85_" fill="#FFFFFF" d="M-178.9-103.4c0,0,3.3-0.1,6.5-0.3c3.3-0.2,6.5-0.4,6.5-0.4s0.4,0,1.1,0
					c0.7,0,1.7,0.1,2.9,0.1c0.6,0,1.3,0,1.8-0.1l0.1,0l0,0l0.1,0.1c0.1,0.1,0,0.1,0,0.2c0,0.1,0.1,0.2,0.1,0.2
					c0.2,0.2,0.2,0,0.1,0.2c-0.1,0.1-0.3,0.5-0.3,0.6c0,0,0,0-0.1,0c-0.1,0-0.1,0-0.2,0c-0.3-0.1-0.7-0.1-1.1-0.1
					c-1.5-0.1-3.1-0.2-4.8-0.3c-3.3-0.1-6.5-0.2-9-0.2c-1.2,0-2.2,0-3,0c-0.4,0-0.6,0-0.8,0C-178.8-103.5-178.9-103.4-178.9-103.4
					c0,0,0.1,0,0.3-0.1c0.2,0,0.5-0.1,0.8-0.1c0.7-0.1,1.7-0.1,3-0.2c2.4-0.2,5.7-0.4,9-0.6c1.6-0.1,3.3-0.1,4.8-0.1
					c0.4,0,0.8,0,1.2,0.1c0.1,0,0.2,0,0.3,0.1c0.1,0,0.1,0,0.2,0.1c0,0,0.1,0,0.2,0.1c0,0,0.1,0.1,0.2,0.2l0.1,0.1
					c0.1,0.1,0.1,0.2,0.2,0.3c0.1,0.2,0,0.6,0,0.5l0,0l0,0c0-0.1-0.2,0.5-0.1,0.3c0,0-0.1,0.1-0.1,0.1c-0.1,0.1-0.4,0.3-0.4,0.3
					c-0.1,0.1-0.3,0.1-0.4,0.1c-0.8,0.2-1.5,0.2-2.1,0.3c-1.2,0.1-2.3,0.1-3,0.2c-0.7,0-1.1,0-1.1,0s-3.3-0.3-6.5-0.7
					C-175.7-103.1-178.9-103.4-178.9-103.4z"/>
			</g>
		</g>
	</g>
	<g id="g3053_2_" transform="translate(398.0801,310.752)">
		<g id="path3055_2_" inkscape:connector-curvature="0">
			<path id="XMLID_78_" fill="#DEBE94" d="M-240.2-133.2l4-5.7C-236.1-138.9-242.9-135.5-240.2-133.2"/>
			<g id="XMLID_80_">
				<path id="XMLID_82_" fill="#FFFFFF" d="M-240.2-133.2l2-4.7l1.3-1.4l1.1,1.3c-1.2,0.5-2.4,1-3.5,1.8c-0.5,0.4-1,0.8-1.3,1.4
					C-240.8-134.4-240.6-133.7-240.2-133.2c-0.3-0.2-0.5-0.4-0.7-0.8c-0.2-0.3-0.2-0.7-0.1-1.1c0.2-0.7,0.6-1.3,1.1-1.9
					c1-1.1,2.1-1.9,3.3-2.7l2.8-1.8l-1.7,3.1l-0.9,1.7L-240.2-133.2z"/>
			</g>
		</g>
	</g>
	<g id="g3057_2_" transform="translate(480.5,557.6646)">
		<g id="path3059_2_" inkscape:connector-curvature="0">
			<path id="XMLID_76_" fill="#FFFFFF" d="M-288.2-483.2l-2-8.8c0,0-3.5-23-0.3-34.3c0,0-4.6-0.5-5.4,0s-6.3,49.6-26.9,58.4
				c0,0-35.3,15.4-55.7,7.5c0,0-30.4-5.7-41.7-64.6l-7.9,2.3c0,0,14.3,18.2,2.9,71.8l-2.9,31.9l15.8,9.3l1.9,1.8
				c0,0-1.3,4.5-0.7,6.7c0.6,2.1,0.7,5.5,7.4,7.2c6.2,1.6,6.6,4.2,6.7,4.6c0.4,0.4,0.6,1,0.6,1.6c0.6,0.3,1.6,0.7,3.2,1.1
				c5.6,1.4,13.1,0,13.1,0l26.3,0.6h12.4l12-2.6c0,0,8.9,2,11.3,2.1c2.4,0.1,6.5-8.6,6.5-8.6s0.2-0.3,0.6-0.8c0,0,6.8-1.8,12.1-15.5
				c2.9-3.6,5.2-6.5,5.5-6.8c2.7-2.7,16.3-59.7,16.3-59.7L-288.2-483.2z"/>
			<g id="XMLID_77_">
				<path id="XMLID_79_" fill="#FFFFFF" d="M-288.2-483.2l-2-8.8l0,0c-0.8-5.7-1.4-11.4-1.6-17.2c-0.1-2.9-0.2-5.8,0-8.6
					c0.2-2.9,0.4-5.8,1.2-8.6l0.2,0.3c-1.3-0.1-2.7-0.2-4-0.2c-0.3,0-0.7,0-1,0.1c-0.1,0-0.2,0-0.2,0.1l-0.1,0c-0.2-0.4,0,0,0-0.1
					c0.1,0.1,0,0.1,0,0.1c0,0,0,0,0,0c0,0-0.1,0.3-0.1,0.4c-0.1,0.6-0.3,1.3-0.4,2c-0.5,2.6-1,5.3-1.5,7.9
					c-1.1,5.3-2.3,10.5-3.8,15.7c-1.5,5.2-3.3,10.3-5.7,15.2c-2.3,4.9-5.2,9.6-9.2,13.4c-2,1.9-4.4,3.5-6.9,4.5c-2.5,1-5,2-7.6,2.9
					c-5.1,1.8-10.3,3.3-15.6,4.5c-5.3,1.2-10.7,2.1-16.1,2.2c-5.4,0.2-11-0.2-16.2-2.2l0.2,0c-0.7-0.2-1.3-0.3-2-0.6
					c-0.6-0.2-1.3-0.4-1.9-0.7c-1.2-0.5-2.4-1.1-3.5-1.7c-1.1-0.6-2.2-1.4-3.3-2.1l-3.1-2.3c-4.1-3.3-7.5-7.3-10.6-11.4
					c-1.2-1.8-2.3-3.5-3.5-5.3l-3-5.5c-1.8-3.8-3.6-7.6-4.9-11.5l-1.1-2.9l-0.5-1.5l-0.4-1.5l-1.7-6c-0.6-2-1-4.1-1.5-6.1l-1.3-6.1
					l1.2,0.7l-7.9,2.3l0.5-1.4c1,1.4,1.6,2.8,2.3,4.2c0.3,0.7,0.6,1.4,0.9,2.2l0.8,2.2c0.9,3,1.7,6,2.1,9c1,6.1,1.4,12.3,1.3,18.4
					c-0.1,12.3-1.9,24.5-4.5,36.5l0-0.1l-3,31.8l-0.3-0.6l15.8,9.4l0.1,0l0,0l1.9,1.8l0.3,0.2l-0.1,0.3c-0.3,1-0.5,2.1-0.7,3.1
					c-0.1,1-0.3,2.1-0.1,3.1c0.3,1,0.5,2.1,0.9,3c0.4,0.9,1.1,1.7,2,2.2c0.8,0.6,1.8,1,2.8,1.4c0.5,0.2,1,0.3,1.6,0.5
					c0.5,0.1,1.1,0.3,1.6,0.5c1.1,0.4,2.1,0.9,3.1,1.5c0.9,0.7,1.9,1.5,2.1,3l-0.1-0.3c0.5,0.5,0.8,1.2,0.7,1.9l-0.3-0.4
					c1.1,0.6,2.5,1,3.8,1.2c1.3,0.3,2.7,0.4,4,0.4c2.7,0.1,5.5-0.1,8.2-0.6l0.1,0l0,0c12.9,0.3,25.8,0.8,38.7,0.7l-0.1,0l12-2.5
					l0.1,0l0.1,0c1.8,0.4,3.7,0.8,5.5,1.2c1.8,0.4,3.7,0.8,5.5,0.9l0.2,0l0,0l0,0c0,0,0,0,0,0l0,0l0,0l0.1,0c0.1,0,0.2,0,0.3-0.1
					c0.2-0.1,0.4-0.2,0.5-0.3c0.3-0.3,0.7-0.6,1-0.9c0.6-0.7,1.1-1.4,1.6-2.2c1-1.6,1.9-3.2,2.7-4.9l0,0l0,0l0.6-0.8l0.1-0.1l0.1,0
					c0.7-0.2,1.5-0.7,2.2-1.1c0.7-0.5,1.3-1,1.9-1.5c1.2-1.1,2.3-2.4,3.2-3.8c1.9-2.7,3.4-5.7,4.6-8.9l0,0l0,0l5.5-6.9
					c0.8-1.2,1.2-2.6,1.7-4c0.5-1.4,0.9-2.8,1.3-4.2c1.7-5.6,3.2-11.3,4.7-17c3-11.4,5.8-22.8,8.6-34.3l0,0L-288.2-483.2l11.1,5.3
					l0,0l0,0c-2.7,11.5-5.5,22.9-8.4,34.3c-1.5,5.7-3,11.4-4.6,17.1c-0.4,1.4-0.8,2.8-1.3,4.2c-0.2,0.7-0.5,1.4-0.7,2.1
					c-0.1,0.3-0.3,0.7-0.4,1c-0.2,0.4-0.3,0.7-0.6,1l-5.5,6.9l0-0.1c-1.2,3.1-2.7,6.2-4.6,9c-1,1.4-2,2.7-3.3,3.9
					c-0.6,0.6-1.3,1.1-2,1.6c-0.7,0.5-1.4,0.9-2.3,1.2l0.1-0.1l-0.6,0.8l0,0c-0.8,1.7-1.7,3.4-2.7,5c-0.5,0.8-1.1,1.6-1.7,2.3
					c-0.3,0.4-0.7,0.7-1.1,1c-0.2,0.2-0.4,0.3-0.7,0.4c-0.1,0-0.3,0.1-0.4,0.1l-0.1,0l0,0l-0.1,0l0,0l-0.2,0
					c-1.9-0.2-3.7-0.6-5.6-0.9c-1.8-0.4-3.7-0.8-5.5-1.2l0.1,0l-12,2.6l0,0l0,0c-12.9,0.2-25.8-0.3-38.7-0.5l0.1,0
					c-2.8,0.5-5.6,0.7-8.4,0.6c-1.4,0-2.8-0.2-4.2-0.4c-1.4-0.3-2.7-0.6-4.1-1.3l-0.3-0.1l0-0.3c0-0.4-0.2-0.9-0.5-1.2l-0.1-0.1
					l0-0.2c0-0.4-0.3-0.8-0.6-1.2c-0.3-0.4-0.7-0.7-1.1-1c-0.8-0.6-1.8-1-2.8-1.4c-0.5-0.2-1-0.3-1.5-0.5c-0.5-0.1-1.1-0.3-1.6-0.5
					c-1.1-0.4-2.1-0.8-3.1-1.5c-1-0.7-1.8-1.6-2.3-2.6c-0.3-0.5-0.5-1.1-0.6-1.6l-0.4-1.6c-0.3-1.2-0.1-2.4,0-3.5
					c0.2-1.1,0.4-2.2,0.7-3.3l0.2,0.6l-2-1.8l0.1,0.1l-15.9-9.3l-0.3-0.2l0-0.4l2.8-31.9l0,0l0,0c2.5-11.9,4.2-24,4.3-36.2
					c0.1-6.1-0.3-12.1-1.4-18.1c-0.5-3-1.2-5.9-2.1-8.8l-0.7-2.1c-0.3-0.7-0.6-1.4-0.9-2.1c-0.6-1.3-1.3-2.7-2.1-3.8l-0.8-1.1
					l1.3-0.4l7.9-2.3l0.9-0.3l0.2,1l1.4,6c0.5,2,0.8,4,1.5,6l1.8,5.9l0.4,1.5l0.5,1.4l1.1,2.9c1.3,3.9,3.2,7.6,4.9,11.3l3,5.4
					c1.1,1.7,2.3,3.4,3.4,5.1c3,4,6.3,7.9,10.1,11.1l3,2.3c1,0.7,2.1,1.4,3.2,2c1.1,0.6,2.2,1.2,3.3,1.7c0.6,0.3,1.1,0.5,1.7,0.7
					c0.6,0.2,1.2,0.4,1.7,0.5l0.1,0l0,0c4.9,1.9,10.2,2.4,15.5,2.2c5.3-0.1,10.6-0.9,15.8-2c5.2-1.1,10.4-2.6,15.5-4.3
					c2.5-0.9,5.1-1.8,7.5-2.8c2.5-0.9,4.7-2.4,6.6-4.2c3.9-3.6,6.7-8.2,9.1-13c2.4-4.8,4.2-9.9,5.8-15c1.6-5.1,2.9-10.4,4-15.6
					c0.6-2.6,1.1-5.3,1.6-7.9c0.1-0.7,0.3-1.3,0.4-2c0.1-0.2,0.1-0.3,0.2-0.6c0,0,0-0.1,0-0.1l0,0c0,0,0,0,0.1-0.1l0.2-0.1
					c0.1-0.1,0.2-0.1,0.3-0.1c0.4-0.1,0.7-0.1,1-0.1c1.4,0,2.7,0.1,4.1,0.2l0.3,0l-0.1,0.3c-0.8,2.8-1,5.6-1.2,8.5
					c-0.2,2.9-0.2,5.7-0.1,8.6c0.2,5.7,0.7,11.5,1.5,17.2l0,0L-288.2-483.2z"/>
			</g>
		</g>
	</g>
	<g id="g3061_2_" transform="translate(480.5,557.6646)">
		<g id="path3063_2_">
			<path id="XMLID_54_" fill="#26231D" d="M-288.2-483.2l-2-8.8l0,0c-0.8-5.7-1.4-11.4-1.6-17.2c-0.1-2.9-0.2-5.8,0-8.6
				c0.2-2.9,0.4-5.8,1.2-8.6l0.2,0.3c-1.3-0.1-2.7-0.2-4-0.2c-0.3,0-0.7,0-1,0.1c-0.1,0-0.2,0-0.2,0.1l-0.1,0c-0.2-0.4,0,0,0-0.1
				c0.1,0.1,0,0.1,0,0.1c0,0,0,0,0,0c0,0-0.1,0.3-0.1,0.4c-0.1,0.6-0.3,1.3-0.4,2c-0.5,2.6-1,5.3-1.5,7.9
				c-1.1,5.3-2.3,10.5-3.8,15.7c-1.5,5.2-3.3,10.3-5.7,15.2c-2.3,4.9-5.2,9.6-9.2,13.4c-2,1.9-4.4,3.5-6.9,4.5c-2.5,1-5,2-7.6,2.9
				c-5.1,1.8-10.3,3.3-15.6,4.5c-5.3,1.2-10.7,2.1-16.1,2.2c-5.4,0.2-11-0.2-16.2-2.2l0.2,0c-0.7-0.2-1.3-0.3-2-0.6
				c-0.6-0.2-1.3-0.4-1.9-0.7c-1.2-0.5-2.4-1.1-3.5-1.7c-1.1-0.6-2.2-1.4-3.3-2.1l-3.1-2.3c-4.1-3.3-7.5-7.3-10.6-11.4
				c-1.2-1.8-2.3-3.5-3.5-5.3l-3-5.5c-1.8-3.8-3.6-7.6-4.9-11.5l-1.1-2.9l-0.5-1.5l-0.4-1.5l-1.7-6c-0.6-2-1-4.1-1.5-6.1l-1.3-6.1
				l1.2,0.7l-7.9,2.3l0.5-1.4c1,1.4,1.6,2.8,2.3,4.2c0.3,0.7,0.6,1.4,0.9,2.2l0.8,2.2c0.9,3,1.7,6,2.1,9c1,6.1,1.4,12.3,1.3,18.4
				c-0.1,12.3-1.9,24.5-4.5,36.5l0-0.1l-3,31.8l-0.3-0.6l15.8,9.4l0.1,0l0,0l1.9,1.8l0.3,0.2l-0.1,0.3c-0.3,1-0.5,2.1-0.7,3.1
				c-0.1,1-0.3,2.1-0.1,3.1c0.3,1,0.5,2.1,0.9,3c0.4,0.9,1.1,1.7,2,2.2c0.8,0.6,1.8,1,2.8,1.4c0.5,0.2,1,0.3,1.6,0.5
				c0.5,0.1,1.1,0.3,1.6,0.5c1.1,0.4,2.1,0.9,3.1,1.5c0.9,0.7,1.9,1.5,2.1,3l-0.1-0.3c0.5,0.5,0.8,1.2,0.7,1.9l-0.3-0.4
				c1.1,0.6,2.5,1,3.8,1.2c1.3,0.3,2.7,0.4,4,0.4c2.7,0.1,5.5-0.1,8.2-0.6l0.1,0l0,0c12.9,0.3,25.8,0.8,38.7,0.7l-0.1,0l12-2.5
				l0.1,0l0.1,0c1.8,0.4,3.7,0.8,5.5,1.2c1.8,0.4,3.7,0.8,5.5,0.9l0.2,0l0,0l0,0c0,0,0,0,0,0l0,0l0,0l0.1,0c0.1,0,0.2,0,0.3-0.1
				c0.2-0.1,0.4-0.2,0.5-0.3c0.3-0.3,0.7-0.6,1-0.9c0.6-0.7,1.1-1.4,1.6-2.2c1-1.6,1.9-3.2,2.7-4.9l0,0l0,0l0.6-0.8l0.1-0.1l0.1,0
				c0.7-0.2,1.5-0.7,2.2-1.1c0.7-0.5,1.3-1,1.9-1.5c1.2-1.1,2.3-2.4,3.2-3.8c1.9-2.7,3.4-5.7,4.6-8.9l0,0l0,0l5.5-6.9
				c0.8-1.2,1.2-2.6,1.7-4c0.5-1.4,0.9-2.8,1.3-4.2c1.7-5.6,3.2-11.3,4.7-17c3-11.4,5.8-22.8,8.6-34.3l0,0L-288.2-483.2l11.1,5.3
				l0,0l0,0c-2.7,11.5-5.5,22.9-8.4,34.3c-1.5,5.7-3,11.4-4.6,17.1c-0.4,1.4-0.8,2.8-1.3,4.2c-0.2,0.7-0.5,1.4-0.7,2.1
				c-0.1,0.3-0.3,0.7-0.4,1c-0.2,0.4-0.3,0.7-0.6,1l-5.5,6.9l0-0.1c-1.2,3.1-2.7,6.2-4.6,9c-1,1.4-2,2.7-3.3,3.9
				c-0.6,0.6-1.3,1.1-2,1.6c-0.7,0.5-1.4,0.9-2.3,1.2l0.1-0.1l-0.6,0.8l0,0c-0.8,1.7-1.7,3.4-2.7,5c-0.5,0.8-1.1,1.6-1.7,2.3
				c-0.3,0.4-0.7,0.7-1.1,1c-0.2,0.2-0.4,0.3-0.7,0.4c-0.1,0-0.3,0.1-0.4,0.1l-0.1,0l0,0l-0.1,0l0,0l-0.2,0
				c-1.9-0.2-3.7-0.6-5.6-0.9c-1.8-0.4-3.7-0.8-5.5-1.2l0.1,0l-12,2.6l0,0l0,0c-12.9,0.2-25.8-0.3-38.7-0.5l0.1,0
				c-2.8,0.5-5.6,0.7-8.4,0.6c-1.4,0-2.8-0.2-4.2-0.4c-1.4-0.3-2.7-0.6-4.1-1.3l-0.3-0.1l0-0.3c0-0.4-0.2-0.9-0.5-1.2l-0.1-0.1
				l0-0.2c0-0.4-0.3-0.8-0.6-1.2c-0.3-0.4-0.7-0.7-1.1-1c-0.8-0.6-1.8-1-2.8-1.4c-0.5-0.2-1-0.3-1.5-0.5c-0.5-0.1-1.1-0.3-1.6-0.5
				c-1.1-0.4-2.1-0.8-3.1-1.5c-1-0.7-1.8-1.6-2.3-2.6c-0.3-0.5-0.5-1.1-0.6-1.6l-0.4-1.6c-0.3-1.2-0.1-2.4,0-3.5
				c0.2-1.1,0.4-2.2,0.7-3.3l0.2,0.6l-2-1.8l0.1,0.1l-15.9-9.3l-0.3-0.2l0-0.4l2.8-31.9l0,0l0,0c2.5-11.9,4.2-24,4.3-36.2
				c0.1-6.1-0.3-12.1-1.4-18.1c-0.5-3-1.2-5.9-2.1-8.8l-0.7-2.1c-0.3-0.7-0.6-1.4-0.9-2.1c-0.6-1.3-1.3-2.7-2.1-3.8l-0.8-1.1
				l1.3-0.4l7.9-2.3l0.9-0.3l0.2,1l1.4,6c0.5,2,0.8,4,1.5,6l1.8,5.9l0.4,1.5l0.5,1.4l1.1,2.9c1.3,3.9,3.2,7.6,4.9,11.3l3,5.4
				c1.1,1.7,2.3,3.4,3.4,5.1c3,4,6.3,7.9,10.1,11.1l3,2.3c1,0.7,2.1,1.4,3.2,2c1.1,0.6,2.2,1.2,3.3,1.7c0.6,0.3,1.1,0.5,1.7,0.7
				c0.6,0.2,1.2,0.4,1.7,0.5l0.1,0l0,0c4.9,1.9,10.2,2.4,15.5,2.2c5.3-0.1,10.6-0.9,15.8-2c5.2-1.1,10.4-2.6,15.5-4.3
				c2.5-0.9,5.1-1.8,7.5-2.8c2.5-0.9,4.7-2.4,6.6-4.2c3.9-3.6,6.7-8.2,9.1-13c2.4-4.8,4.2-9.9,5.8-15c1.6-5.1,2.9-10.4,4-15.6
				c0.6-2.6,1.1-5.3,1.6-7.9c0.1-0.7,0.3-1.3,0.4-2c0.1-0.2,0.1-0.3,0.2-0.6c0,0,0-0.1,0-0.1l0,0c0,0,0,0,0.1-0.1l0.2-0.1
				c0.1-0.1,0.2-0.1,0.3-0.1c0.4-0.1,0.7-0.1,1-0.1c1.4,0,2.7,0.1,4.1,0.2l0.3,0l-0.1,0.3c-0.8,2.8-1,5.6-1.2,8.5
				c-0.2,2.9-0.2,5.7-0.1,8.6c0.2,5.7,0.7,11.5,1.5,17.2l0,0L-288.2-483.2z"/>
		</g>
	</g>
	<g id="g3065_2_" transform="translate(104.667,629.6665)">
		<g id="path3067_2_" inkscape:connector-curvature="0">
			<path id="XMLID_71_" fill="#DEBE94" d="M-69.3-585.3c0,0-59.9,0.7-22,51.9c0,0-12.8,32.6,11.7,43.1L-79-476c0,0,4.5,9.5,54.3-1.1
				l5.3,1.8l5.6-3.1c0,0,7.7,2.8,8.8,2.1s25.8-18.9,7.4-28.5c0,0-2.5-0.6-4.3,1.4c0,0,0.4-6.1-2.1-4.9c0,0-5.6,1.4-6.4,4.7
				c0,0-3.8,1.7-6.8,8.4c0,0,1.8,3.1-5.6,3.2c-7.4,0.1-26.3-4.7-25.6-10c0.7-5.3,3.8-22.2-9-33.4l-4.7-2.2c0,0,13.6-15.3-0.6-40.3"
				/>
			<g id="XMLID_73_">
				<path id="XMLID_75_" fill="#FFFFFF" d="M-69.3-585.3c-3.2,0.1-6.5,0.5-9.7,1.2c-3.2,0.6-6.3,1.5-9.3,2.7c-3,1.2-5.9,2.7-8.4,4.8
					c-2.5,2-4.5,4.7-5.6,7.7c-1.1,3-1.4,6.3-1,9.4l0.4,2.4l0.6,2.3c0.2,0.8,0.5,1.5,0.7,2.3c0.3,0.8,0.5,1.5,0.8,2.3
					c2.5,5.9,6.1,11.4,9.9,16.6l0.2,0.3l-0.1,0.3c-1.4,3.8-2.3,7.9-2.8,11.9c-0.5,4-0.5,8.2,0.2,12.1c0.4,2,0.9,3.9,1.7,5.8
					c0.8,1.8,1.8,3.6,3,5.1c2.4,3.2,5.8,5.5,9.5,7l0.6,0.2l0,0.6l0.4,7.8l0.2,6.4l-0.1-0.4c0,0,0,0,0,0l0,0l0.1,0.1
					c0.1,0.1,0.2,0.1,0.2,0.2c0.1,0.2,0.4,0.3,0.6,0.4c0.2,0.2,0.4,0.3,0.7,0.4c0.2,0.1,0.4,0.3,0.7,0.3c1,0.4,2.1,0.7,3.1,1
					c1.1,0.2,2.2,0.4,3.3,0.5l1.7,0.2c0.6,0.1,1.1,0.1,1.7,0.1c2.3,0.2,4.6,0.1,6.9,0c2.3-0.1,4.6-0.2,6.9-0.5
					c9.2-0.9,18.3-2.5,27.3-4.3l0.2,0l0.2,0.1l5.3,1.8l-0.6,0.1l5.6-3l0.3-0.2l0.3,0.1c1.8,0.6,3.6,1.2,5.4,1.7
					c0.5,0.1,0.9,0.2,1.3,0.3c0.4,0.1,0.9,0.2,1.2,0.1l0.1,0c0,0,0,0,0,0c0,0,0,0,0,0c0,0,0,0.1,0.1,0.1c0,0,0.1,0.1,0.1,0.1
					c0.2,0.3-0.2-0.3-0.2-0.3l0,0l0,0l0.1-0.1l0.5-0.4l1.1-0.9c2.9-2.4,5.7-5,8-7.9c1.1-1.5,2.2-3,2.9-4.7c0.8-1.7,1.2-3.5,1.1-5.2
					c-0.1-1.8-0.9-3.4-2-4.8c-1.2-1.4-2.7-2.4-4.4-3.3l0.1,0.1c-1.3-0.2-2.8,0.2-3.8,1.2l-1.1,1.2l0.1-1.6c0.1-1,0-2-0.1-3
					c-0.1-0.5-0.2-1-0.4-1.2c-0.1-0.1-0.1-0.1-0.1-0.2c-0.1,0-0.1,0-0.1,0c-0.1,0-0.1,0-0.2,0c-0.1,0-0.2,0.1-0.2,0.1l-0.1,0
					c-1.3,0.3-2.5,0.9-3.6,1.6c-1.1,0.7-2.1,1.6-2.4,2.8l-0.1,0.2l-0.2,0.1c-1.4,0.8-2.8,2.1-3.8,3.5c-1.1,1.4-2,3-2.8,4.6l0-0.4
					c0.2,0.5,0.3,0.9,0.2,1.4c-0.1,0.5-0.4,0.9-0.8,1.2c-0.7,0.6-1.5,0.8-2.3,1c-1.6,0.3-3.1,0.3-4.6,0.3c-3.1-0.2-6.1-0.8-9-1.5
					c-3-0.7-5.9-1.6-8.7-2.8c-1.4-0.6-2.8-1.3-4.1-2.2c-0.6-0.4-1.2-1-1.8-1.6c-0.5-0.6-0.9-1.4-0.9-2.3c0.4-3,0.8-6,0.8-9
					c0.1-3-0.2-6-0.8-9c-0.6-2.9-1.7-5.8-3.2-8.4c-1.5-2.6-3.5-4.9-5.7-7l0,0l-4.7-2.3l-0.2-0.1l0.1-0.2c2.2-2.7,3.7-6,4.7-9.4
					c1-3.4,1.3-7,1.2-10.5c-0.4-7.1-2.8-14-6.3-20.2c3.6,6.2,6,13.1,6.5,20.2c0.2,3.6-0.2,7.2-1.1,10.6c-1,3.4-2.4,6.8-4.7,9.6
					l-0.1-0.3l4.7,2.2l0,0l0,0c2.3,2.1,4.3,4.4,5.8,7c1.5,2.6,2.6,5.5,3.3,8.5c1.4,6,1,12.2,0.1,18.2c0,0.6,0.3,1.3,0.7,1.8
					c0.5,0.5,1,1,1.6,1.4c1.2,0.8,2.6,1.5,4,2.1c2.8,1.2,5.7,2,8.6,2.7c2.9,0.7,5.9,1.2,8.9,1.4c1.5,0.1,3,0,4.4-0.3
					c0.7-0.2,1.4-0.4,1.9-0.8c0.5-0.4,0.6-1,0.3-1.4l-0.1-0.2l0.1-0.2c0.8-1.7,1.7-3.3,2.8-4.8c1.2-1.5,2.4-2.9,4.2-3.8l-0.3,0.3
					c0.4-1.6,1.6-2.7,2.8-3.4c1.2-0.8,2.5-1.3,3.9-1.7l-0.1,0c0.2-0.1,0.3-0.1,0.5-0.2c0.2-0.1,0.4,0,0.6,0c0.2,0,0.4,0.1,0.6,0.2
					c0.1,0.1,0.3,0.3,0.4,0.4c0.4,0.6,0.5,1.1,0.6,1.7c0.2,1.1,0.2,2.2,0.2,3.3l-1-0.4c0.6-0.6,1.4-1.2,2.2-1.4
					c0.9-0.3,1.7-0.3,2.6-0.2l0.1,0l0.1,0c1.7,0.9,3.4,2,4.7,3.6c1.3,1.5,2.3,3.5,2.4,5.5c0.1,2.1-0.4,4.1-1.2,5.9
					c-0.8,1.8-1.9,3.5-3.1,5c-2.4,3.1-5.2,5.8-8.2,8.2c-0.4,0.3-0.8,0.6-1.1,0.9l-0.6,0.5l-0.1,0.1c-0.1,0.1-0.2,0.1-0.3,0.1
					c-0.1,0-0.2,0.1-0.3,0.1l-0.2,0c-0.6,0-1.1-0.1-1.6-0.2c-0.5-0.1-1-0.2-1.4-0.3c-1.9-0.5-3.7-1.1-5.5-1.7l0.6,0l-5.6,3.1
					l-0.3,0.2l-0.3-0.1l-5.3-1.8l0.4,0c-9.1,1.9-18.2,3.6-27.5,4.5c-2.3,0.3-4.6,0.4-7,0.5c-2.3,0.1-4.7,0.1-7,0
					c-0.6,0-1.2,0-1.8-0.1l-1.8-0.2c-1.2-0.1-2.4-0.3-3.5-0.5c-1.2-0.3-2.3-0.6-3.5-1.1c-0.3-0.1-0.6-0.3-0.9-0.4
					c-0.3-0.2-0.6-0.3-0.8-0.5c-0.3-0.2-0.6-0.3-0.8-0.6c-0.3-0.3-0.5-0.4-0.8-1l-0.1-0.2l0-0.3l-0.3-6.4l-0.2-7.8l0.6,0.9
					c-3.9-1.8-7.5-4.3-10.1-7.8c-1.3-1.7-2.4-3.6-3.2-5.6c-0.8-2-1.3-4.1-1.7-6.2c-0.7-4.2-0.5-8.4,0-12.6c0.6-4.2,1.6-8.2,3.1-12.2
					l0.1,0.6c-3.8-5.3-7.3-10.9-9.8-17c-0.3-0.8-0.5-1.5-0.8-2.3c-0.3-0.8-0.6-1.5-0.7-2.4l-0.6-2.4l-0.3-2.4
					c-0.3-3.3-0.1-6.7,1.2-9.7c1.2-3.1,3.3-5.7,5.9-7.8c2.6-2.1,5.5-3.6,8.5-4.7c3.1-1.1,6.2-2,9.4-2.5
					C-75.7-584.9-72.5-585.2-69.3-585.3z"/>
			</g>
		</g>
	</g>
	<g id="path3071_5_" inkscape:connector-curvature="0">
		<path id="XMLID_68_" fill="#DEBE94" d="M237.4,64.8c-0.4-12.4-3.8-32.4-26.7-29.6"/>
		<g id="XMLID_70_">
			<path id="XMLID_72_" fill="#FFFFFF" d="M237.4,64.8c0,0-0.1-1-0.3-2.4c-0.2-1.4-0.5-3.4-0.9-5.2c-0.4-1.9-1-3.7-1.4-5.1
				c-0.5-1.3-0.9-2.2-0.9-2.2s-0.1-0.5-0.4-1.2c-0.3-0.8-0.7-1.9-1.3-3.1c-1.2-2.5-3.5-5.6-6.7-7.6c-3.2-2-7.1-2.8-10-2.9
				c-0.7-0.1-1.4,0-2,0c-0.6,0-1.1,0-1.5,0c-0.8,0-1.3,0.1-1.3,0.1s0.5-0.1,1.3-0.2c0.4-0.1,0.9-0.1,1.5-0.1c0.6,0,1.3-0.1,2-0.1
				c2.9,0,6.9,0.4,10.5,2.3c3.6,1.8,6.3,5,7.8,7.6c0.8,1.3,1.3,2.4,1.6,3.2c0.3,0.8,0.5,1.3,0.5,1.3s0.3,1,0.6,2.4
				c0.3,1.5,0.6,3.4,0.7,5.4c0.2,2,0.2,3.9,0.2,5.4C237.4,63.9,237.4,64.8,237.4,64.8z"/>
		</g>
	</g>
	<g id="path3071_4_" inkscape:connector-curvature="0">
		<path id="XMLID_66_" fill="#DEBE94" d="M200.9,40.5c-18.6,17.8-6.9,42.6-6.9,42.6c-18.6,24,0,35.3,0,35.3
			c-1.7,1.3-31.1,10.6-31.1,10.6c-9.6,0.8-10.9-2.7-11.9-3.3c-1-0.6,0.4-4.4-5.4-6.7c-5.8-2.3-5.4,2.9-5.4,2.9
			c-1.9-1.5-8.3-4.6-11.9,5.2c-3.5,9.8,5,18.7,7.7,19.9c2.6,1.2,12.5-0.9,12.5-0.9l6.4,1.8c4.5-2.2,26.2-1.7,26.2-1.7h0.1
			c0,0,31.1,3,33.8,1.1l1.6-1.6c0,0,4.8,0.3,5.9-4.7c1.1-5,0-9.2,0-13.1c0,0,5.4-4,7.7-9c2.2-5,2.9-7,3.2-9.6
			c0.3-2.6,1.5-9.9-5.1-21.9l-1.5-2.5c0,0,11.3-7.8,10.9-20.2"/>
		<g id="XMLID_67_">
			<path id="XMLID_69_" fill="#FFFFFF" d="M200.9,40.5c-2.7,2.7-5.1,5.8-6.8,9.2c-1.7,3.4-2.8,7.1-3.2,10.9
				c-0.5,3.8-0.3,7.6,0.3,11.4c0.6,3.7,1.6,7.5,3.2,10.9l0.1,0.2l-0.1,0.2c-2,2.7-3.8,5.5-5.2,8.4c-1.4,3-2.4,6.2-2.7,9.4
				c-0.3,3.2,0.3,6.5,1.7,9.4c1.4,2.9,3.6,5.4,6.3,7.2l1,0.7l-0.9,0.6c-0.8,0.5-1.4,0.7-2.1,1l-1.9,0.7l-3.9,1.4l-7.8,2.7
				c-5.2,1.8-10.4,3.5-15.6,5.2l-0.1,0l-0.1,0l-1.9,0.1c-2.4,0-4.9-0.1-7.3-1.1c-0.6-0.3-1.2-0.6-1.7-1c-0.5-0.4-1-0.9-1.4-1.3
				c-0.1-0.1-0.2-0.2-0.2-0.2l0,0c0,0,0,0,0,0l0,0c0.1,0-0.4-0.1-0.2,0l0,0l0,0c-0.1-0.1-0.1,0-0.2-0.2c-0.1-0.1-0.2-0.4-0.3-0.5
				l-0.1-0.3c-0.1-0.2-0.1-0.3-0.1-0.5c-0.1-0.6-0.2-1.1-0.4-1.5c-0.6-1.8-2.6-3-4.6-3.7c-0.3-0.1-0.5-0.1-0.7-0.2
				c-0.2-0.1-0.5-0.1-0.7-0.1c-0.5,0-0.9,0.1-1.1,0.2c-0.3,0.2-0.5,0.5-0.7,0.9c-0.1,0.4-0.2,0.9-0.2,1.3l0.1,2l-1.6-1.2
				c-1.5-1.1-3.5-1.8-5.2-1.3c-0.9,0.2-1.7,0.7-2.4,1.3c-0.7,0.7-1.3,1.4-1.8,2.3c-0.5,0.8-0.9,1.9-1.2,2.7l-0.4,1.5l-0.2,1.4
				c-0.2,2,0.1,4,0.7,6c0.6,1.9,1.6,3.8,2.8,5.4c0.6,0.8,1.3,1.6,2,2.4c0.7,0.7,1.5,1.4,2.3,1.9l0.1,0l0,0c0,0-0.1,0-0.1,0l0,0l0,0
				l0.2,0.1c0.1,0,0.3,0.1,0.4,0.1c0.2,0,0.4,0.1,0.6,0.1c0.5,0,1,0.1,1.5,0.1c1,0,2.1-0.1,3.1-0.2c2.1-0.2,4.2-0.6,6.3-1l0.2,0
				l0.2,0l6.4,1.8l-0.5,0c0.6-0.2,1.2-0.5,1.7-0.6c0.6-0.1,1.1-0.3,1.7-0.3c1.1-0.2,2.2-0.3,3.3-0.4c2.2-0.2,4.4-0.3,6.6-0.4
				c4.4-0.1,8.8-0.1,13.2,0l0,0l0,0c5.6,0.6,11.3,1,16.9,1.4c2.8,0.2,5.6,0.3,8.5,0.4c1.4,0,2.8,0.1,4.2,0c0.7,0,1.4,0,2.1-0.1
				c0.7-0.1,1.4-0.2,1.9-0.4l-0.1,0.1l1.6-1.6l0.1-0.1l0.2,0c1.6,0,3.4-0.6,4.4-1.9c1-1.3,1.3-3.1,1.5-4.8c0.2-1.7,0.1-3.5,0-5.3
				c-0.1-1.8-0.3-3.5-0.3-5.3l0-0.2l0.1-0.1c1.6-1.2,3-2.6,4.3-4c1.3-1.5,2.5-3.1,3.3-4.9c0.8-1.8,1.6-3.6,2.3-5.5
				c0.3-0.9,0.6-1.9,0.8-2.9c0.2-1,0.3-2,0.4-3c0.4-4-0.3-7.9-1.6-11.7c-0.6-1.9-1.4-3.7-2.3-5.5c-0.4-0.9-0.9-1.8-1.4-2.7l-1.6-2.5
				l-0.1-0.1l0.1-0.1c3.2-2.4,5.9-5.4,7.9-8.8c2-3.4,3.1-7.4,3-11.3c0.1,4-0.9,7.9-2.9,11.4c-2,3.4-4.7,6.5-7.9,8.9l0-0.1l1.6,2.5
				c0.5,0.9,1,1.8,1.4,2.7c0.9,1.8,1.7,3.6,2.3,5.5c1.3,3.8,2,7.8,1.7,11.9c-0.1,1-0.2,2-0.3,3c-0.2,1-0.4,2-0.8,2.9
				c-0.7,1.9-1.5,3.7-2.3,5.6c-0.8,1.9-2,3.5-3.3,5.1c-1.3,1.5-2.8,2.9-4.4,4.2l0.1-0.3c0.1,3.5,0.8,7.1,0.4,10.7
				c-0.1,0.9-0.2,1.8-0.4,2.7c-0.2,0.9-0.6,1.8-1.2,2.5c-1.2,1.5-3.1,2.3-5,2.3l0.3-0.1l-1.6,1.6l0,0l0,0c-0.4,0.2-0.8,0.3-1.2,0.4
				c-0.4,0.1-0.7,0.1-1.1,0.2c-0.7,0.1-1.4,0.1-2.1,0.1c-1.4,0-2.8,0-4.3,0c-2.8-0.1-5.7-0.2-8.5-0.3c-5.7-0.3-11.3-0.8-16.9-1.3
				l0.1,0c-4.4-0.1-8.8,0-13.2,0.1c-2.2,0.1-4.4,0.2-6.5,0.4c-1.1,0.1-2.2,0.2-3.2,0.4c-1.1,0.2-2.1,0.4-3,0.8l-0.3,0.1l-0.2-0.1
				l-6.4-1.7l0.3,0c-2.1,0.4-4.2,0.8-6.4,1.1c-1.1,0.1-2.2,0.2-3.3,0.2c-0.6,0-1.1,0-1.7-0.1c-0.3,0-0.6-0.1-1-0.2
				c-0.1,0-0.3-0.1-0.4-0.1l-0.2-0.1l0,0l-0.1,0l-0.1,0l-0.1-0.1c-1.1-0.6-1.9-1.3-2.7-2.1c-0.8-0.8-1.5-1.6-2.2-2.5
				c-1.3-1.8-2.4-3.7-3.1-5.9c-0.7-2.1-1-4.4-0.8-6.7l0.3-1.7l0.4-1.5c0.2-0.6,0.4-1.1,0.6-1.6c0.2-0.5,0.5-1,0.7-1.5
				c0.5-1,1.2-1.9,2.1-2.8c0.9-0.8,2-1.5,3.2-1.8c1.2-0.3,2.5-0.2,3.6,0.1c1.2,0.3,2.2,0.8,3.2,1.6l-1.5,0.8c0-0.8,0-1.4,0.3-2.1
				c0.2-0.7,0.7-1.4,1.4-1.9c0.3-0.2,0.7-0.4,1.1-0.5c0.4-0.1,0.8-0.1,1.1-0.1c0.3,0,0.7,0,1,0.1c0.3,0.1,0.7,0.1,1,0.2
				c1.2,0.4,2.3,0.9,3.4,1.6c0.5,0.4,1,0.8,1.5,1.4c0.4,0.5,0.8,1.1,1,1.8c0.2,0.6,0.4,1.3,0.5,1.8c0,0.1,0.1,0.3,0.1,0.3l0,0.1
				c0,0,0-0.1-0.1-0.1c-0.1-0.1,0,0,0.1,0.1l0,0l0,0c0.1,0.1-0.2-0.1-0.1-0.1l0,0l0,0l0.2,0.1c0.2,0.2,0.3,0.3,0.4,0.4
				c0.4,0.4,0.8,0.8,1.2,1.1c0.4,0.3,0.8,0.5,1.3,0.7c1.9,0.8,4.2,0.9,6.4,0.9l1.8-0.1l-0.2,0c5.2-1.6,10.5-3.2,15.7-4.9l7.8-2.5
				l3.9-1.3l1.9-0.7c0.6-0.2,1.3-0.5,1.7-0.7l0.1,1.2c-2.9-2-5.2-4.7-6.7-7.9c-1.5-3.1-2-6.7-1.7-10.1c0.3-3.4,1.5-6.7,2.9-9.7
				c1.5-3,3.4-5.8,5.5-8.5l0,0.4c-1.5-3.6-2.5-7.3-3-11.2c-0.5-3.8-0.6-7.7-0.1-11.5c0.5-3.8,1.7-7.5,3.5-10.9
				C195.7,46.2,198.1,43.2,200.9,40.5z"/>
		</g>
	</g>
	<g id="path3075_5_">
		<path id="XMLID_50_" fill="#18180F" d="M237.4,64.8c-0.2-3.9-0.6-7.7-1.5-11.5c-0.9-3.8-2.3-7.4-4.6-10.5
			c-2.3-3.1-5.5-5.5-9.2-6.6c-1.8-0.6-3.7-0.9-5.7-1c-1.9-0.1-3.8,0-5.8,0.2l-0.1,0l-0.1,0c-3.8-1.8-8.1-2.7-12.3-3.2
			c-4.2-0.5-8.5-0.6-12.8-0.3l0,0l0,0c-4.6-0.8-9.2-1.6-13.9-2.1c-2.3-0.3-4.6-0.5-7-0.6c-1.2-0.1-2.3-0.1-3.5,0
			c-0.3,0-0.6,0-0.8,0.1l-0.8,0.2c-0.6,0.1-1.1,0.3-1.9,0.3c-1.3,0-2.5-0.3-3.6-0.6c-1.1-0.3-2.2-0.6-3.4-0.8
			c-2.3-0.5-4.6-0.7-6.9-0.8c-4.6-0.1-9.3,0.5-13.8,1.3L123,30l-3.5,0.6c-1.2,0.1-2.4,0.3-3.6,0.4c-1.2,0.1-2.4,0.1-3.6,0
			c-1.2-0.1-2.4-0.3-3.6-0.6c-1.2-0.3-2.2-0.6-3.3-0.8c-1.1-0.2-2.2-0.2-3.4-0.2c-4.6,0.2-9.1,1.3-13.8,2.1
			c-2.3,0.4-4.7,0.7-7.1,0.9c-1.2,0.1-2.4,0.1-3.7,0c-0.3,0-0.6,0-1-0.1l-0.5-0.1c-0.2-0.1-0.4-0.1-0.5-0.2c-0.2,0-0.4-0.2-0.6-0.3
			c-0.2-0.1-0.4-0.4-0.6-0.6c-0.1-0.3-0.2-0.7-0.1-1c0.1-0.3,0.2-0.5,0.4-0.8l0.9,1.5c-8.6,1.6-17.3,3.6-25.5,6.7
			c-1.3,0.5-2.5,1-3.8,1.5c-1.2,0.6-2.5,1.1-3.6,1.7l-1.8,1c-0.6,0.3-1.1,0.7-1.7,1.1c-1.2,0.7-2.1,1.6-3.1,2.4l-0.3,0.3l-0.4,0
			c-3.1,0.1-6.4,0.5-9.5,1c-3.1,0.6-6.2,1.4-9.2,2.5c-3,1.1-5.8,2.6-8.2,4.6c-2.4,2-4.4,4.5-5.5,7.3c-1.1,2.9-1.4,6-1.1,9.1l0.3,2.3
			l0.6,2.3c0.2,0.8,0.4,1.5,0.7,2.3c0.3,0.7,0.5,1.5,0.8,2.2c2.5,5.9,5.9,11.4,9.7,16.6l0.3,0.4l-0.2,0.4c-1.4,3.8-2.4,7.8-2.9,11.8
			c-0.5,4-0.6,8.1,0,12.1c0.3,2,0.9,3.9,1.6,5.8c0.7,1.9,1.8,3.6,3,5.2c2.4,3.2,5.8,5.6,9.5,7.2l0.4,0.2l0,0.4l0.5,14.2l-0.1-0.3
			c0,0.1,0.2,0.3,0.4,0.4c0.2,0.2,0.4,0.3,0.6,0.5c0.2,0.2,0.5,0.3,0.7,0.4c0.2,0.1,0.5,0.3,0.7,0.4c1,0.4,2.1,0.7,3.2,1
			c1.1,0.2,2.2,0.5,3.4,0.5l1.7,0.2c0.6,0.1,1.1,0.1,1.7,0.1c2.3,0.2,4.6,0.1,6.9,0c2.3-0.2,4.6-0.2,6.9-0.5
			c9.2-0.9,18.3-2.5,27.4-4.3l0.1,0l0.1,0l5.3,1.8l-0.4,0l5.6-3l0.2-0.1l0.2,0.1c1.8,0.6,3.6,1.2,5.4,1.7c0.9,0.2,1.9,0.5,2.7,0.5
			c0.1,0,0.2,0,0.2,0l0,0c0,0,0,0,0,0c-0.1-0.1,0,0,0-0.1l0.1-0.1l0.6-0.4l1.1-0.9c2.9-2.4,5.7-5,8-8c1.1-1.5,2.2-3.1,3-4.8
			c0.8-1.7,1.2-3.5,1.1-5.4c-0.1-1.8-0.9-3.6-2.1-4.9c-1.2-1.4-2.8-2.5-4.4-3.4l0.1,0c-1.4-0.3-3,0.2-4,1.3l-0.7,0.8l0-1
			c0-1,0-2.1-0.1-3c-0.1-0.5-0.2-1-0.5-1.3c-0.2-0.4-0.5-0.3-1-0.2l-0.1,0l-0.1,0c-2.3,0.3-4.5,1.6-6.2,3.2l0,0l0,0
			c-1.3,1-2.5,2.2-3.5,3.5c-1,1.3-1.9,2.7-2.3,4.3l0-0.2c0.3,0.9,0,1.8-0.5,2.5c-0.5,0.7-1.2,1.2-1.9,1.6c-1.4,0.7-3,1.1-4.5,1.4
			c-1.6,0.2-3.2,0.1-4.7,0c-1.6-0.2-3.1-0.4-4.6-0.8c-3-0.7-6-1.6-8.9-2.8c-1.4-0.6-2.8-1.3-4.2-2.2c-0.7-0.4-1.3-0.9-1.9-1.5
			c-0.6-0.5-1.1-1.2-1.4-2c0-0.2-0.1-0.4-0.1-0.6c0-0.2,0-0.4,0-0.6l0.2-1.2c0.1-0.8,0.2-1.5,0.3-2.3c0.2-1.5,0.3-3.1,0.3-4.6
			c0.1-3.1-0.1-6.2-0.7-9.2c-0.6-3-1.6-6-3.2-8.7c-1.5-2.7-3.5-5.1-5.8-7.2l0,0L42.3,92L42.2,92l0.1-0.1c2.2-2.8,3.7-6.1,4.7-9.5
			c1-3.4,1.3-7,1.2-10.6c-0.4-7.1-2.8-14-6.3-20.2c3.6,6.2,6,13.1,6.5,20.2c0.2,3.6-0.2,7.2-1.1,10.6c-1,3.4-2.4,6.8-4.7,9.6l0-0.2
			l4.7,2.2l0,0l0,0c2.3,2.1,4.3,4.5,5.9,7.2c1.6,2.7,2.6,5.7,3.3,8.7c0.6,3.1,0.9,6.2,0.8,9.3c0,1.6-0.1,3.1-0.3,4.7
			c-0.1,0.8-0.2,1.5-0.3,2.3l-0.2,1.2c0,0.2,0,0.4,0,0.5c0,0.2,0.1,0.3,0.1,0.5c0.5,1.4,1.8,2.4,3.1,3.2c1.3,0.8,2.7,1.5,4.1,2.1
			c2.8,1.2,5.8,2.1,8.8,2.8c1.5,0.3,3,0.6,4.6,0.7c1.5,0.1,3.1,0.2,4.6,0c1.5-0.3,3-0.6,4.3-1.3c0.6-0.4,1.2-0.8,1.6-1.4
			c0.4-0.6,0.6-1.3,0.4-1.9l0-0.1l0-0.1c0.5-1.7,1.4-3.2,2.4-4.5c1.1-1.3,2.2-2.5,3.6-3.6l0,0c1.8-1.7,4-3.1,6.6-3.5l-0.1,0l0.5-0.2
			c0.1-0.1,0.3,0,0.5,0c0.2,0,0.3,0.1,0.5,0.2c0.1,0.1,0.3,0.2,0.4,0.4c0.4,0.5,0.5,1.1,0.6,1.6c0.2,1.1,0.2,2.1,0.2,3.2l-0.6-0.3
			c1.2-1.3,3-1.8,4.7-1.5l0,0l0,0c1.7,0.9,3.4,2,4.7,3.5c1.3,1.5,2.2,3.4,2.3,5.4c0.1,2-0.4,4-1.2,5.8c-0.8,1.8-1.9,3.4-3,5
			c-2.4,3.1-5.2,5.8-8.1,8.2c-0.4,0.3-0.8,0.6-1.1,0.9l-0.6,0.4c-0.1,0.1-0.7,0.3-0.9,0.3c-1.1,0-2-0.3-3-0.5
			c-1.9-0.5-3.7-1.1-5.5-1.7l0.4,0l-5.6,3.1l-0.2,0.1l-0.2-0.1l-5.3-1.8l0.3,0c-9.1,1.9-18.2,3.6-27.5,4.5c-2.3,0.3-4.6,0.4-7,0.5
			c-2.3,0-4.7,0.1-7,0c-0.6,0-1.2,0-1.8-0.1l-1.8-0.2c-1.2-0.1-2.3-0.3-3.5-0.5c-1.2-0.3-2.3-0.6-3.4-1c-0.3-0.1-0.6-0.3-0.8-0.4
			c-0.3-0.1-0.6-0.3-0.8-0.5c-0.3-0.2-0.5-0.3-0.8-0.6c-0.3-0.2-0.5-0.4-0.7-0.9l-0.1-0.1l0-0.2l-0.6-14.2l0.4,0.6
			c-3.9-1.7-7.5-4.2-10.1-7.6c-1.3-1.7-2.4-3.6-3.2-5.5c-0.8-2-1.4-4-1.7-6.1c-0.7-4.2-0.6-8.4-0.1-12.6c0.6-4.2,1.5-8.2,2.9-12.2
			l0.1,0.8C8.9,91.5,5.3,86,2.8,79.8c-0.3-0.8-0.6-1.6-0.9-2.3c-0.3-0.8-0.6-1.6-0.8-2.4l-0.6-2.4l-0.4-2.5c-0.4-3.3-0.1-6.8,1.1-10
			c1.2-3.2,3.4-6,6-8.1c2.6-2.2,5.6-3.7,8.7-4.9c3.1-1.2,6.3-2.1,9.6-2.7c3.3-0.6,6.5-1,9.9-1.1l-0.7,0.3c1.1-0.9,2.1-1.9,3.4-2.7
			c0.6-0.4,1.2-0.8,1.8-1.2l1.8-1c1.2-0.7,2.5-1.2,3.8-1.8c1.3-0.5,2.6-1.1,3.9-1.6c8.4-3.1,17.1-5.1,25.9-6.6l0.9,1.5
			c0-0.1,0,0,0,0c0,0,0-0.1,0-0.1c0-0.1,0,0,0.2,0.1l0.3,0.1l0.4,0.1c0.2,0.1,0.5,0.1,0.8,0.1c1.1,0.1,2.2,0.1,3.4,0
			c2.3-0.2,4.6-0.5,6.9-0.8c4.6-0.7,9.2-1.8,14-2c1.2,0,2.4,0,3.6,0.2c1.2,0.2,2.4,0.6,3.5,0.9c2.2,0.6,4.4,0.8,6.7,0.7
			c1.1,0,2.3-0.2,3.4-0.3l3.4-0.5l6.9-1.3c4.6-0.8,9.4-1.3,14.1-1.2c2.4,0.1,4.7,0.4,7.1,0.9c1.2,0.2,2.3,0.6,3.4,0.9
			c1.1,0.3,2.2,0.6,3.3,0.6c0.3,0,0.5,0,0.8,0l0.8-0.2l0.9-0.2c0.3,0,0.6,0,0.9-0.1c1.2-0.1,2.4,0,3.6,0c2.4,0.1,4.7,0.4,7,0.7
			c4.7,0.6,9.3,1.4,13.9,2.3l-0.1,0c4.3-0.3,8.6-0.1,12.9,0.4c4.3,0.6,8.5,1.5,12.4,3.4l-0.1,0c1.9-0.2,3.9-0.3,5.8-0.2
			c1.9,0.1,3.9,0.5,5.7,1.1c3.7,1.2,7,3.6,9.3,6.8c2.3,3.2,3.7,6.9,4.5,10.7C236.9,57.1,237.3,61,237.4,64.8z"/>
	</g>
	<g id="path3075_4_">
		<path id="XMLID_46_" fill="#18180F" d="M181.1,146.2c5.6,0.4,11.3,0.7,17,0.9c2.8,0.1,5.7,0.2,8.5,0.2c1.4,0,2.8,0,4.2-0.1
			c0.7,0,1.4-0.1,2.1-0.2c0.3,0,0.7-0.1,1-0.2c0.3,0,0.6-0.2,0.7-0.2l-0.1,0.1l1.5-1.6l0.2-0.3l0.5,0c0.9,0,2-0.3,2.7-0.8
			c0.8-0.5,1.4-1.3,1.7-2.2c0.4-0.9,0.6-2.1,0.7-3.2c0.1-1.1,0.2-2.3,0.1-3.5c0-2.3-0.4-4.7-0.4-7.2l0-0.4l0.4-0.3
			c3-2.3,5.9-5.2,7.5-8.7c0.8-1.8,1.7-3.6,2.3-5.5c0.3-0.9,0.6-1.8,0.8-2.8c0.2-0.9,0.3-2,0.4-2.9c0.4-3.9-0.3-7.8-1.5-11.6
			c-0.6-1.9-1.3-3.7-2.2-5.5c-0.4-0.9-0.9-1.8-1.3-2.7l-1.5-2.5l-0.1-0.2l0.2-0.2c3.2-2.3,5.9-5.3,7.9-8.7c2-3.4,3.2-7.3,3.1-11.3
			c0.1,4-0.9,8-2.9,11.4c-2,3.5-4.6,6.5-7.8,9l0.1-0.4l1.6,2.5c0.5,0.9,1,1.8,1.4,2.7c0.9,1.8,1.7,3.7,2.4,5.6
			c1.3,3.8,2.1,7.9,1.8,12c-0.1,1-0.2,2-0.3,3c-0.2,1-0.4,2-0.7,3c-0.6,1.9-1.4,3.8-2.2,5.6c-0.8,1.9-2,3.6-3.4,5.2
			c-1.3,1.6-2.8,3-4.4,4.3l0.4-0.7c0,2.3,0.4,4.7,0.6,7.2c0.1,1.2,0.1,2.5-0.1,3.7c-0.1,0.6-0.2,1.3-0.3,1.9l-0.1,0.4
			c0,0.2-0.1,0.3-0.1,0.5c-0.1,0.3-0.2,0.7-0.3,1c-0.5,1.2-1.5,2.4-2.7,3c-0.6,0.3-1.2,0.6-1.9,0.7c-0.7,0.1-1.3,0.2-2,0.2l0.7-0.3
			l-1.6,1.6l-0.1,0.1l0,0c-0.5,0.3-0.9,0.4-1.3,0.4c-0.4,0.1-0.8,0.1-1.1,0.1c-0.7,0.1-1.5,0.1-2.2,0.1c-1.4,0-2.9,0-4.3-0.1
			c-2.8-0.1-5.7-0.4-8.5-0.6C192.3,147.5,186.7,146.9,181.1,146.2z"/>
	</g>
	<g id="g3077_2_" transform="translate(186.5,364.25)">
		<g id="path3079_2_">
			<path id="XMLID_28_" fill="#18180F" d="M-116.9-209c-0.3,0.6-0.4,1.3-0.4,1.9c0,0.7,0.3,1.3,0.6,1.8c0.7,1.1,1.8,1.8,3,2.5l0,0
				c3.3,1.6,7.2,2.3,10.2,4.8l0,0l0,0c1.2,1.4,1.8,3.1,2.4,4.6c0.6,1.5,1.5,3,2.7,3.9l0,0l0,0c0.6,0.7,0.8,1.4,1,2.1
				c0.2,0.7,0.3,1.3,0.5,1.9l-0.1-0.2c1.1,1.5,3.1,2.2,4.9,3.5l-0.5-0.2l1.3,0l0.2,0l0.2,0.2c2.3,1.4,4.6,2.7,7.1,3
				c0.2,0,0.4,0,0.6,0.1l0.7,0l1.4,0.1l2.9,0.1l5.8,0.2c3.8,0.1,7.7,0.2,11.5,0.3c3.8,0.1,7.7,0.1,11.5,0c1.9,0,3.8-0.1,5.7-0.2
				l0.7,0l0.4,0l0.4,0l1.4,0.1c0.9,0.1,1.8,0,2.5-0.4l-0.1,0.1c1-1,2.3-1,3.1-1.3l-0.1,0.1c4.1-3.6,7.4-8,10.5-12.6l0,0l0,0
				c1.5-1.2,3-2.5,4.2-4.1c0.6-0.8,1-1.6,1.3-2.5c0.4-0.9,0.9-1.9,1.6-2.6l0,0l0,0c2.7-2.1,5.2-4.4,7.3-7c2.1-2.7,3.8-5.7,4.7-9
				c-0.9,3.3-2.5,6.4-4.5,9.1c-2.1,2.7-4.6,5.1-7.2,7.2l0,0c-0.7,0.7-1.1,1.6-1.4,2.5c-0.3,0.9-0.8,1.9-1.4,2.7
				c-1.2,1.6-2.6,3-4.2,4.3l0.1-0.1c-3,4.6-6.3,9.2-10.4,13l-0.1,0l-0.1,0c-0.6,0.3-1.1,0.4-1.6,0.5c-0.5,0.2-0.9,0.3-1.2,0.6l0,0
				l0,0c-1,0.7-2.1,0.7-3.1,0.6l-1.4-0.1l-0.3,0l-0.3,0l-0.7,0c-1.9,0.1-3.8,0.2-5.8,0.3c-3.9,0.2-7.7,0.3-11.6,0.3
				c-3.9,0-7.7,0-11.6,0l-5.8-0.1l-2.9-0.1l-1.4,0l-0.7,0c-0.3,0-0.5,0-0.8,0c-3.1-0.5-5.5-2-7.8-3.6l0.5,0.1l-1.3,0l-0.3,0
				l-0.2-0.2c-1.5-1.2-3.6-2.1-5.1-4l-0.1-0.1l0-0.1c-0.2-0.7-0.3-1.4-0.4-2c-0.1-0.6-0.3-1.2-0.6-1.5l0,0c-1.4-1.2-2.2-2.9-2.8-4.5
				c-0.6-1.6-1.1-3.2-2.1-4.5l0,0c-2.7-2.5-6.5-3.4-9.8-5.2l0,0l0,0c-1.1-0.7-2.2-1.5-2.9-2.7c-0.4-0.6-0.6-1.2-0.6-1.9
				C-117.4-207.8-117.2-208.5-116.9-209z"/>
		</g>
	</g>
	<g id="g3081_2_" transform="translate(501,638.8955)">
		<g id="path3083_2_">
			<path id="XMLID_27_" fill="#18180F" d="M-300.1-598.4c-2.7,2.7-5,5.8-6.7,9.2c-1.7,3.4-2.7,7.1-3.2,10.9
				c-0.5,3.8-0.3,7.6,0.4,11.3c0.6,3.7,1.7,7.4,3.2,10.8l0.2,0.3l-0.2,0.3c-3.1,4.2-5.8,8.8-7.1,13.7c-0.6,2.5-0.9,5-0.6,7.5
				c0.3,2.5,1.1,4.9,2.4,7c1.3,2.3,3.2,4.4,5.3,5.8l1.3,0.9l-1.2,0.7c-0.9,0.5-1.5,0.7-2.1,1l-2,0.7l-3.9,1.3l-7.8,2.6
				c-5.2,1.7-10.4,3.3-15.7,5l-0.1,0l-0.1,0c-2.5,0.2-5.1,0.2-7.7-0.5c-1.3-0.4-2.5-1-3.5-1.9c-0.2-0.2-0.5-0.5-0.7-0.7
				c-0.1-0.1-0.2-0.2-0.3-0.3c-0.1-0.1-0.1-0.1-0.1-0.1l0,0l0,0l-0.1-0.1l0,0l-0.1-0.1c-0.1-0.1-0.4-0.6-0.4-0.7
				c-0.1-0.2-0.1-0.4-0.1-0.5l-0.2-0.9c-0.2-1.1-0.8-2.1-1.7-2.8c-0.8-0.7-1.9-1.3-3-1.7c-0.6-0.2-1.1-0.4-1.7-0.4
				c-0.5-0.1-1.1,0-1.5,0.2c-0.8,0.4-1.2,1.6-1.2,2.6l0,1.2l-1-0.7c-1.6-1.2-3.7-1.9-5.5-1.4c-0.9,0.2-1.8,0.7-2.6,1.4
				c-0.7,0.7-1.3,1.5-1.8,2.4c-0.5,0.9-0.9,1.9-1.3,2.8l-0.5,1.5l-0.2,1.5c-0.2,2.1,0.1,4.2,0.7,6.1c0.6,2,1.6,3.9,2.9,5.6
				c0.6,0.9,1.3,1.7,2,2.4c0.7,0.7,1.5,1.5,2.4,1.9c0.2,0.1,0.5,0.2,0.7,0.3c0.2,0,0.5,0.1,0.7,0.1c0.5,0.1,1,0.1,1.6,0.1
				c1.1,0,2.1-0.1,3.2-0.2c2.1-0.2,4.2-0.6,6.3-1l0.1,0l0.1,0l6.4,1.8l-0.1,0c1.1-0.4,2.1-0.7,3.2-0.8c1.1-0.2,2.2-0.3,3.3-0.4
				c2.2-0.2,4.4-0.3,6.6-0.3c4.4-0.1,8.8-0.1,13.2,0c-4.4-0.1-8.8,0-13.2,0.2c-2.2,0.1-4.4,0.2-6.6,0.4c-2.2,0.2-4.4,0.5-6.4,1.3
				l-0.1,0l-0.1,0l-6.4-1.7l0.1,0c-2.1,0.4-4.2,0.8-6.3,1.1c-1.1,0.1-2.1,0.2-3.2,0.3c-0.5,0-1.1,0-1.6,0c-0.3,0-0.6-0.1-0.9-0.1
				c-0.3-0.1-0.5-0.1-0.8-0.3c-1-0.6-1.8-1.3-2.6-2c-0.8-0.8-1.5-1.6-2.1-2.5c-1.3-1.7-2.3-3.7-3-5.7c-0.7-2.1-1-4.3-0.8-6.5
				l0.2-1.7l0.4-1.5c0.4-1.1,0.8-2.1,1.3-3c0.5-1,1.2-1.9,2-2.7c0.8-0.8,1.9-1.4,3-1.7c1.1-0.3,2.3-0.2,3.4,0.1
				c1.1,0.3,2.1,0.8,3.1,1.5l-0.9,0.5c0-0.7,0.1-1.4,0.3-2.1c0.2-0.7,0.8-1.3,1.5-1.7c1.4-0.7,3-0.3,4.1,0.1c1.2,0.4,2.4,1,3.5,1.9
				c1,0.9,1.8,2.2,2.1,3.5l0.2,0.9c0,0.1,0.1,0.3,0.1,0.4c0,0.1,0,0.1,0,0.1c0,0-0.1,0,0,0l0.1,0.1l0,0c-0.2-0.2-0.1,0-0.1-0.1l0,0
				l0,0l0.1,0.1c0.1,0.1,0.2,0.1,0.3,0.2c0.1,0.1,0.3,0.2,0.4,0.4c0.2,0.2,0.4,0.4,0.6,0.6c0.8,0.7,1.9,1.2,3,1.5
				c2.3,0.6,4.7,0.6,7.1,0.4l-0.2,0c5.2-1.7,10.4-3.4,15.6-5.2l7.8-2.7l3.9-1.4l1.9-0.7c0.6-0.2,1.3-0.5,1.6-0.7l0.1,1.7
				c-2.6-1.7-4.5-3.9-6.1-6.4c-1.4-2.4-2.2-5.2-2.5-7.9c-0.2-2.8,0.1-5.5,0.9-8.2c1.5-5.3,4.5-9.9,7.7-14.1l-0.1,0.7
				c-1.5-3.6-2.5-7.4-3-11.2c-0.5-3.8-0.6-7.7,0-11.6c0.5-3.8,1.7-7.6,3.5-11C-305.3-592.7-302.9-595.7-300.1-598.4z"/>
		</g>
	</g>
	<g id="g3085_2_" transform="translate(375.5859,290.751)">
		<g id="path3087_2_" inkscape:connector-curvature="0">
			<path id="XMLID_58_" fill="#DEBE94" d="M-227-104.9c0,0-2,0.6-3.4,0.2S-226.9-105-227-104.9"/>
			<g id="XMLID_60_">
				<path id="XMLID_62_" fill="#FFFFFF" d="M-227-104.9c0,0-0.5,0.4-1.1,0.8c-0.6,0.4-1.3,0.6-1.3,0.6s-0.4-0.1-0.9-0.2
					c-0.2-0.1-0.2-0.1-0.5-0.2c0,0-0.1-0.1-0.2-0.1c0,0,0,0-0.1-0.1c-0.1-0.1-0.2-0.4-0.2-0.5c0-0.2,0.1-0.5,0.2-0.6
					c0.1-0.1,0.1-0.1,0.1-0.1l0.1,0c0,0,0.1-0.1,0.1-0.1l0.1,0c0.2,0,0.2,0,0.3,0c0.4,0,0.7,0.1,1,0.1
					C-228.3-105.2-227-104.9-227-104.9c0-0.1-1.2,0.2-2.4,0.5c-0.3,0.1-0.6,0.2-0.8,0.3c0,0-0.1,0.1-0.1,0.1l0,0c0,0,0.1,0,0.1,0
					l0,0c0,0,0,0,0.1-0.1c0.1-0.1,0.2-0.4,0.2-0.6c0-0.2-0.1-0.4-0.2-0.5l-0.1-0.1c0,0-0.1-0.1-0.1-0.1c0,0,0.1,0,0.2,0
					c0.4,0,0.6-0.1,0.6-0.1s0.5,0.3,1.1,0.4C-227.7-104.9-227-104.9-227-104.9z"/>
			</g>
		</g>
	</g>
	<g id="g3089_2_" transform="translate(250.57143,301.95171)">
		<path id="path3091_2_" fill="#27241F" d="M-154.2-120.7c0,0-5,5.4-2.2,8c2.8,2.6,0.7,7.5,31.6,15.4c0,0,27.1-11,28.6-16.7
			c0,0,1.8-3.2-1.8-5.2C-101.6-121.2-121.5-112.7-154.2-120.7"/>
	</g>
	<g id="g3095_2_" transform="translate(0,-1.1124389)">
		<g id="g3101_2_" transform="translate(270.6001,528.2129)">
			<g id="path3103_2_" inkscape:connector-curvature="0">
				<path id="XMLID_56_" fill="#FFFFFF" d="M-160.2-459.5c0,0-9.7-1.3-11.6-7.4c-1.9-6.1-2.6-24.6,2.9-30.1c5.5-5.4,41.3-1,46.3,4.4
					c0,0,2.7,11,0,19.6c-2.7,8.6-1.9,11.8-6.3,15.4c0,0-3.5,1.7-11.6-0.3c0,0,0,3.4-1.8,4.5C-144-452.3-161.2-449-160.2-459.5"/>
				<g id="XMLID_57_">
					<path id="XMLID_59_" fill="#FFFFFF" d="M-160.2-459.5c0,0-0.9-0.1-2.4-0.5c-1.5-0.4-3.7-1-5.9-2.5c-1.1-0.7-2.2-1.8-3-3.1
						c-0.8-1.4-1-3-1.4-4.6c-0.6-3.3-0.9-6.8-0.9-10.4c0-3.6,0.3-7.1,1.1-10.5c0.5-1.6,0.9-3.2,1.8-4.7l0.3-0.5
						c0.1-0.2,0.3-0.3,0.4-0.5l0.4-0.5l0.2-0.2l0.1-0.1l0,0l0.1-0.1l0.1,0c0.3-0.2,0.5-0.5,0.9-0.7c0.2-0.1,0.4-0.2,0.6-0.3
						c0.2-0.1,0.3-0.1,0.5-0.2c1.3-0.5,2.6-0.8,3.7-1c1.1-0.2,2.1-0.3,2.8-0.4c0.8-0.1,1.4-0.1,1.8-0.1c0.4,0,0.6,0,0.6,0
						c6.3-0.1,12.4,0.5,18.6,1.5c3.1,0.5,6.1,1.1,9.1,2c1.5,0.4,3,0.9,4.5,1.5c1.5,0.6,2.9,1.2,4.2,2.5l0.1,0.1l0,0.2
						c0.7,3.1,1,6.1,1.1,9.2c0.1,3.1-0.1,6.2-0.9,9.3c-0.4,1.5-0.9,2.9-1.3,4.4c-0.4,1.5-0.8,2.9-1.1,4.4c-0.4,1.5-0.8,3-1.5,4.4
						c-0.7,1.4-1.8,2.6-3,3.6l0,0l0,0c-1,0.4-2,0.5-3,0.6c-1,0.1-2,0.1-3,0c-2-0.1-3.9-0.5-5.8-1l0.3-0.2c-0.1,1.2-0.3,2.4-0.9,3.4
						c-0.3,0.5-0.7,1-1.3,1.3c-0.6,0.3-1.1,0.4-1.7,0.5c-2.3,0.5-4.6,0.8-6.9,0.7c-2.3-0.1-4.7-0.4-6.7-1.6c-1-0.6-1.8-1.5-2.3-2.6
						C-160.2-457.1-160.3-458.3-160.2-459.5c-0.1,1.1,0,2.3,0.5,3.4c0.5,1,1.3,1.9,2.3,2.5c2,1.1,4.4,1.4,6.6,1.4
						c2.3,0,4.6-0.3,6.8-0.8c0.5-0.1,1.1-0.3,1.6-0.5c0.5-0.3,0.8-0.7,1.1-1.2c0.5-1,0.7-2.1,0.7-3.2l0-0.3l0.3,0.1
						c1.9,0.5,3.8,0.8,5.7,0.9c1,0.1,1.9,0.1,2.9,0c0.9-0.1,1.9-0.3,2.7-0.6l-0.1,0c1.1-1,2.1-2.1,2.7-3.4c0.6-1.3,1-2.8,1.3-4.3
						c0.3-1.5,0.7-3,1.1-4.5c0.4-1.5,0.9-3,1.2-4.4c0.7-2.9,0.8-5.9,0.7-9c-0.1-3-0.6-6-1.2-8.9l0.2,0.3c-0.9-0.9-2.3-1.5-3.7-2.1
						c-1.4-0.5-2.9-1-4.3-1.3c-2.9-0.8-6-1.3-9-1.8c-6-0.9-12.2-1.4-18.2-1.1c0,0-0.2,0-0.6,0c-0.4,0-1,0-1.8,0.1
						c-0.8,0-1.7,0.1-2.7,0.3c-1,0.1-2.2,0.4-3.3,0.8l-0.4,0.2l-0.3,0.2c-0.2,0.1-0.5,0.3-0.8,0.5l-0.1,0l0,0c0,0-0.1,0.1,0,0l0,0
						l-0.1,0.1l-0.2,0.2l-0.3,0.4c-0.1,0.1-0.2,0.2-0.3,0.4l-0.3,0.4c-0.8,1.2-1.3,2.7-1.8,4.2c-0.9,3.1-1.3,6.6-1.4,10.1
						c-0.1,3.5,0,7,0.5,10.3c0.2,1.6,0.5,3.2,1.1,4.5c0.7,1.3,1.7,2.3,2.8,3.1c2.1,1.5,4.3,2.2,5.7,2.7
						C-161.1-459.6-160.2-459.5-160.2-459.5z"/>
				</g>
			</g>
		</g>
		<g id="g3105_2_" transform="translate(277.6665,542.333)">
			<g id="path3107_2_">
				<path id="XMLID_26_" fill="#26231D" d="M-164.3-479.5c0,0-0.5,0.7-1.1,1.8c-0.6,1.1-1.2,2.7-1.4,4.3c-0.1,0.8,0,1.6,0.2,2.2
					c0.1,0.3,0.3,0.6,0.4,0.9c0.2,0.2,0.4,0.5,0.5,0.7c0.4,0.3,0.7,0.6,1.1,0.8c0.3,0.1,0.4,0.2,0.4,0.2c0.2,0.2,0.4,0.3,0.7,0.4
					c0.3,0.1,0.6,0.2,0.8,0.3c0.6,0.2,1.2,0.4,1.8,0.5c1.2,0.3,2.5,0.4,3.7,0.4c2.5,0.1,5.1-0.3,7.6-1l-0.1,0
					c0.3-0.1,0.6-0.5,0.8-0.8c0.2-0.4,0.4-0.8,0.5-1.2c0.2-0.9,0.3-1.8,0.2-2.7c-0.2-1.9-0.7-3.7-1.3-5.5c0.8,1.7,1.4,3.5,1.8,5.5
					c0.1,1,0.2,1.9,0,2.9c-0.2,1-0.5,2-1.6,2.7l0,0l-0.1,0c-2.5,0.9-5.1,1.5-7.9,1.6c-1.4,0.1-2.7,0-4.1-0.2c-0.7-0.1-1.4-0.2-2-0.4
					c-0.3-0.1-0.7-0.2-1-0.3c-0.3-0.1-0.8-0.3-1-0.5c0,0-0.2-0.1-0.5-0.4c-0.4-0.2-0.8-0.7-1.3-1.3c-0.2-0.3-0.4-0.7-0.6-1.1
					c-0.2-0.4-0.3-0.8-0.4-1.3c-0.1-0.9-0.1-1.9,0.2-2.7c0.4-1.8,1.4-3.2,2.1-4.3C-164.9-478.9-164.3-479.5-164.3-479.5z"/>
			</g>
		</g>
		<g id="g3109_2_" transform="translate(245.3335,602.3335)">
			<g id="path3111_2_" inkscape:connector-curvature="0">
				<path id="XMLID_52_" fill="#DEBE94" d="M-145.5-564.5c0,0-20.3-2.1-21.4-32.8c0,0,10.9,3.5,15.2,4.2c0,0,13.6,10,15.2,28.7
					H-145.5z"/>
				<g id="XMLID_53_">
					<path id="XMLID_55_" fill="#FFFFFF" d="M-145.5-564.5c0,0-0.5,0-1.4-0.2c-0.9-0.2-2.2-0.6-3.6-1.2c-2.9-1.2-6.5-3.6-9.3-6.9
						c-2.8-3.3-4.6-7.2-5.7-10.2c-0.5-1.5-0.9-2.8-1.1-3.7c-0.2-0.9-0.3-1.4-0.3-1.4l-0.4-2.3c-0.1-0.8-0.2-1.5-0.3-2.3l-0.3-4.6
						l-0.1-1.3l1.3,0.4c2.5,0.8,5,1.6,7.5,2.4c2.5,0.7,5,1.5,7.5,2l0.2,0l0.1,0.1c8.7,7.3,14.1,18.1,14.9,29.2l0,0.2l-0.2,0
						L-145.5-564.5l8.9-0.1l-0.1,0.2c-1.1-11-6.9-21.4-15.4-28.1l0.3,0.1c-2.7-0.4-5.2-1.1-7.7-1.8c-2.5-0.7-5.1-1.4-7.6-2.2
						l1.2-0.9l0.4,4.4c0,0.7,0.2,1.5,0.3,2.2l0.4,2.2c0,0,0.1,0.5,0.2,1.4c0.2,0.9,0.5,2.1,0.9,3.6c0.9,2.9,2.3,6.8,4.8,10.1
						c2.4,3.3,5.8,5.9,8.6,7.3c1.4,0.7,2.6,1.1,3.5,1.4C-146-564.6-145.5-564.5-145.5-564.5z"/>
				</g>
			</g>
		</g>
		<g id="g3113_2_" transform="translate(245.3335,602.3335)">
			<g id="path3115_2_">
				<path id="XMLID_25_" fill="#26231D" d="M-145.5-564.5c0,0-0.5,0-1.4-0.2c-0.9-0.2-2.2-0.6-3.6-1.2c-2.9-1.2-6.5-3.6-9.3-6.9
					c-2.8-3.3-4.6-7.2-5.7-10.2c-0.5-1.5-0.9-2.8-1.1-3.7c-0.2-0.9-0.3-1.4-0.3-1.4l-0.4-2.3c-0.1-0.8-0.2-1.5-0.3-2.3l-0.3-4.6
					l-0.1-1.3l1.3,0.4c2.5,0.8,5,1.6,7.5,2.4c2.5,0.7,5,1.5,7.5,2l0.2,0l0.1,0.1c8.7,7.3,14.1,18.1,14.9,29.2l0,0.2l-0.2,0
					L-145.5-564.5l8.9-0.1l-0.1,0.2c-1.1-11-6.9-21.4-15.4-28.1l0.3,0.1c-2.7-0.4-5.2-1.1-7.7-1.8c-2.5-0.7-5.1-1.4-7.6-2.2l1.2-0.9
					l0.4,4.4c0,0.7,0.2,1.5,0.3,2.2l0.4,2.2c0,0,0.1,0.5,0.2,1.4c0.2,0.9,0.5,2.1,0.9,3.6c0.9,2.9,2.3,6.8,4.8,10.1
					c2.4,3.3,5.8,5.9,8.6,7.3c1.4,0.7,2.6,1.1,3.5,1.4C-146-564.6-145.5-564.5-145.5-564.5z"/>
			</g>
		</g>
		<g id="g3117_2_" transform="translate(245.1064,611.0713)">
			<path id="path3119_2_" fill="#CB8F96" d="M-145.3-576.9c0,0-14-3.2-17.1-24c0,0,5.5,4.4,10.3,3.6c0,0,10.9,10.3,10.7,17.1
				C-141.7-573.6-145.3-576.9-145.3-576.9"/>
		</g>
		<g id="g3121_2_" transform="translate(347.333,608.0005)">
			<g id="path3123_2_" inkscape:connector-curvature="0">
				<path id="XMLID_48_" fill="#DEBE94" d="M-204.9-572.6c0,0-1.1-18.9,25.8-32.7c0,0-2.1,26.7-4.7,28.8c-2.6,2.1-2.2,6.7-16.1,11.1
					L-204.9-572.6z"/>
				<g id="XMLID_49_">
					<path id="XMLID_51_" fill="#FFFFFF" d="M-204.9-572.6c0,0-0.1-0.5,0-1.5c0-0.9,0.2-2.3,0.5-3.8c0.7-3.1,2.2-7.2,4.5-10.8
						c2.3-3.7,5.3-6.8,7.6-9c1.2-1.1,2.3-1.9,3-2.5c0.7-0.6,1.2-0.9,1.2-0.9c1.4-0.9,2.7-1.8,4.2-2.6l4.3-2.3l1.5-0.8l-0.2,1.7
						c-0.4,4.1-0.9,8.2-1.4,12.3c-0.6,4.1-1.1,8.2-2.1,12.2c-0.2,1-0.5,2-0.9,3c-0.2,0.5-0.4,1-0.9,1.5c-0.1,0.1-0.4,0.3-0.5,0.5
						c-0.2,0.2-0.3,0.3-0.5,0.5c-0.6,0.8-1.2,1.7-1.9,2.5c-0.7,0.8-1.4,1.5-2.3,2.2c-3.4,2.6-7.3,4-11.2,5.2l-0.1,0l-0.1-0.1
						L-204.9-572.6l5,7.2l-0.2-0.1c3.9-1.3,7.8-2.9,10.9-5.5c0.8-0.6,1.5-1.4,2.1-2.1c0.6-0.8,1.2-1.6,1.8-2.5
						c0.1-0.2,0.3-0.4,0.5-0.6c0.2-0.2,0.4-0.3,0.6-0.6c0.2-0.2,0.4-0.7,0.6-1.1c0.3-0.9,0.6-1.9,0.8-2.9c0.8-4,1.3-8.1,1.7-12.2
						c0.4-4.1,0.8-8.2,1-12.3l1.3,0.9l-4.1,2.4c-1.4,0.8-2.6,1.8-4,2.7c0,0-0.5,0.3-1.2,0.8c-0.7,0.5-1.8,1.3-3,2.3
						c-2.4,2-5.5,4.9-7.9,8.3c-2.5,3.4-4.2,7.3-5.1,10.3c-0.4,1.5-0.7,2.8-0.7,3.8C-204.9-573.1-204.9-572.6-204.9-572.6z"/>
				</g>
			</g>
		</g>
		<g id="g3125_2_" transform="translate(347.333,608.0005)">
			<g id="path3127_2_">
				<path id="XMLID_24_" fill="#26231D" d="M-204.9-572.6c0,0-0.1-0.5,0-1.5c0-0.9,0.2-2.3,0.5-3.8c0.7-3.1,2.2-7.2,4.5-10.8
					c2.3-3.7,5.3-6.8,7.6-9c1.2-1.1,2.3-1.9,3-2.5c0.7-0.6,1.2-0.9,1.2-0.9c1.4-0.9,2.7-1.8,4.2-2.6l4.3-2.3l1.5-0.8l-0.2,1.7
					c-0.4,4.1-0.9,8.2-1.4,12.3c-0.6,4.1-1.1,8.2-2.1,12.2c-0.2,1-0.5,2-0.9,3c-0.2,0.5-0.4,1-0.9,1.5c-0.1,0.1-0.4,0.3-0.5,0.5
					c-0.2,0.2-0.3,0.3-0.5,0.5c-0.6,0.8-1.2,1.7-1.9,2.5c-0.7,0.8-1.4,1.5-2.3,2.2c-3.4,2.6-7.3,4-11.2,5.2l-0.1,0l-0.1-0.1
					L-204.9-572.6l5,7.2l-0.2-0.1c3.9-1.3,7.8-2.9,10.9-5.5c0.8-0.6,1.5-1.4,2.1-2.1c0.6-0.8,1.2-1.6,1.8-2.5
					c0.1-0.2,0.3-0.4,0.5-0.6c0.2-0.2,0.4-0.3,0.6-0.6c0.2-0.2,0.4-0.7,0.6-1.1c0.3-0.9,0.6-1.9,0.8-2.9c0.8-4,1.3-8.1,1.7-12.2
					c0.4-4.1,0.8-8.2,1-12.3l1.3,0.9l-4.1,2.4c-1.4,0.8-2.6,1.8-4,2.7c0,0-0.5,0.3-1.2,0.8c-0.7,0.5-1.8,1.3-3,2.3
					c-2.4,2-5.5,4.9-7.9,8.3c-2.5,3.4-4.2,7.3-5.1,10.3c-0.4,1.5-0.7,2.8-0.7,3.8C-204.9-573.1-204.9-572.6-204.9-572.6z"/>
			</g>
		</g>
		<g id="g3129_2_" transform="translate(353.0811,611.939)">
			<path id="path3131_2_" fill="#CB8F96" d="M-208.2-578.1c0,0,5.4-18.8,18.4-22.9c0,0,3,19.9-14,24.9
				C-220.7-571-208.2-578.1-208.2-578.1"/>
		</g>
		<g id="g3133_2_" transform="translate(284.8335,539.3335)">
			<g id="path3135_2_" inkscape:connector-curvature="0">
				<path id="XMLID_43_" fill="#27241F" d="M-168.5-475.2c0,0,4.9-1.4,8.2,1.1c0,0-1.6,4.7-4.4,5.4
					C-164.7-468.7-167.7-469-168.5-475.2"/>
				<g id="XMLID_45_">
					<path id="XMLID_47_" fill="#FFFFFF" d="M-168.5-475.2c0,0,0.5-0.2,1.2-0.4c0.7-0.2,1.7-0.4,2.8-0.5c1-0.1,2.1,0,2.9,0.3
						c0.8,0.2,1.3,0.5,1.3,0.5l0.6,0.4l0.6,0.5l-0.3,0.7c-0.5,1.2-1.2,2.3-2,3.4c-0.8,1-1.9,2-3.3,2.3l-0.1,0l-0.1,0
						c-0.5-0.1-0.8-0.3-1.1-0.5c-0.3-0.2-0.6-0.5-0.8-0.8c-0.5-0.6-0.8-1.2-1-1.8C-168.2-472.5-168.4-473.9-168.5-475.2
						c0.3,1.3,0.6,2.6,1.2,3.7c0.3,0.6,0.7,1.1,1.1,1.5c0.4,0.4,1,0.7,1.4,0.8l-0.2,0c1-0.3,1.7-1.2,2.3-2.1c0.6-0.9,1-2.1,1.3-3.1
						l0.3,1.1l-0.4-0.3c0,0-0.3-0.3-0.9-0.6c-0.6-0.3-1.4-0.7-2.4-0.9c-0.9-0.2-1.9-0.3-2.7-0.3C-168-475.3-168.5-475.2-168.5-475.2
						z"/>
				</g>
			</g>
		</g>
		<g id="g3137_2_" transform="translate(264.292,563.5)">
			<g id="path3139_2_" inkscape:connector-curvature="0">
				<path id="XMLID_40_" fill="#27241F" d="M-156.5-509.5c0,1.5-1.2,2.8-2.8,2.8c-1.5,0-2.8-1.2-2.8-2.8c0-1.5,1.2-2.8,2.8-2.8
					C-157.8-512.3-156.5-511-156.5-509.5"/>
				<g id="XMLID_42_">
					<path id="XMLID_44_" fill="#FFFFFF" d="M-156.5-509.5c0,0,0,0.1,0,0.3c0,0.2,0,0.4,0,0.7c-0.1,0.6-0.4,1.4-1.1,1.9
						c-0.7,0.6-1.7,0.8-2.4,0.7c-0.7-0.1-1.2-0.3-1.2-0.3s-0.2-0.1-0.5-0.4c-0.3-0.3-0.7-0.8-0.9-1.5c-0.1-0.3-0.2-0.7-0.2-1.1
						l0-0.3l0-0.2c0-0.2,0.1-0.5,0.2-0.7c0.3-0.8,0.9-1.5,1.7-1.9c0.8-0.4,1.7-0.4,2.4-0.2c0.7,0.2,1.3,0.7,1.6,1.2
						C-156.3-510.3-156.5-509.5-156.5-509.5c0,0,0,0,0-0.1c0-0.1,0-0.2-0.1-0.4c-0.1-0.3-0.3-0.7-0.6-1.1c-0.3-0.4-0.9-0.7-1.5-0.8
						c-0.6-0.1-1.2,0.1-1.7,0.4c-0.5,0.4-0.8,0.9-0.9,1.4c0,0.1,0,0.2,0,0.3l0,0.2c0,0,0,0.1,0,0.1c0,0.2,0.1,0.4,0.2,0.6
						c0.2,0.3,0.4,0.5,0.6,0.6c0.2,0.1,0.3,0.1,0.3,0.1s0.2,0.2,0.5,0.4c0.4,0.2,0.9,0.3,1.5,0.1c0.6-0.2,1.1-0.6,1.4-1.1
						c0.1-0.2,0.2-0.4,0.2-0.6C-156.5-509.4-156.5-509.5-156.5-509.5z"/>
				</g>
			</g>
		</g>
		<g id="g3141_2_" transform="translate(257,566.3315)">
			<g id="path3143_2_" inkscape:connector-curvature="0">
				<path id="XMLID_37_" fill="#FFFFFF" d="M-152.3-513.5c0,0.5-0.4,0.8-0.8,0.8s-0.8-0.4-0.8-0.8c0-0.5,0.4-0.8,0.8-0.8
					S-152.3-514-152.3-513.5"/>
				<g id="XMLID_39_">
					<path id="XMLID_41_" fill="#FFFFFF" d="M-152.3-513.5c0,0,0.1,0.1,0.1,0.3c0,0.2,0,0.6-0.3,0.9c-0.2,0.3-0.7,0.5-1,0.5
						c-0.4,0-0.6-0.1-0.6-0.1s-0.1-0.1-0.2-0.2c-0.1-0.2-0.3-0.4-0.4-0.7c0-0.2-0.1-0.4,0-0.5l0-0.2l0-0.1c0-0.1,0.1-0.2,0.1-0.3
						c0.2-0.4,0.5-0.6,0.8-0.8c0.7-0.3,1.3,0.2,1.5,0.6C-152.1-513.7-152.3-513.5-152.3-513.5c0,0-0.1-0.3-0.3-0.4
						c-0.2-0.2-0.6-0.1-0.7,0.1c-0.1,0.2,0.1,0.3,0.2,0.2c0.1-0.1,0.1-0.2,0.1-0.2c0,0-0.1,0-0.1,0.1c0,0.1,0,0.2,0.1,0.3
						c0.1,0.1,0.3,0.1,0.5,0C-152.3-513.4-152.3-513.5-152.3-513.5z"/>
				</g>
			</g>
		</g>
		<g id="g3145_2_" transform="translate(347.3574,557.6646)">
			<g id="path3147_2_" inkscape:connector-curvature="0">
				<path id="XMLID_34_" fill="#27241F" d="M-204.9-501.2c0,1.5-1.2,2.8-2.8,2.8c-1.5,0-2.8-1.2-2.8-2.8c0-1.5,1.2-2.8,2.8-2.8
					C-206.1-504-204.9-502.7-204.9-501.2"/>
				<g id="XMLID_36_">
					<path id="XMLID_38_" fill="#FFFFFF" d="M-204.9-501.2c0,0,0,0.1,0,0.3c0,0.2,0,0.4,0,0.7c-0.1,0.6-0.4,1.4-1.1,1.9
						c-0.7,0.6-1.7,0.8-2.4,0.7c-0.7-0.1-1.2-0.3-1.2-0.3s-0.2-0.1-0.5-0.4c-0.3-0.3-0.7-0.8-0.9-1.5c-0.1-0.3-0.2-0.7-0.2-1.1
						l0-0.3l0-0.2c0-0.2,0.1-0.5,0.2-0.7c0.3-0.8,0.9-1.5,1.7-1.9c0.8-0.4,1.7-0.4,2.4-0.2c0.7,0.2,1.3,0.7,1.6,1.2
						C-204.7-502-204.9-501.2-204.9-501.2c0,0,0,0,0-0.1c0-0.1,0-0.2-0.1-0.4c-0.1-0.3-0.3-0.7-0.6-1.1c-0.3-0.4-0.9-0.7-1.5-0.8
						c-0.6-0.1-1.2,0.1-1.7,0.4c-0.5,0.4-0.8,0.9-0.9,1.4c0,0.1,0,0.2,0,0.3l0,0.2c0,0,0,0.1,0,0.1c0,0.2,0.1,0.4,0.2,0.6
						c0.2,0.3,0.4,0.5,0.6,0.6c0.2,0.1,0.3,0.1,0.3,0.1s0.2,0.2,0.5,0.4c0.4,0.2,0.9,0.3,1.5,0.1c0.6-0.2,1.1-0.6,1.4-1.1
						c0.1-0.2,0.2-0.4,0.2-0.6C-204.9-501.1-204.9-501.2-204.9-501.2z"/>
				</g>
			</g>
		</g>
		<g id="g3149_2_" transform="translate(340.0664,560.4961)">
			<g id="path3151_2_" inkscape:connector-curvature="0">
				<path id="XMLID_31_" fill="#FFFFFF" d="M-200.6-505.2c0,0.5-0.4,0.8-0.8,0.8s-0.8-0.4-0.8-0.8c0-0.5,0.4-0.8,0.8-0.8
					S-200.6-505.7-200.6-505.2"/>
				<g id="XMLID_33_">
					<path id="XMLID_35_" fill="#FFFFFF" d="M-200.6-505.2c0,0,0.1,0.1,0.1,0.3c0,0.2,0,0.6-0.3,0.9c-0.2,0.3-0.7,0.5-1,0.5
						c-0.4,0-0.6-0.1-0.6-0.1s-0.1-0.1-0.2-0.2c-0.1-0.2-0.3-0.4-0.4-0.7c0-0.2-0.1-0.4,0-0.5l0-0.2l0-0.1c0-0.1,0.1-0.2,0.1-0.3
						c0.2-0.4,0.5-0.6,0.8-0.8c0.7-0.3,1.3,0.2,1.5,0.6C-200.5-505.4-200.7-505.2-200.6-505.2c0,0-0.1-0.3-0.3-0.4
						c-0.2-0.2-0.6-0.1-0.7,0.1c-0.1,0.2,0.1,0.3,0.2,0.2c0.1-0.1,0.1-0.2,0.1-0.2c0,0-0.1,0-0.1,0.1c0,0.1,0,0.2,0.1,0.3
						c0.1,0.1,0.3,0.1,0.5,0C-200.7-505.1-200.6-505.2-200.6-505.2z"/>
				</g>
			</g>
		</g>
		<g id="g3153_2_" transform="translate(247.25,614.5)">
			<g id="path3155_2_" inkscape:connector-curvature="0">
				<path id="XMLID_29_" fill="#DEBE94" d="M-146.6-581.8c0,0,0.3-4.2,15.9-3.9c15.6,0.3,4.3,1.1,4.3,1.1l-17.1,3.7L-146.6-581.8z"
					/>
				<g id="XMLID_30_">
					<path id="XMLID_32_" fill="#FFFFFF" d="M-146.6-581.8c0,0,0-0.3,0.3-0.7c0.2-0.4,0.7-0.9,1.4-1.3c1.3-0.9,3.4-1.6,5.5-2
						c2.1-0.5,4.2-0.7,5.8-0.8c1.6-0.1,2.6-0.2,2.6-0.2c2.1,0.1,4.2,0.2,6.4,0.4c0.5,0.1,1.1,0.1,1.6,0.2c0.1,0,0.3,0,0.5,0.1
						c0.1,0,0.1,0,0.3,0.1l0.1,0.1l0.1,0c0,0,0.1,0.1,0.2,0.2c0.1,0.2,0.2,0.3,0.2,0.6c0,0.2-0.2,0.5-0.3,0.6
						c-0.1,0.1-0.2,0.1-0.3,0.2l-0.2,0.1c-0.1,0-0.2,0-0.3,0.1c-0.2,0-0.3,0.1-0.4,0.1c-1.1,0.2-2.2,0.2-3.2,0.3l0.1,0l-17.2,3.2
						l0,0l0,0L-146.6-581.8l3.2,0.8l-0.1,0l17-4.2l0,0l0.1,0c1-0.1,2.1-0.3,3.1-0.5l0.3-0.1c0,0,0.1,0,0.1,0l0,0c0,0-0.1,0-0.1,0.1
						c-0.1,0.1-0.3,0.4-0.3,0.6c0,0.2,0,0.3,0.2,0.5c0,0.1,0.1,0.1,0.2,0.1l0,0l0,0c0.1,0,0,0-0.1,0l-0.3,0c-0.5,0-1-0.1-1.5-0.1
						c-2.1,0-4.2,0-6.3,0c0,0-1-0.1-2.6-0.2c-1.5,0-3.6-0.1-5.7,0.1c-2,0.2-4.1,0.5-5.5,1.2c-0.7,0.3-1.2,0.7-1.5,1.1
						C-146.5-582.1-146.6-581.8-146.6-581.8z"/>
				</g>
			</g>
		</g>
		<g id="g3157_2_" transform="translate(362.5498,570.167)">
			<path id="path3159_2_" fill="#DEBE94" d="M-213.7-518.9c-3.1-5.2-9.4-6.8-9.4-6.8c-5.7-1.3-9.5,3.3-12.4,6.4
				c-2.9,3.2-6.2,0.4-6.2,0.4c-13.4-11.3-13.3-9-15.8-9.2c-2.5-0.2-7.7,5.7-7.7,5.7c0.7-5.2,1.8-14.3,3.1-15.1
				c1.3-0.8,25.8-9.6,47.6,4.1c0,0,2,5.1,0.9,13.6L-213.7-518.9z"/>
		</g>
		<g id="g3161_2_" transform="translate(360.625,605.5)">
			<path id="path3163_2_" fill="#DEBE94" d="M-212.6-569c0,0,0-0.9-0.5-1.3c-0.5-0.3-9.6-4.6-12.7-4c-3,0.6,8.4,7,9.3,6.9
				C-215.5-567.5-212.6-569-212.6-569"/>
		</g>
		<g id="g3165_2_" transform="translate(292.5947,524.0664)">
			<g id="path3167_2_">
				<polygon id="XMLID_23_" fill="#26231D" points="-173,-453.6 -172.6,-451.2 -173.3,-452.3 -172.9,-452.4 -168.2,-450.1 
					-173.4,-450.3 -173.7,-450.6 -174.7,-451.3 -174.4,-451.7 				"/>
			</g>
		</g>
		<g id="g3169_2_" transform="translate(281.6089,517.5376)">
			<g id="path3171_2_">
				<polygon id="XMLID_22_" fill="#26231D" points="-166.6,-444.3 -165.5,-445.6 -162.8,-444.9 -165.2,-443.5 				"/>
			</g>
		</g>
		<g id="g3173_2_" transform="translate(249.75,584)">
			<g id="path3175_2_">
				<polygon id="XMLID_21_" fill="#26231D" points="-148,-538.5 -144.5,-538 -139,-534.1 -145.5,-536.1 				"/>
			</g>
		</g>
		<g id="g3177_2_" transform="translate(323.667,571.1035)">
			<g id="path3179_2_">
				<polygon id="XMLID_20_" fill="#26231D" points="-191.1,-520.3 -188,-523 -180.5,-525.6 -187.1,-521.1 				"/>
			</g>
		</g>
		<g id="g3181_2_" transform="translate(270.4678,528.2134)">
			<g id="path3183_2_">
				<path id="XMLID_19_" fill="#26231D" d="M-160.1-459.5c0,0-0.9-0.1-2.4-0.5c-1.5-0.4-3.7-1-5.9-2.5c-1.1-0.7-2.2-1.8-3-3.1
					c-0.8-1.4-1-3-1.4-4.6c-0.6-3.3-0.9-6.8-0.9-10.4c0-3.6,0.3-7.1,1.1-10.5c0.5-1.6,0.9-3.2,1.8-4.7l0.3-0.5
					c0.1-0.2,0.3-0.3,0.4-0.5l0.4-0.5l0.2-0.2l0.1-0.1l0,0l0.1-0.1l0.1,0c0.3-0.2,0.5-0.5,0.9-0.7c0.2-0.1,0.4-0.2,0.6-0.3
					c0.2-0.1,0.3-0.1,0.5-0.2c1.3-0.5,2.6-0.8,3.7-1c1.1-0.2,2.1-0.3,2.8-0.4c0.8-0.1,1.4-0.1,1.8-0.1c0.4,0,0.6,0,0.6,0
					c6.3-0.1,12.4,0.5,18.6,1.5c3.1,0.5,6.1,1.1,9.1,2c1.5,0.4,3,0.9,4.5,1.5c1.5,0.6,2.9,1.2,4.2,2.5l0.1,0.1l0,0.2
					c0.7,3.1,1,6.1,1.1,9.2c0.1,3.1-0.1,6.2-0.9,9.3c-0.4,1.5-0.9,2.9-1.3,4.4c-0.4,1.5-0.8,2.9-1.1,4.4c-0.4,1.5-0.8,3-1.5,4.4
					c-0.7,1.4-1.8,2.6-3,3.6l0,0l0,0c-1,0.4-2,0.5-3,0.6c-1,0.1-2,0.1-3,0c-2-0.1-3.9-0.5-5.8-1l0.3-0.2c-0.1,1.2-0.3,2.4-0.9,3.4
					c-0.3,0.5-0.7,1-1.3,1.3c-0.6,0.3-1.1,0.4-1.7,0.5c-2.3,0.5-4.6,0.7-6.9,0.7c-2.3-0.1-4.7-0.4-6.7-1.6c-1-0.6-1.8-1.5-2.3-2.6
					C-160.2-457.1-160.2-458.3-160.1-459.5c-0.1,1.1,0,2.3,0.5,3.4c0.5,1,1.3,1.9,2.3,2.5c2,1.1,4.4,1.4,6.6,1.4
					c2.3,0,4.6-0.3,6.8-0.8c0.5-0.1,1.1-0.3,1.6-0.5c0.5-0.3,0.8-0.7,1.1-1.2c0.5-1,0.7-2.1,0.7-3.2l0-0.3l0.3,0.1
					c1.9,0.5,3.8,0.8,5.7,0.9c1,0.1,1.9,0.1,2.9,0c0.9-0.1,1.9-0.3,2.7-0.6l-0.1,0c1.1-1,2.1-2.1,2.7-3.4c0.6-1.3,1-2.8,1.3-4.3
					c0.3-1.5,0.7-3,1.1-4.5c0.4-1.5,0.9-3,1.2-4.4c0.7-2.9,0.8-5.9,0.7-9c-0.1-3-0.6-6-1.2-8.9l0.2,0.3c-0.9-0.9-2.3-1.5-3.7-2.1
					c-1.4-0.5-2.9-1-4.3-1.3c-2.9-0.8-6-1.3-9-1.8c-6-0.9-12.2-1.4-18.2-1.1c0,0-0.2,0-0.6,0c-0.4,0-1,0-1.8,0.1
					c-0.8,0-1.7,0.1-2.7,0.3c-1,0.1-2.2,0.4-3.3,0.8l-0.4,0.2l-0.3,0.2c-0.2,0.1-0.5,0.3-0.8,0.5l-0.1,0l0,0c0,0-0.1,0.1,0,0l0,0
					l-0.1,0.1l-0.2,0.2l-0.3,0.4c-0.1,0.1-0.2,0.2-0.3,0.4l-0.3,0.4c-0.8,1.2-1.3,2.7-1.8,4.2c-0.9,3.1-1.3,6.6-1.4,10.1
					c-0.1,3.5,0,7,0.5,10.3c0.2,1.6,0.5,3.2,1.1,4.5c0.7,1.3,1.7,2.3,2.8,3.1c2.1,1.5,4.3,2.2,5.7,2.7
					C-161-459.6-160.1-459.5-160.1-459.5z"/>
			</g>
		</g>
		<g id="path4336_2_">
			<polygon id="XMLID_18_" fill="#040600" points="120.1,131.5 121.4,142.9 121,165.9 119.3,143 			"/>
		</g>
	</g>
	<path id="path3452_2_" fill="#D0B08B" d="M28.7,46.1C14.2,51.8-7.5,56.7,8.1,82.8c1.8,2.9,3.1,4,5.3,6.2c1.5,1.5,4.8,2.2,4.8,4.3
		c0,2.6,1.9-5,1.9-7.6c0-4.2-1.4-8.2-1.4-11.5c0-0.9-0.6-5.1,0-5.7C22.3,64.9,45.9,46.1,28.7,46.1L28.7,46.1z"/>
	<path id="path4238_2_" fill="#D0B08B" d="M29.6,93.3c-6.4,4.5-19.8,10.4-14.8,20.5c0.8,1.7-0.8,4.6,0,6.2c2.5,5,6.2,9.5,9.5,12.9
		c2.2,2.2,10.3,6.2,7.2,6.2c-0.4,0-10.9-22.5-7.2-26.2c2.4-2.4,17.1-12,15.7-14.8C38.3,94.5,33.3,95.2,29.6,93.3z"/>
	<path id="path4256_2_" fill="#D0B08B" d="M151,41c-1.5,12.8-2.8,21.6-9.8,28.6c-0.7,0.7-4.7,1.2-6,1.2c-0.1,0-3.7,1.2-3.7,0.7
		c0-1.1,3.7,3.4,6.7,1.9c2.5-1.2,7.7-2.9,9.3-6c0.1-0.2,0.9-1.6,0.9-1.6c0.4,0-0.6,3.8-0.5,3.9c0.3,0.3,1.3-0.2,1.4-0.5
		c1.2-2.5,2.9-4.7,4.4-7c1.1-1.7,0.6-4.3,1.9-5.6c1.6-1.6,5.3-2.2,5.8-3.7c0.9-2.7-1.6-4.9-1.6-7.4c0-1.2,2.4-4.8,0.9-5.6
		C158.2,38.6,153.6,41,151,41L151,41z"/>
	<path id="path4260_2_" fill="#D0B08B" d="M97.1,37.5c-6.4-0.9-6.2-7.1-11.1-4.6c-0.8,0.4-2-0.3-2.6,0.2c-0.5,0.5-2.3,0-2.8,0.5
		c-0.5,0.5,1.3,0.9,1.4,0.9c1.8,0.6,2.8,2.3,3.9,3.5c3.1,3.1,0.4,5.7,0.7,6c0.6,0.6,3.8-0.4,4.2,0.5c1,2-0.1,5.2,0.9,7.2
		c2.6,5.2,3.5,13,8.1,15.3c1.9,0.9,7.2,4.4,9.1,2.6c1.3-1.3-4-3-4.9-3.5c-4.4-2.2-7.4-5.3-7.4-11.1C96.6,49.9,98.7,41.6,97.1,37.5
		L97.1,37.5z"/>
	<path id="path4262_2_" fill="#D0B08B" d="M218.6,38.9c-1.8-1.8-14.5,1.6-12.2,6.2c1.8,3.7,18.1-1.2,21.4,5.3
		c1.4,2.8-5,12.3-6.2,14.8c-1.4,2.9,1.3,6.8,1.3,9.9c0,1-2.2,5.7-2,5.9c1.2,1.2,9.8-11.1,10.5-13.1c0.6-1.8,1.8-3.9,2.6-5.6
		C238.5,53.2,222.8,41.4,218.6,38.9z"/>
	<path id="path4264_2_" fill="#D0B08B" d="M210.1,86.5c2.2,3.9,11.3-1.5,13.8,1c7.2,7.2,9.9,19.3,0.7,28.6c-0.8,0.8-6,10.5-7.6,8.9
		c-0.2-0.2,7.5-13.2,5.6-17.1c-1.7-3.4-1.6-5.9-6.6-5.9c-1,0-6.4,0.6-5.6-1c0.6-1.3,9.3-4.8,7.9-6.2c-0.7-0.8-25.9-2-24.3-3.6
		c4.4-4.4,11.6-4.6,17.4-4.6"/>
	<path id="path4266_2_" fill="#D0B08B" d="M118.8,98.3c0-1.8-0.2-3.5,0-5.3c2.3-25.7,8.5,4.5,8.3,4.8
		C126.1,99.2,119.9,98.8,118.8,98.3z"/>
	<path id="path4268_2_" fill="#D0B08B" d="M71.1,67.1c12.7,2,21.5,6.8,26.3,19.1c0.8,2.1,8.6,9.9,6.3,10.5
		C94.6,99.1,73.5,73.1,71.1,67.1z"/>
	<path id="path4278_2_" fill="#D0B08B" d="M137.5,95.4c3-12.9,13.9-17.1,23.7-22c1.4-0.7,3.6,0,4.9-0.7c0.6-0.3,5-0.9,5.6-0.3
		c1.8,1.8-4,8.3-4.6,8.9c-7.9,7.9-13.2,9.8-26,13.3"/>
	<path id="path4282_2_" fill="#D0B08B" d="M128.9,206.1c1,1.9,3,4.7,3,6.2c0,3,2.2,6.3,3.3,8.5c0.3,0.5,0.7,2.2,0.7,1.6
		c0-3.9-1.1-12.9,0.7-16.4c0.5-1.1,5.7-8.7,5.3-9.2c-0.7-0.7-5.9,4.6-5.9,4.6C134,203.3,128.9,202.8,128.9,206.1L128.9,206.1z"/>
	<path id="path4284_2_" fill="#D0B08B" d="M108.6,200.8c0.6,1.7,4.7,1.1,5.6,2c1.4,1.4,5.5-0.1,6.9,1.3c2.6,2.6-4.2,10.7-4.9,12.2
		c-1,2-1,3.7-2,5.6c-0.3,0.5,0.4,2.6-0.3,2.6c-0.6,0,1-10.6,1-11.8C114.8,202.8,109.6,206.2,108.6,200.8L108.6,200.8z"/>
	<g id="path4286_2_">
		<path id="XMLID_17_" fill="#040600" d="M165.2,7.4c0,0,0-0.3,0.1-0.7c0.1-0.4,0.2-1,0.5-1.5c0.3-0.5,0.7-1.1,1.1-1.4
			c0.4-0.3,0.7-0.5,0.7-0.5s0.2,0,0.5-0.1c0.3,0,0.8,0,1.3,0.2c0.5,0.2,1.1,0.5,1.5,1.1c0.4,0.5,0.6,1.4,0.3,2.1
			c-0.3,0.7-0.8,1-1.3,1.3c-0.5,0.3-0.9,0.4-1.3,0.5c-0.4,0.1-0.7,0.2-1,0.2c-0.2,0-0.4,0.1-0.4,0.1s0.1-0.1,0.3-0.1
			c0.2-0.1,0.5-0.2,0.9-0.4c0.3-0.2,0.7-0.4,1.1-0.7c0.3-0.3,0.6-0.7,0.7-1.1c0.1-0.7-0.7-1.1-1.2-1.1c-0.3,0-0.5,0.1-0.6,0.1
			c-0.1,0.1-0.2,0.1-0.2,0.1c0,0-0.2,0-0.5,0c-0.3,0.1-0.7,0.2-1.1,0.5c-0.4,0.3-0.7,0.7-1,1C165.4,7.1,165.2,7.4,165.2,7.4z"/>
	</g>
	<g id="path4288_2_">
		<path id="XMLID_16_" fill="#040600" d="M164.6,11.1c0,0,0-0.3,0.1-0.6c0.1-0.4,0.2-0.9,0.5-1.4c0.2-0.5,0.6-1,1-1.3
			c0.3-0.3,0.6-0.5,0.6-0.5s0.2,0,0.4-0.1c0.3,0,0.7-0.1,1.2,0c0.5,0.1,1.1,0.2,1.6,0.6c0.3,0.2,0.5,0.5,0.7,0.8
			c0.2,0.3,0.2,0.8,0.1,1.1c-0.2,0.7-0.8,1.1-1.2,1.3c-0.5,0.2-0.9,0.4-1.3,0.5c-0.4,0.1-0.7,0.1-0.9,0.2c-0.2,0-0.3,0-0.3,0
			s0.1,0,0.3-0.1c0.2-0.1,0.5-0.2,0.8-0.4c0.3-0.2,0.7-0.4,1-0.7c0.3-0.3,0.6-0.7,0.5-1c0-0.5-0.9-0.7-1.3-0.6
			c-0.3,0-0.5,0.1-0.6,0.2c-0.1,0.1-0.2,0.1-0.2,0.1s-0.2,0-0.5,0.1c-0.3,0.1-0.7,0.2-1.1,0.5c-0.4,0.3-0.7,0.6-1,0.9
			C164.7,10.9,164.6,11.1,164.6,11.1z"/>
	</g>
	<g id="path4314_2_">
		<path id="XMLID_15_" fill="#040600" d="M119.1,108.6c0,0,0.1,0.5,0.3,1.2c0.2,0.7,0.3,1.6,0.5,2.6c0.1,1,0.3,1.9,0.3,2.7
			c0,0.4,0,0.7,0,0.9c0,0.2,0,0.3,0,0.3s-0.1,0.2-0.2,0.7c-0.1,0.4-0.3,1-0.5,1.8c-0.5,1.4-1.5,3.3-3,4.6c-1.4,1.4-3.1,2.4-4.3,3.1
			c-1.2,0.7-2,1.2-2,1.2s0.8-0.6,1.9-1.5c1.1-0.9,2.5-2.1,3.7-3.6c1.2-1.4,1.8-3.1,2-4.4c0.1-0.7,0.2-1.2,0.2-1.6
			c0-0.4,0.1-0.6,0.1-0.6s0-0.1,0.1-0.3c0-0.2,0.1-0.5,0.2-0.8c0.2-0.7,0.3-1.6,0.4-2.5c0.1-0.9,0.2-1.9,0.2-2.6
			C119.1,109,119.1,108.6,119.1,108.6z"/>
	</g>
	<g id="path4318_2_">
		<path id="XMLID_12_" fill="#040600" d="M123.6,108.6c0,0,0,0.4,0.1,1c0,0.6,0.1,1.4,0.2,2.1c0.2,1.5,0.4,3,0.4,3s0,0.2,0,0.5
			c0,0.3,0,0.8-0.1,1.3c0,1.1,0.1,2.6,0.5,4c0.4,1.4,1.4,2.6,2.2,3.4c0.8,0.8,1.3,1.4,1.3,1.4s-0.6-0.4-1.6-1.1
			c-0.9-0.7-2.2-1.8-2.9-3.2c-0.8-1.4-1.1-3.1-1.3-4.2c-0.1-0.6-0.2-1.1-0.2-1.4c0-0.3-0.1-0.5-0.1-0.5s0.3-1.6,0.6-3.1
			c0.2-0.8,0.4-1.5,0.5-2.1C123.5,108.9,123.6,108.6,123.6,108.6z"/>
	</g>
	<g id="path4324_2_">
		<path id="XMLID_11_" fill="#040600" d="M126.8,133c0,0,0.3-0.4,0.7-0.7c0.4-0.3,0.7-0.7,0.7-0.7s0.2,0,0.5,0.1
			c0.3,0,0.7,0.1,1.1,0.1c0.4,0,0.8,0,1.1-0.1c0.3-0.1,0.5-0.3,0.5-0.3s0,0.2-0.2,0.5c-0.2,0.3-0.6,0.6-1,0.9
			c-0.4,0.3-0.8,0.5-1.1,0.6c-0.3,0.2-0.5,0.3-0.5,0.3s-0.5-0.2-0.9-0.4C127.3,133.1,126.8,133,126.8,133z"/>
	</g>
	<g id="path4326_2_">
		<path id="XMLID_10_" fill="#040600" d="M128.9,138.3c0,0,0.4-0.3,0.7-0.6c0.3-0.3,0.7-0.7,0.7-0.7s0.8,0.1,1.6,0.1
			c0.4,0,0.8,0,1.1-0.1c0.3-0.1,0.5-0.1,0.5-0.1s-0.1,0.2-0.4,0.4c-0.2,0.2-0.6,0.5-0.9,0.8c-0.7,0.6-1.5,1-1.5,1s-0.5-0.2-1-0.4
			C129.3,138.5,128.9,138.3,128.9,138.3z"/>
	</g>
	<g id="path4328_2_">
		<path id="XMLID_9_" fill="#040600" d="M133.3,144.6c0,0,0-0.1,0.1-0.2c0.1-0.1,0.1-0.3,0.2-0.5c0.1-0.4,0.2-0.8,0.2-0.8
			s0.6-0.2,1.3-0.5c0.7-0.3,1.3-0.7,1.3-0.7s-0.2,0.7-0.5,1.4c-0.3,0.7-0.7,1.4-0.7,1.4s-0.5,0.1-0.9,0.1c-0.2,0-0.5,0-0.6,0
			C133.4,144.6,133.3,144.6,133.3,144.6z"/>
	</g>
	<g id="path4330_2_">
		<path id="XMLID_13_" fill="#040600" d="M112.2,139c0,0-0.5,0.2-1,0.3c-0.5,0.1-1,0.2-1,0.2s-0.8-0.6-1.5-1.3
			c-0.7-0.7-1.1-1.5-1.1-1.5s0.8,0.5,1.7,0.6c0.8,0.2,1.7,0.2,1.7,0.2s0.3,0.4,0.6,0.8C111.8,138.6,112.2,139,112.2,139z"/>
	</g>
	<g id="path4332_2_">
		<path id="XMLID_14_" fill="#040600" d="M108.2,145c0,0-0.4,0.3-0.9,0.5c-0.5,0.2-1,0.4-1,0.4s-0.9-0.4-1.6-1
			c-0.4-0.3-0.7-0.6-1-0.8c-0.2-0.2-0.4-0.4-0.4-0.4s0.2,0.1,0.5,0.1c0.3,0.1,0.8,0.1,1.2,0.1c0.9,0,1.7-0.1,1.7-0.1
			s0.3,0.3,0.7,0.6C107.8,144.8,108.2,145,108.2,145z"/>
	</g>
	<g id="path4334_2_">
		<path id="XMLID_394_" fill="#040600" d="M98.9,148.3c0,0,0.5,0,1,0.1c0.5,0,1,0,1,0s0.5,0.6,1.1,1.2c0.6,0.6,1.3,1.1,1.3,1.1
			s-0.9,0-1.8-0.1c-0.9-0.1-1.8-0.4-1.8-0.4s-0.2-0.5-0.4-0.9C99.1,148.7,98.9,148.3,98.9,148.3z"/>
	</g>
</g>
</svg>
